<svg xmlns="http://www.w3.org/2000/svg" xmlns:xlink="http://www.w3.org/1999/xlink" width="616" height="616"
    viewBox="0 0 616 616" fill="none">
    <path id="Vector" fill-rule="evenodd"  
        d="M5.10767 158.229C88.9607 105.477 172.833 52.7578 256.68 0C342.419 52.976 427.985 106.234 513.718 159.217C513.718 254.453 513.718 349.689 513.718 444.925C465.69 472.671 417.629 500.378 369.613 528.149C369.318 525.474 368.747 522.856 368.137 520.25C369.818 517.985 371.711 515.663 372.192 512.807C373.585 505.62 373.854 498.293 374.599 491.029C374.984 486.775 375.997 482.527 375.401 478.247C374.81 470.566 371.429 463.38 371.057 455.686C370.768 450.777 373.643 446.125 377.775 443.623C381.285 441.473 385.09 439.683 389.152 438.868C394.317 437.54 399.45 436.045 404.616 434.71C410.301 432.836 414.478 428.287 418.399 423.988C422.262 418.88 425.046 412.733 425.438 406.284C425.354 398.193 425.547 390.037 424.09 382.042C423.128 376.626 422.454 371.14 420.888 365.859C418.206 359.892 416.865 353.43 415.582 347.045C414.818 344.652 413.824 342.297 412.438 340.199C408.671 335.014 405.026 329.656 402.53 323.734C399.822 318.6 397.269 313.377 395.279 307.929C393.245 302.732 393.117 297.085 391.815 291.702C393.707 290.04 395.69 288.474 397.532 286.742C397.237 285.933 396.935 285.118 396.659 284.316C398.975 280.594 401.497 276.854 402.524 272.535C403.717 269.539 405.944 267.107 407.433 264.277C408.389 260.536 408.953 256.692 409.768 252.919C411.488 248.19 413.554 243.589 415.383 238.899C415.607 239.983 415.851 241.061 416.127 242.146C416.839 240.644 417.443 239.098 417.956 237.519C419.881 231.706 423.198 226.457 425.014 220.611C428.12 216.325 432.092 212.738 435.3 208.535C438.303 204.544 437.758 199.148 440.164 194.881C441.467 192.616 443.353 190.646 444.2 188.137C444.226 186.603 443.597 185.153 443.218 183.69C444.174 182.772 445.413 181.88 445.387 180.405C445.496 176.189 445.522 171.967 445.67 167.751C445.047 167.379 444.431 167.013 443.815 166.654C443.148 167.218 442.487 167.789 441.832 168.367C444.579 160.423 447.351 152.499 450.071 144.555C450.437 144.927 451.162 145.671 451.522 146.037C451.65 144.253 451.618 142.456 451.714 140.666C451.797 138.433 453.421 136.502 453.331 134.275C452.298 132.523 449.956 132.171 448.121 132.645C443.27 146.698 438.226 160.693 433.529 174.803C431.405 175.181 429.769 176.702 427.78 177.44C425.329 178.627 422.416 178.364 420.073 179.827C418.251 180.976 416.121 181.765 414.581 183.286C413.323 186.43 413.009 189.94 411.263 192.904C410.333 194.707 408.806 196.279 408.556 198.365C408.119 200.553 408.581 202.799 408.158 204.993C407.914 207.99 405.771 210.287 404.186 212.68C402.222 215.433 401.767 218.982 399.636 221.651C398.257 223.332 397.166 225.212 396.056 227.073C392.937 231.398 389.896 235.787 386.476 239.874C384.686 242.415 382.639 244.77 380.188 246.702C377.557 242.409 375.259 237.917 372.481 233.714C370.633 230.73 370.216 226.97 367.867 224.288C362.349 218.257 356.645 212.385 351.319 206.193C349.131 201.483 346.282 197.139 343.645 192.673C342.182 189.779 339.769 187.553 338.056 184.826C335.245 180.257 331.716 176.163 328.084 172.236C323.644 172.608 319.236 173.314 314.782 173.5C308.282 173.77 301.75 174.623 295.25 173.789C295.231 173.391 295.18 172.583 295.16 172.185C294.416 171.338 293.768 170.42 293.062 169.548C292.947 169.246 292.716 168.649 292.6 168.348L292.042 168.566C292.042 167.712 292.048 166.859 292.055 166.012L291.092 166.05L291.612 164.928C291.419 164.895 291.047 164.838 290.855 164.806C290.733 164.401 290.495 163.587 290.373 163.176C290.149 162.855 289.706 162.207 289.482 161.886C289.507 161.661 289.559 161.212 289.584 160.988L289.064 160.885C288.686 159.717 288.275 158.562 287.839 157.42C287.627 156.778 287.415 156.137 287.204 155.501C286.928 154.834 286.639 154.173 286.35 153.512C286.331 153.102 286.286 152.28 286.267 151.87L285.599 152.03C285.612 151.106 285.625 150.176 285.644 149.252L284.804 149.508C284.881 148.937 285.048 147.808 285.125 147.237L284.156 147.615C284.226 147.07 284.361 145.973 284.425 145.427L283.604 145.581C283.649 144.651 283.694 143.72 283.739 142.79L283.091 143.06C282.885 141.257 282.654 139.447 282.853 137.644C283.251 133.691 282.616 129.739 282.937 125.786C283.116 124.92 282.879 124.143 282.308 123.489L283.398 123.989C283.257 122.988 283.129 121.987 283.02 120.986C284.63 120.396 284.201 118.349 284.303 116.995C283.803 112.433 281.923 108.166 280.415 103.86C281.05 103.693 281.692 103.533 282.333 103.372C281.724 103.411 281.121 103.398 280.53 103.347C280.286 102.134 279.305 100.735 280.331 99.5867C280.088 99.6829 279.587 99.8818 279.343 99.9781C279.369 98.9193 279.183 97.8798 278.586 96.9943C278.592 96.7762 278.612 96.3334 278.625 96.1152L277.771 96.1281C277.835 95.8137 277.964 95.1784 278.028 94.864L277.45 94.9859C277.2 94.7485 276.699 94.2801 276.443 94.0491L276.321 93.9913C274.601 91.1359 272.753 88.3447 269.981 86.394C269.725 86.4453 269.211 86.548 268.955 86.5993L268.967 85.8101C268.454 85.8486 267.434 85.932 266.921 85.9769L266.991 85.3866C265.996 85.2454 265.214 84.7385 264.809 83.8081C264.54 83.8722 264.007 83.9877 263.738 84.0519L263.898 83.3397C262.262 82.7686 260.671 81.9729 258.932 81.7933C256.699 81.7291 254.607 82.6403 252.515 83.2755C251.867 82.8905 251.219 82.4991 250.577 82.1141C249.769 81.9986 248.973 82.0499 248.19 82.2681C248.19 81.9152 248.184 81.2093 248.177 80.85C248.1 81.1131 247.946 81.6264 247.869 81.8831C246.682 81.8446 245.514 81.9729 244.372 82.2681C240.702 84.8668 236.846 87.1833 233.239 89.859C231.552 90.4814 230.544 91.8418 230.031 93.5101L229.017 93.8117C229.152 94.1197 229.434 94.7357 229.569 95.0373L228.761 94.7421C227.099 98.9642 223.98 102.416 222.305 106.645C220.996 109.629 220.669 112.997 221.208 116.199C221.407 117.906 221.619 119.613 222.03 121.281C222.241 125.196 221.388 129.052 221.446 132.96C221.465 137.111 220.002 141.019 218.667 144.876L218.045 144.824C218.115 145.145 218.257 145.793 218.327 146.12L217.75 146.12C217.018 147.359 216.261 148.584 215.491 149.803C213.637 152.011 211.943 154.398 209.665 156.201C209.183 156.586 208.721 156.997 208.285 157.426C207.419 157.837 206.475 158.196 205.917 159.031C205.635 159.14 205.07 159.358 204.788 159.467C205.455 159.531 206.784 159.66 207.451 159.724C208.048 159.191 208.561 158.575 209.158 158.036L209.19 157.921C212.693 155.886 214.747 152.267 217.57 149.502C216.71 153.82 214.984 157.921 213.117 161.893C213.13 162.117 213.168 162.566 213.187 162.797L212.385 162.913C212.437 163.214 212.539 163.824 212.597 164.125L211.686 164.17C211.763 164.491 211.91 165.133 211.981 165.454L211.012 165.351C211.076 165.633 211.205 166.198 211.269 166.474C210.582 166.756 209.896 167.058 209.222 167.366C210.364 167.321 211.865 167.494 211.987 165.954L212.597 166.102C212.559 165.743 212.475 165.017 212.437 164.658L213.232 164.62C213.187 165.062 213.104 165.941 213.059 166.378C212.867 166.808 212.488 167.661 212.295 168.091L211.673 167.873C211.724 168.213 211.821 168.906 211.872 169.252L212.732 169.182C212.584 169.554 212.283 170.305 212.135 170.677C212.417 170.574 212.982 170.369 213.264 170.266C213.194 170.998 213.13 171.729 213.072 172.461L212.173 172.474C212.263 172.743 212.437 173.288 212.526 173.558C211.23 174.668 209.35 175.246 208.426 176.709C210.101 175.502 211.795 174.136 213.938 173.937C213.835 174.623 213.63 175.996 213.534 176.683C213.264 177.53 213.085 178.409 212.892 179.275C212.263 181.778 212.603 184.377 212.526 186.93C207.059 189.279 202.016 192.718 196.106 193.912C190.318 195.644 184.492 197.165 178.55 198.269C177.703 201.612 176.927 204.98 175.759 208.227C172.897 216.556 172.288 225.456 169.413 233.772C166.205 241.01 163.644 248.524 161.514 256.153C158.896 263.962 155.001 271.265 150.952 278.413C148.976 283.219 146.98 288.018 144.76 292.722C142.424 298.048 138.703 302.591 135.892 307.647C133.48 311.67 132.748 316.425 132.491 321.039C132.588 324.266 133.46 327.641 135.584 330.163C137.792 332.98 141.135 334.501 143.977 336.554C147.288 339.147 151.138 341.033 154.058 344.126C154.372 352.654 154.866 361.194 155.803 369.69C156.503 376.293 156.881 382.953 156.522 389.601C156.22 397.776 154.334 405.777 152.704 413.759C150.464 421.062 147.224 428.024 145.479 435.48C141.545 445.214 137.227 454.801 132.703 464.272C128.243 471.272 123.277 477.939 118.612 484.805C114.011 491.812 108.461 498.139 102.756 504.26C68.5172 484.484 34.2843 464.695 0.0256673 444.957C-0.0256661 350.273 0.01925 255.582 0 160.891C1.74533 160.083 3.50992 159.3 5.10767 158.229Z">
    </path>
    <path id="Vector" fill-rule="evenodd"  
        d="M214.432 176.33C215.042 176.311 215.645 176.298 216.255 176.279C216.28 177.472 216.319 178.666 216.325 179.859C215.812 180.828 215.311 181.816 214.849 182.817L213.752 182.849C213.778 181.489 213.79 180.129 213.778 178.775L214.381 178.935C214.394 178.063 214.413 177.196 214.432 176.33Z">
    </path>
    <path id="Vector" fill-rule="evenodd"  
        d="M318.209 305.222C320.923 300.268 323.227 295.115 326.005 290.2C327.269 304.586 327.783 319.178 331.536 333.205C333.346 340.77 335.932 348.181 339.981 354.867C347.052 366.693 354.495 378.378 360.046 391.032C360.938 393.727 360.309 396.601 359.757 399.296C359.186 402.71 357.177 405.604 355.496 408.549C352.917 413.054 349.766 417.257 347.783 422.082C347.867 424.443 349.073 426.586 349.651 428.858C351.544 433.959 352.647 439.381 355.31 444.175C357.755 448.698 360.18 453.254 363.068 457.521C363.96 458.522 363.254 459.87 363.055 461.018C360.886 468.847 358.66 476.784 354.604 483.887C350.44 476.245 345.756 468.827 342.689 460.653C340.712 455.455 338.325 450.431 336.111 445.342C333.628 439.811 331.832 434.017 329.361 428.486C327.211 422.839 325.319 417.071 324.234 411.116C325.03 411.186 325.832 411.263 326.634 411.347C327.179 408.312 328.63 405.553 329.207 402.537C329.759 400.06 330.587 397.66 331.325 395.241C329.74 393.906 328.033 392.732 326.435 391.41C323.406 388.844 319.73 387.156 316.81 384.448C314.436 381.837 313.826 378.256 312.8 375.009C309.784 366.924 306.267 359.051 303.053 351.043C300.935 350.491 301.16 347.976 300.505 346.327C299.254 342.586 298.837 338.665 298.369 334.777C297.676 330.619 296.944 326.461 297.072 322.245C297.297 322.065 297.74 321.706 297.958 321.526C301.051 321.437 303.919 320.089 306.396 318.312C311.157 314.782 315.058 310.214 318.209 305.222Z">
    </path>
    <path id="Vector" fill-rule="evenodd"  
        d="M171.768 514.187C173.872 510.029 175.4 505.608 176.664 501.135C177.286 511.107 175.323 520.943 174.822 530.87C174.373 535.779 174.764 540.713 174.437 545.628C169.054 542.51 163.644 539.436 158.286 536.279C163.721 529.555 168.521 522.227 171.768 514.187Z">
    </path>
    <defs>
        <rect id="path_0" x="0" y="0" width="616" height="616" rx="0" ry="0" />
    </defs>
</svg>