<svg xmlns="http://www.w3.org/2000/svg" xmlns:xlink="http://www.w3.org/1999/xlink" width="66.716796875"
    height="68.5908203125" viewBox="0 0 66.716796875 68.5908203125"  >
    <path   fill-rule="evenodd" 
        d="M0.663331 20.5491C11.5533 13.6983 22.4458 6.85166 33.3349 0C44.4699 6.87999 55.5823 13.7966 66.7164 20.6775C66.7164 33.0458 66.7164 45.4141 66.7164 57.7824C60.479 61.3858 54.2373 64.9841 48.0015 68.5908C47.9632 68.2433 47.889 67.9033 47.8098 67.5649C48.0282 67.2708 48.274 66.9691 48.3365 66.5983C48.5173 65.6649 48.5523 64.7133 48.649 63.7699C48.699 63.2174 48.8307 62.6658 48.7532 62.1099C48.6765 61.1124 48.2373 60.1791 48.189 59.1799C48.1515 58.5424 48.5248 57.9383 49.0615 57.6133C49.5173 57.3341 50.0115 57.1016 50.539 56.9958C51.2098 56.8233 51.8765 56.6291 52.5473 56.4558C53.2857 56.2124 53.8282 55.6216 54.3373 55.0633C54.839 54.3999 55.2006 53.6016 55.2515 52.7641C55.2407 51.7133 55.2657 50.6541 55.0765 49.6158C54.9515 48.9124 54.864 48.1999 54.6607 47.5141C54.3123 46.7391 54.1382 45.8999 53.9715 45.0708C53.8723 44.76 53.7432 44.4541 53.5632 44.1816C53.074 43.5083 52.6007 42.8125 52.2765 42.0433C51.9248 41.3766 51.5932 40.6983 51.3348 39.9908C51.0707 39.3158 51.054 38.5825 50.8848 37.8833C51.1307 37.6675 51.3882 37.4641 51.6273 37.2391C51.589 37.1341 51.5498 37.0283 51.514 36.9241C51.8148 36.4408 52.1423 35.955 52.2757 35.3941C52.4307 35.005 52.7198 34.6891 52.9132 34.3216C53.0373 33.8358 53.1107 33.3366 53.2165 32.8466C53.4398 32.2325 53.7082 31.635 53.9457 31.0258C53.9748 31.1666 54.0065 31.3066 54.0423 31.4475C54.1348 31.2525 54.2132 31.0516 54.2798 30.8466C54.5298 30.0916 54.9607 29.41 55.1965 28.6508C55.5998 28.0941 56.1156 27.6283 56.5323 27.0825C56.9223 26.5641 56.8515 25.8633 57.164 25.3091C57.3331 25.015 57.5781 24.7591 57.6881 24.4333C57.6915 24.2341 57.6098 24.0458 57.5606 23.8558C57.6848 23.7366 57.8456 23.6208 57.8423 23.4291C57.8565 22.8816 57.8598 22.3333 57.879 21.7858C57.7981 21.7375 57.7181 21.69 57.6381 21.6433C57.5515 21.7166 57.4656 21.7908 57.3806 21.8658C57.7373 20.8341 58.0973 19.805 58.4506 18.7733C58.4981 18.8216 58.5923 18.9183 58.639 18.9658C58.6556 18.7341 58.6515 18.5008 58.664 18.2683C58.6748 17.9783 58.8856 17.7275 58.874 17.4383C58.7398 17.2108 58.4356 17.165 58.1973 17.2266C57.5673 19.0516 56.9123 20.8691 56.3023 22.7016C56.0265 22.7508 55.814 22.9483 55.5556 23.0441C55.2373 23.1983 54.859 23.1641 54.5548 23.3541C54.3182 23.5033 54.0415 23.6058 53.8415 23.8033C53.6782 24.2116 53.6373 24.6675 53.4107 25.0525C53.2898 25.2866 53.0915 25.4908 53.059 25.7616C53.0023 26.0458 53.0623 26.3375 53.0073 26.6225C52.9757 27.0116 52.6973 27.31 52.4915 27.6208C52.2365 27.9783 52.1773 28.4391 51.9007 28.7858C51.7215 29.0041 51.5798 29.2483 51.4357 29.49C51.0307 30.0516 50.6357 30.6216 50.1915 31.1525C49.959 31.4825 49.6932 31.7883 49.3748 32.0391C49.0332 31.4816 48.7348 30.8983 48.374 30.3525C48.134 29.965 48.0798 29.4766 47.7748 29.1283C47.0582 28.345 46.3173 27.5825 45.6257 26.7783C45.3415 26.1666 44.9715 25.6025 44.629 25.0225C44.439 24.6466 44.1257 24.3575 43.9032 24.0033C43.5382 23.41 43.0799 22.8783 42.6082 22.3683C42.0315 22.4166 41.459 22.5083 40.8807 22.5325C40.0365 22.5675 39.1882 22.6783 38.344 22.57C38.3415 22.5183 38.3349 22.4133 38.3324 22.3616C38.2357 22.2516 38.1515 22.1325 38.0599 22.0191C38.0449 21.98 38.0149 21.9025 37.9999 21.8633L37.9274 21.8916C37.9274 21.7808 37.9282 21.67 37.929 21.56L37.804 21.565L37.8715 21.4191C37.8465 21.415 37.7982 21.4075 37.7732 21.4033C37.7574 21.3508 37.7265 21.245 37.7107 21.1916C37.6815 21.15 37.624 21.0658 37.5949 21.0241C37.5982 20.995 37.6049 20.9366 37.6082 20.9075L37.5407 20.8941C37.4915 20.7425 37.4382 20.5925 37.3815 20.4441C37.354 20.3608 37.3265 20.2775 37.299 20.195C37.2632 20.1083 37.2257 20.0225 37.1882 19.9366C37.1857 19.8833 37.1799 19.7766 37.1774 19.7233L37.0907 19.7441C37.0924 19.6241 37.094 19.5033 37.0965 19.3833L36.9874 19.4166C36.9974 19.3425 37.019 19.1958 37.029 19.1216L36.9032 19.1708C36.9124 19.1 36.9299 18.9575 36.9382 18.8866L36.8315 18.9066C36.8374 18.7858 36.8432 18.665 36.849 18.5441L36.7649 18.5791C36.7382 18.345 36.7082 18.11 36.7341 17.8758C36.7857 17.3625 36.7032 16.8491 36.7449 16.3358C36.7682 16.2233 36.7374 16.1225 36.6632 16.0375L36.8049 16.1025C36.7865 15.9725 36.7699 15.8425 36.7557 15.7125C36.9649 15.6358 36.909 15.37 36.9224 15.1941C36.8574 14.6016 36.6132 14.0475 36.4174 13.4883C36.4999 13.4667 36.5832 13.4458 36.6666 13.425C36.5874 13.43 36.509 13.4283 36.4324 13.4217C36.4007 13.2642 36.2732 13.0825 36.4066 12.9333C36.3749 12.9458 36.3099 12.9717 36.2782 12.9842C36.2816 12.8467 36.2574 12.7117 36.1799 12.5967C36.1807 12.5683 36.1832 12.5108 36.1849 12.4825L36.074 12.4842C36.0824 12.4433 36.0991 12.3608 36.1074 12.32L36.0324 12.3358C35.9999 12.305 35.9349 12.2442 35.9015 12.2142L35.8857 12.2067C35.6624 11.8358 35.4224 11.4733 35.0624 11.22C35.0291 11.2267 34.9624 11.24 34.9291 11.2467L34.9307 11.1442C34.8641 11.1492 34.7316 11.16 34.6649 11.1658L34.6741 11.0892C34.5449 11.0708 34.4432 11.005 34.3907 10.8842C34.3557 10.8925 34.2866 10.9075 34.2516 10.9158L34.2724 10.8233C34.0599 10.7492 33.8532 10.6458 33.6274 10.6225C33.3374 10.6142 33.0657 10.7325 32.7941 10.815C32.7099 10.765 32.6257 10.7142 32.5424 10.6642C32.4374 10.6492 32.3341 10.6558 32.2324 10.6842C32.2324 10.6383 32.2316 10.5467 32.2307 10.5C32.2207 10.5342 32.2007 10.6008 32.1907 10.6342C32.0366 10.6292 31.8849 10.6458 31.7366 10.6842C31.2599 11.0217 30.7591 11.3225 30.2907 11.67C30.0716 11.7508 29.9407 11.9275 29.8741 12.1442L29.7424 12.1833C29.7599 12.2233 29.7966 12.3033 29.8141 12.3425L29.7091 12.3042C29.4932 12.8525 29.0882 13.3008 28.8707 13.85C28.7007 14.2375 28.6582 14.675 28.7282 15.0908C28.7541 15.3125 28.7816 15.5341 28.8349 15.7508C28.8624 16.2591 28.7516 16.76 28.7591 17.2675C28.7616 17.8066 28.5716 18.3141 28.3982 18.815L28.3174 18.8083C28.3266 18.85 28.3449 18.9341 28.3541 18.9766L28.2791 18.9766C28.1841 19.1375 28.0857 19.2966 27.9857 19.455C27.7449 19.7416 27.5249 20.0516 27.2291 20.2858C27.1666 20.3358 27.1066 20.3891 27.0499 20.445C26.9374 20.4983 26.8149 20.545 26.7424 20.6533C26.7057 20.6675 26.6324 20.6958 26.5957 20.71C26.6824 20.7183 26.8549 20.735 26.9416 20.7433C27.0191 20.6741 27.0857 20.5941 27.1632 20.5241L27.1674 20.5091C27.6224 20.245 27.8891 19.775 28.2557 19.4158C28.1441 19.9766 27.9199 20.5091 27.6774 21.025C27.6791 21.0541 27.6841 21.1125 27.6866 21.1425L27.5824 21.1575C27.5891 21.1966 27.6024 21.2758 27.6099 21.315L27.4916 21.3208C27.5016 21.3625 27.5207 21.4458 27.5299 21.4875L27.4041 21.4741C27.4124 21.5108 27.4291 21.5841 27.4374 21.62C27.3482 21.6566 27.2591 21.6958 27.1716 21.7358C27.3199 21.73 27.5149 21.7525 27.5307 21.5525L27.6099 21.5716C27.6049 21.525 27.5941 21.4308 27.5891 21.3841L27.6924 21.3791C27.6866 21.4366 27.6757 21.5508 27.6699 21.6075C27.6449 21.6633 27.5957 21.7741 27.5707 21.83L27.4899 21.8016C27.4966 21.8458 27.5091 21.9358 27.5157 21.9808L27.6274 21.9716C27.6082 22.02 27.5691 22.1175 27.5499 22.1658C27.5866 22.1525 27.6599 22.1258 27.6966 22.1125C27.6874 22.2075 27.6791 22.3025 27.6716 22.3975L27.5549 22.3991C27.5666 22.4341 27.5891 22.505 27.6007 22.54C27.4324 22.6841 27.1882 22.7591 27.0682 22.9491C27.2857 22.7925 27.5057 22.615 27.7841 22.5891C27.7707 22.6783 27.7441 22.8566 27.7316 22.9458C27.6966 23.0558 27.6732 23.17 27.6482 23.2825C27.5666 23.6075 27.6107 23.945 27.6007 24.2766C26.8907 24.5816 26.2357 25.0283 25.4683 25.1833C24.7166 25.4083 23.9599 25.6058 23.1883 25.7491C23.0783 26.1833 22.9774 26.6208 22.8258 27.0425C22.4541 28.1241 22.3749 29.28 22.0016 30.36C21.5849 31.3 21.2524 32.2758 20.9758 33.2666C20.6358 34.2808 20.1299 35.2291 19.6041 36.1575C19.3474 36.7816 19.0883 37.405 18.7999 38.0158C18.4966 38.7075 18.0133 39.2975 17.6483 39.9541C17.3349 40.4766 17.2399 41.0941 17.2066 41.6933C17.2191 42.1125 17.3324 42.5508 17.6083 42.8783C17.8949 43.2441 18.3291 43.4416 18.6983 43.7083C19.1283 44.0449 19.6283 44.2899 20.0074 44.6916C20.0483 45.7991 20.1124 46.9083 20.2341 48.0116C20.3249 48.8691 20.3741 49.7341 20.3274 50.5974C20.2883 51.6591 20.0433 52.6983 19.8316 53.7349C19.5408 54.6833 19.1199 55.5874 18.8933 56.5558C18.3824 57.8199 17.8216 59.0649 17.2341 60.2949C16.6549 61.2041 16.0099 62.0699 15.4041 62.9616C14.8066 63.8716 14.0858 64.6933 13.345 65.4883C8.8983 62.9199 4.45249 60.3499 0.0033334 57.7866C-0.00333325 45.4899 0.00249999 33.1925 0 20.895C0.226666 20.79 0.455832 20.6883 0.663331 20.5491Z">
    </path>
</svg>