<svg width="1920" height="308" viewBox="0 0 1920 308" fill="none" xmlns="http://www.w3.org/2000/svg">
<rect width="1920" height="308" fill="url(#paint0_radial_253_581)"/>
<path d="M835.447 67.008H829.507L830.227 61.464H829.723L828.859 64.776C828.307 66.264 827.371 67.008 826.051 67.008H824.323L825.763 61.464H825.043L825.367 59.196C825.415 58.98 825.511 58.8 825.655 58.656C825.823 58.512 826.003 58.44 826.195 58.44H830.659L830.803 57.576H835.879C836.095 57.576 836.275 57.66 836.419 57.828C836.587 57.996 836.647 58.2 836.599 58.44H841.783L841.459 60.744C841.435 60.96 841.339 61.14 841.171 61.284C841.027 61.404 840.847 61.464 840.631 61.464V67.008H839.191C838.495 67.008 837.907 66.756 837.427 66.252C836.947 65.748 836.707 65.136 836.707 64.416V61.464H836.203L835.447 67.008ZM797.575 82.344L801.355 54.516H808.087L807.727 57.108L807.655 57.684L804.127 83.568C803.983 84.672 803.491 85.608 802.651 86.376C801.787 87.144 800.827 87.528 799.771 87.528H796.891L797.395 83.784L797.575 82.344ZM842.359 54.516L842.323 54.912C842.227 55.56 841.939 56.088 841.459 56.496C841.003 56.904 840.475 57.108 839.875 57.108H808.483L808.843 54.516H819.715L819.859 53.652H826.087C826.303 53.652 826.483 53.736 826.627 53.904C826.771 54.072 826.831 54.276 826.807 54.516H842.359ZM833.863 79.824L832.891 82.344C832.699 82.584 832.783 82.692 833.143 82.668L834.295 82.632L834.331 80.796H836.095C836.719 80.796 837.247 81.024 837.679 81.48C838.135 81.936 838.363 82.5 838.363 83.172V84.612H834.295V84.252L828.823 84.54C828.175 84.588 827.755 84.444 827.563 84.108C827.395 83.748 827.395 83.352 827.563 82.92L828.679 79.824H833.863ZM827.059 85.332H838.327L838.003 87.6H822.379C821.563 87.6 820.903 87.336 820.399 86.808C819.871 86.256 819.667 85.596 819.787 84.828L820.075 82.704L814.351 86.628C813.847 86.964 813.283 87.204 812.659 87.348C812.035 87.516 811.411 87.6 810.787 87.6H804.343L804.523 86.412C804.571 86.076 804.715 85.8 804.955 85.584C805.195 85.368 805.471 85.26 805.783 85.26C806.239 85.26 806.623 85.2 806.935 85.08C807.247 84.936 807.523 84.804 807.763 84.684L816.475 78.996H809.023C808.183 78.996 807.511 78.732 807.007 78.204C806.503 77.676 806.299 77.028 806.395 76.26L807.475 68.34H813.775L813.451 70.572L813.415 71.04L813.235 72.408H819.427L819.679 70.572H814.099L814.423 68.34H815.467C815.515 68.1 815.611 67.908 815.755 67.764C815.923 67.62 816.115 67.548 816.331 67.548H822.811L822.703 68.34H839.659L838.579 76.26C838.483 77.028 838.111 77.676 837.463 78.204C836.815 78.732 836.083 78.996 835.267 78.996H825.511L823.279 80.508H826.879L826.303 84.54C826.279 84.732 826.339 84.912 826.483 85.08C826.651 85.248 826.843 85.332 827.059 85.332ZM826.879 70.572L826.627 72.408H832.855L833.107 70.572H826.879ZM826.339 74.676L826.051 76.8H831.415C831.631 76.8 831.835 76.728 832.027 76.584C832.219 76.416 832.327 76.224 832.351 76.008L832.531 74.676H826.339ZM818.815 76.8L819.103 74.676H812.911L812.731 76.008C812.707 76.224 812.767 76.416 812.911 76.584C813.055 76.728 813.247 76.8 813.487 76.8H818.815ZM811.687 64.776C811.135 66.264 810.199 67.008 808.879 67.008H807.151L808.627 61.464H807.871L808.195 59.196C808.243 58.98 808.339 58.8 808.483 58.656C808.651 58.512 808.831 58.44 809.023 58.44H813.487L813.631 57.576H818.707C818.923 57.576 819.103 57.66 819.247 57.828C819.415 57.996 819.487 58.2 819.463 58.44H824.647L824.323 60.744C824.275 60.96 824.167 61.14 823.999 61.284C823.855 61.404 823.687 61.464 823.495 61.464H823.423L823.459 67.008H822.019C821.323 67.008 820.735 66.756 820.255 66.252C819.775 65.748 819.535 65.136 819.535 64.416V61.464H819.031L818.275 67.008H812.335L813.055 61.464H812.551L811.687 64.776ZM885.732 78.168L884.94 84.216H886.308L885.984 86.412C885.936 86.772 885.792 87.06 885.552 87.276C885.312 87.492 885.036 87.6 884.724 87.6H843.684L844.008 85.368C844.056 85.032 844.188 84.756 844.404 84.54C844.644 84.324 844.932 84.216 845.268 84.216L846.06 78.168C846.228 76.896 846.78 75.816 847.716 74.928C848.652 74.04 849.708 73.596 850.884 73.596H853.872L853.296 77.952L853.152 78.888L852.468 84.216H856.14L856.788 79.356C856.86 78.852 857.064 78.444 857.4 78.132C857.736 77.82 858.132 77.664 858.588 77.664H863.988L863.124 84.216H866.832L867.48 79.356C867.552 78.852 867.756 78.444 868.092 78.132C868.428 77.82 868.824 77.664 869.28 77.664H874.644L873.78 84.216H877.74L878.568 77.952C878.616 77.592 878.532 77.268 878.316 76.98C878.124 76.716 877.836 76.584 877.452 76.584H854.952L855.312 73.596H882.096C883.272 73.596 884.22 74.04 884.94 74.928C885.636 75.816 885.9 76.896 885.732 78.168ZM856.752 57.108L854.736 60.312H847.248L850.164 55.668C850.548 55.044 851.028 54.552 851.604 54.192C852.204 53.832 852.828 53.652 853.476 53.652H884.688C885.336 53.652 885.9 53.832 886.38 54.192C886.884 54.552 887.244 55.044 887.46 55.668L889.152 60.312H881.7L880.512 57.108C880.416 56.772 880.176 56.604 879.792 56.604H857.58C857.22 56.604 856.944 56.772 856.752 57.108ZM855.384 64.992L854.988 68.124L854.916 68.664C854.892 68.856 854.94 69.012 855.06 69.132C855.156 69.276 855.288 69.348 855.456 69.348H878.64C878.808 69.348 878.964 69.276 879.108 69.132C879.252 69.012 879.336 68.856 879.36 68.664L879.792 64.992H856.32L856.716 62.04H887.388L886.452 69.348C886.332 70.212 885.948 70.956 885.3 71.58C884.628 72.204 883.884 72.516 883.068 72.516H850.164C849.348 72.516 848.688 72.204 848.184 71.58C847.68 70.956 847.488 70.212 847.608 69.348L848.544 62.04H855.78L855.384 64.992ZM857.832 59.52C857.904 59.04 858.108 58.644 858.444 58.332C858.756 58.044 859.128 57.9 859.56 57.9H879L878.82 59.232C878.748 59.712 878.556 60.096 878.244 60.384C877.908 60.696 877.524 60.852 877.092 60.852H857.652L857.832 59.52ZM902.753 57.252C902.321 57.252 901.973 57.456 901.709 57.864L899.657 61.68H891.557L894.869 55.416C895.709 54.24 896.789 53.652 898.109 53.652H929.753C931.241 53.652 932.393 54.384 933.209 55.848L935.945 61.68H928.205L926.369 58.152C925.985 57.552 925.481 57.252 924.857 57.252H902.753ZM895.193 64.632C895.553 63.768 896.153 63.336 896.993 63.336H931.373L931.013 65.82C930.941 66.132 930.785 66.384 930.545 66.576C930.329 66.792 930.065 66.9 929.753 66.9H894.689L895.193 64.632ZM891.557 72.336C891.941 72.024 892.373 71.868 892.853 71.868H934.109L933.821 73.596C933.701 74.172 933.425 74.64 932.993 75C932.561 75.36 932.069 75.54 931.517 75.54H904.517L901.997 82.092C901.877 82.428 901.889 82.704 902.033 82.92C902.153 83.184 902.381 83.316 902.717 83.316L923.165 82.056L924.641 85.8L894.437 87.6C893.405 87.6 892.613 87.216 892.061 86.448C891.533 85.68 891.449 84.816 891.809 83.856L895.697 75.54H890.477L890.837 73.56C890.933 73.056 891.173 72.648 891.557 72.336ZM929.825 79.032L932.237 87.6H923.957L921.257 77.448H927.665C928.649 77.448 929.369 77.976 929.825 79.032ZM945.442 64.308C944.482 64.308 943.69 63.936 943.066 63.192C942.466 62.496 942.226 61.644 942.346 60.636L943.318 53.688H950.914L950.518 56.568V56.604L950.374 57.612V57.684L950.05 59.952C949.978 60.36 950.05 60.708 950.266 60.996C950.434 61.284 950.71 61.428 951.094 61.428H973.126C973.486 61.428 973.81 61.284 974.098 60.996C974.386 60.708 974.566 60.36 974.638 59.952L975.106 56.568H951.67L952.066 53.688H982.846L981.874 60.636C981.754 61.644 981.298 62.496 980.506 63.192C979.738 63.936 978.874 64.308 977.914 64.308H945.442ZM947.134 72.912L945.946 81.552H938.602L940.222 69.816C940.366 68.712 940.858 67.764 941.698 66.972C942.538 66.156 943.522 65.748 944.65 65.748H948.142L947.458 70.608L947.134 72.876V72.912ZM973.054 69.204H949.366L949.834 65.748H978.346C979.45 65.748 980.326 66.156 980.974 66.972C981.622 67.764 981.874 68.712 981.73 69.816L980.11 81.552H973.954C973.642 81.552 973.378 81.444 973.162 81.228C972.97 80.988 972.898 80.688 972.946 80.328L974.278 70.608C974.326 70.248 974.23 69.924 973.99 69.636C973.75 69.348 973.438 69.204 973.054 69.204ZM978.058 84.72H979.966L979.57 87.564H972.658C972.106 87.564 971.098 87.384 969.634 87.024C968.194 86.688 966.67 86.292 965.062 85.836C963.454 85.404 962.062 85.008 960.886 84.648C959.71 84.312 959.122 84.144 959.122 84.144C959.122 84.144 958.51 84.312 957.286 84.648C956.086 85.008 954.622 85.404 952.894 85.836C951.19 86.292 949.522 86.688 947.89 87.024C946.258 87.384 945.034 87.564 944.218 87.564H937.198L937.594 84.72H939.646C940.222 84.72 941.314 84.444 942.922 83.892C944.554 83.34 946.27 82.716 948.07 82.02C949.87 81.3 951.43 80.664 952.75 80.112C954.07 79.56 954.73 79.284 954.73 79.284L955.738 72.048H965.602L964.522 80.112H966.214C966.214 80.112 966.622 80.352 967.438 80.832C968.278 81.288 969.322 81.816 970.57 82.416C971.818 83.016 973.114 83.544 974.458 84C975.802 84.48 977.002 84.72 978.058 84.72ZM988.958 85.26C988.862 85.836 988.61 86.292 988.202 86.628C987.794 86.988 987.326 87.168 986.798 87.168H984.098L986.186 75.72C986.306 75.072 986.594 74.544 987.05 74.136C987.506 73.752 988.046 73.56 988.67 73.56H991.082L988.958 85.26ZM993.206 69.42L993.494 67.44H986.654L986.906 65.532C986.954 65.22 987.098 64.968 987.338 64.776C987.53 64.656 987.734 64.596 987.95 64.596H989.174L989.318 58.548H994.142C994.622 58.548 995.042 58.716 995.402 59.052C995.762 59.364 995.954 59.772 995.978 60.276L995.762 64.596H999.218L1000.3 59.808C1000.68 58.968 1001.27 58.548 1002.06 58.548H1007.28L1005.77 64.596H1007.97L1007.71 66.396C1007.67 66.684 1007.52 66.936 1007.28 67.152C1007.07 67.344 1006.8 67.44 1006.49 67.44H1000.59L1000.3 69.42H1007.07L1006.89 70.824C1006.81 71.256 1006.63 71.604 1006.35 71.868C1006.03 72.132 1005.69 72.264 1005.3 72.264H999.902L998.39 83.712C998.246 84.792 997.826 85.716 997.13 86.484C996.434 87.228 995.546 87.6 994.466 87.6H990.758L992.81 72.264H986.186L986.402 70.68C986.45 70.32 986.618 70.02 986.906 69.78C987.17 69.54 987.47 69.42 987.806 69.42H993.206ZM995.294 54.84L995.474 53.652H1001.45C1001.69 53.652 1001.91 53.748 1002.1 53.94C1002.27 54.156 1002.33 54.408 1002.28 54.696V54.84H1008.83L1008.58 56.604C1008.53 56.916 1008.4 57.168 1008.18 57.36C1007.97 57.576 1007.71 57.684 1007.43 57.684H988.382L988.598 56.1C988.67 55.74 988.838 55.44 989.102 55.2C989.366 54.96 989.678 54.84 990.038 54.84H995.294ZM1004.58 85.152C1004.51 85.728 1004.27 86.208 1003.86 86.592C1003.48 86.976 1003 87.168 1002.42 87.168H999.83L1000.84 75.468C1000.89 74.916 1001.11 74.46 1001.52 74.1C1001.91 73.74 1002.35 73.56 1002.85 73.56H1005.63L1004.58 85.152ZM1017.65 53.976H1010.52L1005.91 87.6H1009.37C1010.4 87.6 1011.34 87.216 1012.18 86.448C1013.04 85.68 1013.55 84.756 1013.69 83.676L1016.07 65.784H1019.49L1016.57 87.6H1023.7L1026.58 65.784H1027.23C1027.49 65.784 1027.72 65.7 1027.91 65.532C1028.1 65.364 1028.22 65.148 1028.27 64.884L1028.49 62.94H1016.5L1017.65 53.976ZM1018.26 53.976L1017.94 56.856H1026.4C1027.21 56.856 1027.91 56.58 1028.49 56.028C1029.09 55.5 1029.45 54.816 1029.57 53.976H1018.26ZM1036.26 55.56H1052.6L1052.31 57.576C1052.26 57.912 1052.12 58.188 1051.88 58.404C1051.64 58.62 1051.36 58.728 1051.05 58.728H1046.91L1043.71 82.524L1049 82.128L1048.64 84.576C1048.59 85.008 1048.42 85.356 1048.14 85.62C1047.85 85.908 1047.5 86.064 1047.09 86.088L1030.68 87.312L1031 84.756C1031.07 84.372 1031.24 84.048 1031.5 83.784C1031.77 83.52 1032.09 83.376 1032.48 83.352L1036.4 83.028L1039.68 58.728H1034.53L1034.78 56.892C1034.85 56.508 1035.02 56.196 1035.28 55.956C1035.57 55.692 1035.9 55.56 1036.26 55.56ZM1049.86 87.6L1057.06 59.556H1053.61L1054.04 56.388H1057.82L1058.29 54.48C1058.34 54.24 1058.46 54.048 1058.65 53.904C1058.84 53.736 1059.06 53.652 1059.3 53.652H1065.45L1064.8 56.388H1074.63C1075.16 56.388 1075.59 56.592 1075.93 57C1076.26 57.408 1076.4 57.888 1076.32 58.44L1072.9 83.604C1072.76 84.708 1072.27 85.644 1071.43 86.412C1070.59 87.204 1069.63 87.6 1068.55 87.6H1062.39L1062.61 85.836C1062.66 85.5 1062.79 85.224 1063 85.008C1063.24 84.816 1063.52 84.72 1063.83 84.72H1064.26C1064.62 84.72 1064.95 84.588 1065.24 84.324C1065.5 84.06 1065.66 83.748 1065.7 83.388L1068.94 59.556H1064.05L1058.65 80.58C1058.07 82.692 1056.98 84.384 1055.37 85.656C1053.76 86.952 1051.93 87.6 1049.86 87.6ZM1088.3 67.368L1088.66 64.668H1102.27L1099.75 83.64C1099.61 84.768 1099.13 85.716 1098.31 86.484C1097.5 87.228 1096.57 87.6 1095.54 87.6H1088.45L1088.56 86.772C1088.68 86.148 1088.95 85.644 1089.38 85.26C1089.82 84.852 1090.32 84.648 1090.9 84.648H1091.76C1091.86 84.648 1091.95 84.636 1092.05 84.612C1092.14 84.564 1092.24 84.504 1092.34 84.432C1092.43 84.336 1092.5 84.252 1092.55 84.18C1092.58 84.084 1092.6 83.976 1092.62 83.856L1093.13 80.148H1085.78L1085.21 84.36C1085.06 85.296 1084.63 86.064 1083.91 86.664C1083.22 87.288 1082.4 87.6 1081.46 87.6H1077.68L1080.78 64.668H1087.84L1087.04 70.644H1094.42L1094.86 67.368H1088.3ZM1095.5 55.74H1099.28C1100.05 55.74 1100.72 56.016 1101.3 56.568C1101.88 57.12 1102.2 57.816 1102.27 58.656L1102.63 63.768H1096.04L1095.94 62.544L1082.72 63.444C1082.29 63.468 1081.93 63.384 1081.64 63.192C1081.36 63 1081.14 62.748 1081 62.436C1080.88 62.1 1080.83 61.74 1080.85 61.356C1080.88 60.972 1080.98 60.6 1081.18 60.24L1084.16 54.696C1084.62 54 1085.18 53.652 1085.86 53.652H1092.19L1089.35 59.412C1089.25 59.532 1089.25 59.688 1089.35 59.88C1089.4 60.024 1089.52 60.096 1089.71 60.096L1095.68 59.592L1095.5 55.74ZM1093.52 77.196L1094.03 73.596H1086.65L1086.18 77.196H1093.52ZM1110.73 69.24L1110.16 73.272L1120.85 71.94C1120.73 72.804 1120.38 73.536 1119.8 74.136C1119.23 74.712 1118.53 75.048 1117.72 75.144L1109.8 76.152L1108.82 83.424C1108.78 83.784 1108.86 84.084 1109.08 84.324C1109.29 84.54 1109.58 84.648 1109.94 84.648H1116.28C1117.04 84.648 1117.67 84.936 1118.15 85.512C1118.63 86.088 1118.82 86.784 1118.72 87.6H1104.94C1103.9 87.6 1103.08 87.228 1102.45 86.484C1101.8 85.716 1101.55 84.768 1101.7 83.64L1103.68 69.24H1110.73ZM1122.11 56.82C1121.56 57.396 1120.87 57.744 1120.06 57.864L1112.14 58.836L1111.49 63.588C1111.44 63.948 1111.52 64.236 1111.74 64.452C1111.96 64.668 1112.24 64.776 1112.6 64.776H1118.94C1119.71 64.776 1120.33 65.064 1120.81 65.64C1121.29 66.216 1121.48 66.912 1121.39 67.728H1107.6C1106.54 67.728 1105.7 67.356 1105.08 66.612C1104.46 65.844 1104.22 64.908 1104.36 63.804L1105.73 53.652H1112.82L1112.5 55.992L1123.15 54.66C1123.01 55.524 1122.66 56.244 1122.11 56.82Z" fill="white"/>
<path d="M666.946 103.203V116H665.241L658.799 106.13V116H657.103V103.203H658.799L665.268 113.1V103.203H666.946ZM691.652 116.176C690.99 116.176 690.39 116.064 689.851 115.842C689.317 115.613 688.857 115.294 688.471 114.884C688.09 114.474 687.797 113.987 687.592 113.425C687.387 112.862 687.284 112.247 687.284 111.579V111.21C687.284 110.437 687.398 109.748 687.627 109.145C687.855 108.535 688.166 108.02 688.559 107.598C688.951 107.176 689.396 106.856 689.895 106.64C690.393 106.423 690.908 106.314 691.441 106.314C692.121 106.314 692.707 106.432 693.199 106.666C693.697 106.9 694.104 107.229 694.421 107.65C694.737 108.066 694.972 108.559 695.124 109.127C695.276 109.689 695.353 110.305 695.353 110.973V111.702H688.251V110.375H693.727V110.252C693.703 109.83 693.615 109.42 693.463 109.021C693.316 108.623 693.082 108.295 692.76 108.037C692.438 107.779 691.998 107.65 691.441 107.65C691.072 107.65 690.732 107.729 690.422 107.888C690.111 108.04 689.845 108.269 689.622 108.573C689.399 108.878 689.227 109.25 689.104 109.689C688.98 110.129 688.919 110.636 688.919 111.21V111.579C688.919 112.03 688.98 112.455 689.104 112.854C689.232 113.246 689.417 113.592 689.657 113.891C689.903 114.189 690.199 114.424 690.545 114.594C690.896 114.764 691.295 114.849 691.74 114.849C692.314 114.849 692.801 114.731 693.199 114.497C693.598 114.263 693.946 113.949 694.245 113.557L695.229 114.339C695.024 114.649 694.764 114.945 694.447 115.227C694.131 115.508 693.741 115.736 693.278 115.912C692.821 116.088 692.279 116.176 691.652 116.176ZM717.659 114.312L720.103 106.49H721.175L720.964 108.046L718.477 116H717.431L717.659 114.312ZM716.016 106.49L718.099 114.4L718.248 116H717.149L714.39 106.49H716.016ZM723.513 114.339L725.499 106.49H727.116L724.356 116H723.267L723.513 114.339ZM721.412 106.49L723.803 114.181L724.075 116H723.038L720.48 108.028L720.27 106.49H721.412ZM774.867 112.265V103.203H776.555V112.265C776.555 113.108 776.382 113.82 776.036 114.4C775.69 114.98 775.213 115.423 774.604 115.728C774 116.026 773.306 116.176 772.521 116.176C771.735 116.176 771.038 116.041 770.429 115.771C769.819 115.502 769.342 115.092 768.996 114.541C768.65 113.99 768.478 113.296 768.478 112.458H770.174C770.174 112.997 770.273 113.439 770.473 113.785C770.672 114.131 770.947 114.386 771.299 114.55C771.656 114.714 772.063 114.796 772.521 114.796C772.966 114.796 773.364 114.702 773.716 114.515C774.073 114.321 774.354 114.037 774.56 113.662C774.765 113.281 774.867 112.815 774.867 112.265ZM798.527 103.203L801.604 108.107L804.68 103.203H806.657L802.614 109.54L806.754 116H804.759L801.604 110.999L798.448 116H796.453L800.593 109.54L796.55 103.203H798.527ZM828.665 108.802H829.825C830.394 108.802 830.862 108.708 831.231 108.521C831.606 108.327 831.885 108.066 832.066 107.738C832.254 107.404 832.348 107.029 832.348 106.613C832.348 106.121 832.266 105.708 832.102 105.374C831.938 105.04 831.691 104.788 831.363 104.618C831.035 104.448 830.619 104.363 830.115 104.363C829.658 104.363 829.254 104.454 828.902 104.636C828.557 104.812 828.284 105.063 828.085 105.392C827.892 105.72 827.795 106.106 827.795 106.552H826.169C826.169 105.901 826.333 105.31 826.661 104.776C826.989 104.243 827.449 103.818 828.041 103.502C828.639 103.186 829.33 103.027 830.115 103.027C830.889 103.027 831.565 103.165 832.146 103.44C832.726 103.71 833.177 104.114 833.499 104.653C833.821 105.187 833.982 105.852 833.982 106.648C833.982 106.971 833.906 107.316 833.754 107.686C833.607 108.049 833.376 108.389 833.06 108.705C832.749 109.021 832.345 109.282 831.847 109.487C831.349 109.687 830.751 109.786 830.054 109.786H828.665V108.802ZM828.665 110.138V109.162H830.054C830.868 109.162 831.542 109.259 832.075 109.452C832.608 109.646 833.027 109.903 833.332 110.226C833.643 110.548 833.859 110.902 833.982 111.289C834.111 111.67 834.176 112.051 834.176 112.432C834.176 113.029 834.073 113.56 833.868 114.022C833.669 114.485 833.385 114.878 833.016 115.2C832.652 115.522 832.225 115.766 831.732 115.93C831.24 116.094 830.704 116.176 830.124 116.176C829.567 116.176 829.043 116.097 828.551 115.938C828.064 115.78 827.634 115.552 827.259 115.253C826.884 114.948 826.591 114.576 826.38 114.137C826.169 113.691 826.063 113.185 826.063 112.616H827.689C827.689 113.062 827.786 113.451 827.979 113.785C828.179 114.119 828.46 114.38 828.823 114.567C829.192 114.749 829.626 114.84 830.124 114.84C830.622 114.84 831.05 114.755 831.407 114.585C831.771 114.409 832.049 114.146 832.242 113.794C832.441 113.442 832.541 113 832.541 112.467C832.541 111.934 832.43 111.497 832.207 111.157C831.984 110.812 831.668 110.557 831.258 110.393C830.854 110.223 830.376 110.138 829.825 110.138H828.665ZM859.4 110.015H856.157L856.14 108.652H859.084C859.57 108.652 859.995 108.57 860.358 108.406C860.722 108.242 861.003 108.008 861.202 107.703C861.407 107.393 861.51 107.023 861.51 106.596C861.51 106.127 861.419 105.746 861.237 105.453C861.062 105.154 860.789 104.938 860.42 104.803C860.057 104.662 859.594 104.592 859.031 104.592H856.535V116H854.839V103.203H859.031C859.688 103.203 860.273 103.271 860.789 103.405C861.305 103.534 861.741 103.739 862.099 104.021C862.462 104.296 862.737 104.647 862.925 105.075C863.112 105.503 863.206 106.016 863.206 106.613C863.206 107.141 863.071 107.618 862.802 108.046C862.532 108.468 862.157 108.813 861.677 109.083C861.202 109.353 860.646 109.525 860.007 109.602L859.4 110.015ZM859.321 116H855.489L856.447 114.62H859.321C859.86 114.62 860.317 114.526 860.692 114.339C861.073 114.151 861.363 113.888 861.562 113.548C861.762 113.202 861.861 112.795 861.861 112.326C861.861 111.852 861.776 111.441 861.606 111.096C861.437 110.75 861.17 110.483 860.807 110.296C860.443 110.108 859.975 110.015 859.4 110.015H856.983L857.001 108.652H860.306L860.666 109.145C861.281 109.197 861.803 109.373 862.23 109.672C862.658 109.965 862.983 110.34 863.206 110.797C863.435 111.254 863.549 111.758 863.549 112.309C863.549 113.105 863.373 113.779 863.021 114.33C862.676 114.875 862.187 115.291 861.554 115.578C860.921 115.859 860.177 116 859.321 116ZM893.906 109.197V110.006C893.906 110.967 893.786 111.828 893.546 112.59C893.306 113.352 892.96 113.999 892.509 114.532C892.058 115.065 891.516 115.473 890.883 115.754C890.256 116.035 889.553 116.176 888.773 116.176C888.018 116.176 887.323 116.035 886.69 115.754C886.063 115.473 885.519 115.065 885.056 114.532C884.599 113.999 884.244 113.352 883.992 112.59C883.74 111.828 883.614 110.967 883.614 110.006V109.197C883.614 108.236 883.737 107.378 883.983 106.622C884.235 105.86 884.59 105.213 885.047 104.68C885.504 104.141 886.046 103.73 886.673 103.449C887.306 103.168 888 103.027 888.756 103.027C889.535 103.027 890.238 103.168 890.865 103.449C891.498 103.73 892.04 104.141 892.491 104.68C892.948 105.213 893.297 105.86 893.537 106.622C893.783 107.378 893.906 108.236 893.906 109.197ZM892.228 110.006V109.18C892.228 108.418 892.148 107.744 891.99 107.158C891.838 106.572 891.612 106.08 891.313 105.682C891.015 105.283 890.648 104.981 890.215 104.776C889.787 104.571 889.301 104.469 888.756 104.469C888.229 104.469 887.751 104.571 887.323 104.776C886.901 104.981 886.538 105.283 886.233 105.682C885.935 106.08 885.703 106.572 885.539 107.158C885.375 107.744 885.293 108.418 885.293 109.18V110.006C885.293 110.773 885.375 111.453 885.539 112.045C885.703 112.631 885.938 113.126 886.242 113.53C886.553 113.929 886.919 114.23 887.341 114.436C887.769 114.641 888.246 114.743 888.773 114.743C889.324 114.743 889.813 114.641 890.241 114.436C890.669 114.23 891.029 113.929 891.322 113.53C891.621 113.126 891.847 112.631 891.999 112.045C892.151 111.453 892.228 110.773 892.228 110.006ZM915.352 103.203L918.428 108.107L921.504 103.203H923.481L919.438 109.54L923.578 116H921.583L918.428 110.999L915.272 116H913.277L917.417 109.54L913.374 103.203H915.352ZM970.134 114.058L973.904 103.203H975.741L971.004 116H969.694L970.134 114.058ZM966.609 103.203L970.345 114.058L970.811 116H969.501L964.772 103.203H966.609ZM997.283 103.203V116H995.587V103.203H997.283ZM1023.09 110.981H1019.67V109.602H1023.09C1023.75 109.602 1024.29 109.496 1024.7 109.285C1025.11 109.074 1025.41 108.781 1025.59 108.406C1025.79 108.031 1025.88 107.604 1025.88 107.123C1025.88 106.684 1025.79 106.271 1025.59 105.884C1025.41 105.497 1025.11 105.187 1024.7 104.952C1024.29 104.712 1023.75 104.592 1023.09 104.592H1020.06V116H1018.37V103.203H1023.09C1024.05 103.203 1024.87 103.37 1025.54 103.704C1026.21 104.038 1026.71 104.501 1027.06 105.093C1027.41 105.679 1027.58 106.35 1027.58 107.105C1027.58 107.926 1027.41 108.626 1027.06 109.206C1026.71 109.786 1026.21 110.229 1025.54 110.533C1024.87 110.832 1024.05 110.981 1023.09 110.981ZM1071.88 103.203V116H1070.19V103.203H1071.88ZM1077.25 108.96V110.349H1071.52V108.96H1077.25ZM1078.12 103.203V104.592H1071.52V103.203H1078.12ZM1101.64 116.176C1100.98 116.176 1100.38 116.064 1099.84 115.842C1099.31 115.613 1098.85 115.294 1098.46 114.884C1098.08 114.474 1097.79 113.987 1097.58 113.425C1097.38 112.862 1097.28 112.247 1097.28 111.579V111.21C1097.28 110.437 1097.39 109.748 1097.62 109.145C1097.85 108.535 1098.16 108.02 1098.55 107.598C1098.94 107.176 1099.39 106.856 1099.89 106.64C1100.38 106.423 1100.9 106.314 1101.43 106.314C1102.11 106.314 1102.7 106.432 1103.19 106.666C1103.69 106.9 1104.1 107.229 1104.41 107.65C1104.73 108.066 1104.96 108.559 1105.12 109.127C1105.27 109.689 1105.34 110.305 1105.34 110.973V111.702H1098.24V110.375H1103.72V110.252C1103.7 109.83 1103.61 109.42 1103.46 109.021C1103.31 108.623 1103.07 108.295 1102.75 108.037C1102.43 107.779 1101.99 107.65 1101.43 107.65C1101.06 107.65 1100.72 107.729 1100.41 107.888C1100.1 108.04 1099.84 108.269 1099.61 108.573C1099.39 108.878 1099.22 109.25 1099.1 109.689C1098.97 110.129 1098.91 110.636 1098.91 111.21V111.579C1098.91 112.03 1098.97 112.455 1099.1 112.854C1099.22 113.246 1099.41 113.592 1099.65 113.891C1099.9 114.189 1100.19 114.424 1100.54 114.594C1100.89 114.764 1101.29 114.849 1101.73 114.849C1102.31 114.849 1102.79 114.731 1103.19 114.497C1103.59 114.263 1103.94 113.949 1104.24 113.557L1105.22 114.339C1105.02 114.649 1104.76 114.945 1104.44 115.227C1104.12 115.508 1103.73 115.736 1103.27 115.912C1102.81 116.088 1102.27 116.176 1101.64 116.176ZM1130.85 114.374V109.479C1130.85 109.104 1130.77 108.778 1130.62 108.503C1130.48 108.222 1130.25 108.005 1129.95 107.853C1129.66 107.7 1129.29 107.624 1128.85 107.624C1128.44 107.624 1128.08 107.694 1127.77 107.835C1127.46 107.976 1127.22 108.16 1127.04 108.389C1126.88 108.617 1126.79 108.863 1126.79 109.127H1125.16C1125.16 108.787 1125.25 108.45 1125.43 108.116C1125.6 107.782 1125.86 107.48 1126.18 107.211C1126.52 106.936 1126.92 106.719 1127.38 106.561C1127.85 106.396 1128.37 106.314 1128.94 106.314C1129.63 106.314 1130.24 106.432 1130.77 106.666C1131.3 106.9 1131.72 107.255 1132.02 107.729C1132.32 108.198 1132.48 108.787 1132.48 109.496V113.926C1132.48 114.242 1132.5 114.579 1132.56 114.937C1132.61 115.294 1132.7 115.602 1132.81 115.859V116H1131.11C1131.03 115.812 1130.97 115.563 1130.92 115.253C1130.87 114.937 1130.85 114.644 1130.85 114.374ZM1131.13 110.234L1131.15 111.377H1129.51C1129.04 111.377 1128.63 111.415 1128.27 111.491C1127.9 111.562 1127.6 111.67 1127.35 111.816C1127.11 111.963 1126.92 112.147 1126.79 112.37C1126.66 112.587 1126.6 112.842 1126.6 113.135C1126.6 113.434 1126.66 113.706 1126.8 113.952C1126.93 114.198 1127.14 114.395 1127.41 114.541C1127.68 114.682 1128.02 114.752 1128.42 114.752C1128.91 114.752 1129.35 114.646 1129.73 114.436C1130.12 114.225 1130.42 113.967 1130.64 113.662C1130.87 113.357 1130.99 113.062 1131.01 112.774L1131.7 113.557C1131.66 113.803 1131.55 114.075 1131.37 114.374C1131.19 114.673 1130.94 114.96 1130.64 115.235C1130.34 115.505 1129.98 115.73 1129.57 115.912C1129.16 116.088 1128.69 116.176 1128.18 116.176C1127.53 116.176 1126.97 116.05 1126.48 115.798C1126 115.546 1125.63 115.209 1125.36 114.787C1125.09 114.359 1124.96 113.882 1124.96 113.354C1124.96 112.845 1125.06 112.396 1125.26 112.01C1125.46 111.617 1125.75 111.292 1126.12 111.034C1126.5 110.771 1126.95 110.571 1127.48 110.437C1128 110.302 1128.59 110.234 1129.24 110.234H1131.13ZM1157.02 106.49V107.738H1151.87V106.49H1157.02ZM1153.61 104.179H1155.24V113.645C1155.24 113.967 1155.29 114.21 1155.39 114.374C1155.49 114.538 1155.62 114.646 1155.78 114.699C1155.93 114.752 1156.1 114.778 1156.29 114.778C1156.42 114.778 1156.56 114.767 1156.71 114.743C1156.86 114.714 1156.97 114.69 1157.05 114.673L1157.06 116C1156.93 116.041 1156.76 116.079 1156.55 116.114C1156.34 116.155 1156.1 116.176 1155.8 116.176C1155.4 116.176 1155.04 116.097 1154.7 115.938C1154.37 115.78 1154.1 115.517 1153.9 115.147C1153.71 114.772 1153.61 114.269 1153.61 113.636V104.179ZM1182.74 113.803V106.49H1184.38V116H1182.82L1182.74 113.803ZM1183.05 111.799L1183.73 111.781C1183.73 112.414 1183.66 113 1183.52 113.539C1183.39 114.072 1183.18 114.535 1182.89 114.928C1182.6 115.32 1182.21 115.628 1181.74 115.851C1181.26 116.067 1180.69 116.176 1180.01 116.176C1179.54 116.176 1179.12 116.108 1178.73 115.974C1178.35 115.839 1178.02 115.631 1177.75 115.35C1177.47 115.068 1177.26 114.702 1177.11 114.251C1176.96 113.8 1176.89 113.258 1176.89 112.625V106.49H1178.51V112.643C1178.51 113.07 1178.56 113.425 1178.65 113.706C1178.75 113.981 1178.89 114.201 1179.05 114.365C1179.22 114.523 1179.41 114.635 1179.61 114.699C1179.82 114.764 1180.04 114.796 1180.26 114.796C1180.95 114.796 1181.5 114.664 1181.91 114.4C1182.31 114.131 1182.6 113.771 1182.78 113.319C1182.96 112.862 1183.05 112.355 1183.05 111.799ZM1206.48 107.984V116H1204.85V106.49H1206.44L1206.48 107.984ZM1209.45 106.438L1209.44 107.949C1209.31 107.92 1209.18 107.902 1209.06 107.896C1208.94 107.885 1208.8 107.879 1208.65 107.879C1208.28 107.879 1207.95 107.938 1207.66 108.055C1207.37 108.172 1207.13 108.336 1206.93 108.547C1206.73 108.758 1206.57 109.01 1206.45 109.303C1206.34 109.59 1206.27 109.906 1206.23 110.252L1205.78 110.516C1205.78 109.941 1205.83 109.402 1205.94 108.898C1206.06 108.395 1206.24 107.949 1206.48 107.562C1206.72 107.17 1207.03 106.865 1207.39 106.648C1207.77 106.426 1208.21 106.314 1208.73 106.314C1208.85 106.314 1208.98 106.329 1209.13 106.358C1209.29 106.382 1209.39 106.408 1209.45 106.438ZM1232.72 116.176C1232.06 116.176 1231.46 116.064 1230.92 115.842C1230.39 115.613 1229.93 115.294 1229.54 114.884C1229.16 114.474 1228.87 113.987 1228.66 113.425C1228.46 112.862 1228.36 112.247 1228.36 111.579V111.21C1228.36 110.437 1228.47 109.748 1228.7 109.145C1228.93 108.535 1229.24 108.02 1229.63 107.598C1230.02 107.176 1230.47 106.856 1230.97 106.64C1231.46 106.423 1231.98 106.314 1232.51 106.314C1233.19 106.314 1233.78 106.432 1234.27 106.666C1234.77 106.9 1235.18 107.229 1235.49 107.65C1235.81 108.066 1236.04 108.559 1236.2 109.127C1236.35 109.689 1236.42 110.305 1236.42 110.973V111.702H1229.32V110.375H1234.8V110.252C1234.78 109.83 1234.69 109.42 1234.54 109.021C1234.39 108.623 1234.15 108.295 1233.83 108.037C1233.51 107.779 1233.07 107.65 1232.51 107.65C1232.14 107.65 1231.8 107.729 1231.49 107.888C1231.18 108.04 1230.92 108.269 1230.69 108.573C1230.47 108.878 1230.3 109.25 1230.18 109.689C1230.05 110.129 1229.99 110.636 1229.99 111.21V111.579C1229.99 112.03 1230.05 112.455 1230.18 112.854C1230.3 113.246 1230.49 113.592 1230.73 113.891C1230.98 114.189 1231.27 114.424 1231.62 114.594C1231.97 114.764 1232.37 114.849 1232.81 114.849C1233.39 114.849 1233.87 114.731 1234.27 114.497C1234.67 114.263 1235.02 113.949 1235.32 113.557L1236.3 114.339C1236.1 114.649 1235.84 114.945 1235.52 115.227C1235.2 115.508 1234.81 115.736 1234.35 115.912C1233.89 116.088 1233.35 116.176 1232.72 116.176ZM1261.86 113.478C1261.86 113.243 1261.81 113.026 1261.7 112.827C1261.6 112.622 1261.39 112.438 1261.08 112.273C1260.77 112.104 1260.3 111.957 1259.67 111.834C1259.14 111.723 1258.67 111.591 1258.24 111.438C1257.82 111.286 1257.46 111.102 1257.16 110.885C1256.87 110.668 1256.64 110.413 1256.48 110.12C1256.32 109.827 1256.24 109.484 1256.24 109.092C1256.24 108.717 1256.33 108.362 1256.49 108.028C1256.66 107.694 1256.9 107.398 1257.2 107.141C1257.51 106.883 1257.88 106.681 1258.32 106.534C1258.75 106.388 1259.24 106.314 1259.77 106.314C1260.53 106.314 1261.18 106.449 1261.72 106.719C1262.26 106.988 1262.67 107.349 1262.96 107.8C1263.25 108.245 1263.39 108.74 1263.39 109.285H1261.76C1261.76 109.021 1261.68 108.767 1261.53 108.521C1261.37 108.269 1261.15 108.061 1260.85 107.896C1260.56 107.732 1260.2 107.65 1259.77 107.65C1259.32 107.65 1258.95 107.721 1258.67 107.861C1258.39 107.996 1258.19 108.169 1258.06 108.38C1257.94 108.591 1257.88 108.813 1257.88 109.048C1257.88 109.224 1257.91 109.382 1257.97 109.522C1258.03 109.657 1258.14 109.783 1258.3 109.9C1258.46 110.012 1258.68 110.117 1258.97 110.217C1259.26 110.316 1259.62 110.416 1260.07 110.516C1260.85 110.691 1261.49 110.902 1261.99 111.148C1262.5 111.395 1262.87 111.696 1263.12 112.054C1263.36 112.411 1263.49 112.845 1263.49 113.354C1263.49 113.771 1263.4 114.151 1263.22 114.497C1263.05 114.843 1262.8 115.142 1262.48 115.394C1262.15 115.64 1261.77 115.833 1261.32 115.974C1260.87 116.108 1260.37 116.176 1259.81 116.176C1258.97 116.176 1258.27 116.026 1257.69 115.728C1257.11 115.429 1256.67 115.042 1256.37 114.567C1256.07 114.093 1255.92 113.592 1255.92 113.064H1257.55C1257.58 113.51 1257.71 113.864 1257.94 114.128C1258.17 114.386 1258.46 114.57 1258.8 114.682C1259.14 114.787 1259.48 114.84 1259.81 114.84C1260.26 114.84 1260.63 114.781 1260.93 114.664C1261.23 114.547 1261.46 114.386 1261.62 114.181C1261.78 113.976 1261.86 113.741 1261.86 113.478Z" fill="white" fill-opacity="0.5"/>
<defs>
<radialGradient id="paint0_radial_253_581" cx="0" cy="0" r="1" gradientUnits="userSpaceOnUse" gradientTransform="translate(995.578 -3.44573e-05) scale(1153.57 227.142)">
<stop stop-color="#EFCE16"/>
<stop offset="0.25" stop-color="#EFCE16" stop-opacity="0.485"/>
<stop offset="0.5" stop-color="#EFCE16" stop-opacity="0.219489"/>
<stop offset="0.75" stop-color="#EFCE16" stop-opacity="0.0888931"/>
<stop offset="1" stop-color="#EFCE16" stop-opacity="0"/>
</radialGradient>
</defs>
</svg>
