<svg width="178" height="178" viewBox="0 0 178 178" fill="none" xmlns="http://www.w3.org/2000/svg">
<path d="M89.1325 29.9404C51.087 29.9404 20.2448 44.6175 20.2448 82.6969C20.2448 120.776 67.5227 162.934 89.1325 162.934C112.082 162.9 158 120.709 158 82.6631C158 44.6175 127.171 29.9404 89.1325 29.9404ZM99.3186 134.378C99.3186 136.531 98.4635 138.595 96.9414 140.117C95.4192 141.639 93.3548 142.494 91.2022 142.494H87.144C84.9914 142.494 82.927 141.639 81.4049 140.117C79.8828 138.595 79.0276 136.531 79.0276 134.378C79.0276 132.225 79.8828 130.161 81.4049 128.639C82.927 127.117 84.9914 126.262 87.144 126.262H91.2022C93.3548 126.262 95.4192 127.117 96.9414 128.639C98.4635 130.161 99.3186 132.225 99.3186 134.378ZM100.509 105.727C100.278 108.585 98.9792 111.25 96.8719 113.194C94.7645 115.138 92.0027 116.217 89.1359 116.217C86.2691 116.217 83.5073 115.138 81.4 113.194C79.2926 111.25 77.9941 108.585 77.7628 105.727L73.1771 48.3714H105.102L100.509 105.727Z" fill="white"/>
</svg>
