<svg width="204" height="204" viewBox="0 0 204 204" fill="none" xmlns="http://www.w3.org/2000/svg">
<path d="M130.05 73.678C124.393 68.0287 117.188 64.1831 109.346 62.6274C101.504 61.0717 93.3769 61.8757 85.9917 64.9377C78.6064 67.9997 72.2947 73.1823 67.8541 79.8305C63.4136 86.4788 61.0435 94.2942 61.0435 102.289C61.0435 110.284 63.4136 118.099 67.8541 124.747C72.2947 131.396 78.6064 136.578 85.9917 139.64C93.3769 142.702 101.504 143.506 109.346 141.951C117.188 140.395 124.393 136.549 130.05 130.9C133.811 127.145 136.794 122.685 138.829 117.775C140.865 112.866 141.912 107.604 141.912 102.289C141.912 96.9744 140.865 91.712 138.829 86.8027C136.794 81.8933 133.811 77.4334 130.05 73.678ZM110.585 111.401C108.779 113.207 106.479 114.437 103.974 114.935C101.469 115.434 98.8733 115.178 96.5139 114.201C94.1545 113.224 92.1379 111.569 90.719 109.445C89.3002 107.322 88.5429 104.826 88.5429 102.272C88.5429 99.7183 89.3002 97.2219 90.719 95.0985C92.1379 92.9752 94.1545 91.3203 96.5139 90.3431C98.8733 89.3659 101.469 89.1104 103.974 89.6088C106.479 90.1071 108.779 91.3371 110.585 93.143C113.005 95.5654 114.363 98.8498 114.362 102.274C114.36 105.698 112.999 108.981 110.577 111.401H110.585Z" fill="white"/>
<path d="M163.039 40.681C151.564 29.206 127.058 33.932 101.448 50.4645C75.8455 33.932 51.34 29.206 39.865 40.681C28.39 52.156 33.15 76.67 49.6485 102.272C33.1075 127.874 28.3985 152.422 39.865 163.863C51.3315 175.304 75.8455 170.612 101.448 154.071C127.058 170.612 151.598 175.321 163.039 163.855C174.48 152.388 169.788 127.874 153.255 102.272C169.788 76.67 174.514 52.156 163.039 40.681ZM150.246 97.75C149.628 99.2403 148.954 100.736 148.223 102.238C148.954 103.734 149.628 105.23 150.246 106.726C157.191 123.488 156.851 139.324 147.696 148.478C138.542 157.632 122.698 157.973 105.936 151.028C104.448 150.416 102.952 149.736 101.448 149.005C99.9515 149.736 98.4555 150.416 96.968 151.028C80.206 157.973 64.362 157.632 55.2075 148.478C46.053 139.324 45.713 123.488 52.6575 106.726C53.2525 105.275 53.9268 103.791 54.6805 102.272C53.9268 100.77 53.2667 99.263 52.7 97.75C45.7555 80.988 46.0955 65.1525 55.25 55.998C64.4045 46.8435 80.2485 46.5035 97.0105 53.448C98.5008 54.06 99.994 54.7315 101.49 55.4625C102.963 54.7542 104.445 54.094 105.936 53.482C122.698 46.5375 138.533 46.8775 147.696 56.032C156.859 65.1865 157.191 81.022 150.246 97.75Z" fill="white"/>
</svg>
