<svg width="214" height="214" viewBox="0 0 214 214" fill="none" xmlns="http://www.w3.org/2000/svg">
<path d="M170.05 158.886C163.753 159.007 157.535 157.469 152.02 154.428C148.454 152.645 145.698 151.28 139.537 151.28C133.376 151.28 130.62 152.671 127.054 154.428C121.539 157.469 115.321 159.007 109.024 158.886C102.728 159.004 96.5105 157.467 90.9946 154.428C87.4279 152.645 84.6816 151.28 78.5112 151.28C72.3409 151.28 69.5946 152.671 66.0279 154.428C60.512 157.467 54.2949 159.004 47.9984 158.886C41.7016 159.007 35.4839 157.469 29.9689 154.428C28.8989 153.893 27.8913 153.394 26.8481 152.957C44.4139 178.458 74.6682 195.275 109.069 195.275C143.469 195.275 173.714 178.423 191.2 152.93C190.148 153.367 189.149 153.822 188.079 154.401C182.566 157.45 176.349 158.997 170.05 158.886Z" fill="white"/>
<path d="M139.18 71.1195C150.148 71.1195 157.29 79.1445 157.29 79.1445L178.984 66.0459L157.29 54.6236C157.29 54.6236 153.465 63.6027 138.413 63.6027C120.295 63.6027 114.677 52.6887 114.677 52.6887V40.8028L114.847 40.25C116.722 39.3104 118.302 37.8719 119.412 36.0927C120.523 34.3135 121.121 32.2625 121.142 30.1652C121.142 23.8255 115.738 18.6895 109.069 18.6895C102.399 18.6895 96.9866 23.8255 96.9866 30.1652C97.0089 32.2632 97.6091 34.3145 98.7213 36.0936C99.8334 37.8727 101.414 39.3108 103.291 40.25L103.451 40.8028V52.6887C103.451 52.6887 97.8426 63.6027 79.7239 63.6027C64.6726 63.6027 60.8473 54.6236 60.8473 54.6236L39.1531 66.028L60.8473 79.1266C60.8473 79.1266 67.9807 71.1016 78.9571 71.1016C89.9335 71.1016 87.3833 79.1266 87.3833 79.1266L75.9611 141.775C76.7903 141.731 77.6552 141.695 78.5737 141.695C84.8709 141.571 91.0895 143.109 96.6032 146.153C98.4886 147.168 100.48 147.973 102.542 148.552V86.6434H115.56V148.552C117.625 147.961 119.619 147.148 121.507 146.126C127.021 143.081 133.24 141.543 139.537 141.668C140.429 141.668 141.32 141.668 142.158 141.748L130.754 79.1266C130.754 79.1266 128.204 71.1195 139.18 71.1195Z" fill="white"/>
</svg>
