<svg width="66" height="65" viewBox="0 0 66 65" fill="none" xmlns="http://www.w3.org/2000/svg">
<path fill-rule="evenodd" clip-rule="evenodd" d="M35.3376 6.81072C19.9928 5.21724 5.73684 18.7774 6.64232 34.1504C7.09043 41.7583 11.5362 49.0009 17.7768 53.7235C24.0269 58.4532 31.6025 60.3208 38.1443 57.9995C39.7964 57.4132 40.7534 56.9015 41.2701 56.5268C40.9542 56.1749 40.4642 55.7436 39.7747 55.2212C39.1584 54.7544 38.4971 54.2981 37.7831 53.8054C37.6018 53.6804 37.4172 53.553 37.2291 53.4225C36.3517 52.8139 35.3806 52.1259 34.5687 51.4135C33.8312 50.7665 32.8202 49.7628 32.3567 48.4295C32.0973 47.6831 31.9964 46.7964 32.2418 45.8613C32.4828 44.943 32.9948 44.2171 33.5652 43.6671C35.3532 41.9432 37.4406 41.4892 39.4605 41.882C41.1775 42.2159 42.7712 43.1575 43.9221 43.8506C44.1054 43.961 44.2821 44.0681 44.4531 44.1717C45.5211 44.8192 46.3699 45.3338 47.2407 45.6835C48.1715 46.0573 48.7938 46.0944 49.319 45.9435C54.6344 44.416 56.8267 40.3307 58.7613 33.5083C60.5463 27.2137 58.4402 21.0349 53.8769 16.0654C49.2851 11.0648 42.3936 7.54345 35.3376 6.81072ZM41.5762 56.9372C41.5761 56.9371 41.5745 56.9339 41.572 56.9275C41.5752 56.934 41.5764 56.9372 41.5762 56.9372ZM41.6433 56.2033C41.6467 56.1981 41.6488 56.1955 41.649 56.1955C41.6491 56.1955 41.6474 56.1981 41.6433 56.2033ZM0.6527 34.5032C-0.472003 15.4082 16.9592 -1.13005 35.9574 0.842815C44.4691 1.72671 52.7126 5.92645 58.2964 12.0073C63.9087 18.1192 67.0187 26.3821 64.5337 35.1452C62.5249 42.2292 59.5531 49.2454 50.9761 51.7101C48.7224 52.3577 46.6632 51.9173 45.0046 51.2512C44.538 51.0638 44.0768 50.8467 43.6307 50.6169C44.4606 51.2589 45.3371 52.0142 46.0335 52.8669C46.7757 53.7757 47.6056 55.1525 47.5277 56.8845C47.4454 58.7163 46.3966 60.1191 45.1388 61.121C43.9094 62.1001 42.2229 62.9188 40.1508 63.654C31.1925 66.8328 21.5267 64.0856 14.1562 58.5079C6.77606 52.923 1.22182 44.1656 0.6527 34.5032Z" fill="white"/>
<circle cx="34.6475" cy="20.8267" r="4.5" fill="white" stroke="white"/>
<circle cx="47.6475" cy="30.8267" r="4.5" fill="white" stroke="white"/>
<circle cx="18.6475" cy="28.8267" r="4.5" fill="white" stroke="white"/>
</svg>
