<svg width="94" height="47" viewBox="0 0 94 47" fill="none" xmlns="http://www.w3.org/2000/svg">
<g clip-path="url(#clip0_72_166)">
<path d="M88.5815 7.79759C82.3975 0.256434 73.2439 -1.79887 64.6721 2.47798C61.5035 4.0648 58.7789 6.241 56.2685 8.70434C53.2531 11.6664 50.4366 14.8249 47.5589 17.923C46.4721 19.0867 46.7017 18.8902 45.8445 17.8323C43.625 15.0667 41.482 12.2105 39.0329 9.59598C35.6348 5.96898 31.8233 2.91624 27.0476 1.20852C18.2461 -1.91977 8.95474 1.11785 4.17897 9.05193C-1.02539 17.6661 -1.37745 26.6883 3.18402 35.65C8.31185 45.715 19.2716 49.4629 29.7569 45.0349C33.2928 43.5387 36.3236 41.3172 39.1247 38.7481C42.1708 35.9523 45.0179 32.96 47.8956 30.013C48.4008 29.4992 48.661 29.5294 49.1049 30.0886C51.2478 32.8088 53.3755 35.5442 55.7634 38.068C59.9575 42.4809 64.8404 45.6847 70.9938 46.7124C77.4993 47.7854 83.071 46.0625 87.51 41.1812C91.9337 36.2998 94.0155 30.5117 94.0002 22.6532C93.9696 17.9834 92.4389 12.5278 88.5815 7.79759ZM43.3801 22.9857C39.8442 26.9603 36.446 31.0407 32.2825 34.4108C29.2824 36.8288 26.0832 38.9143 22.3177 40.0024C20.9401 40.3953 19.5318 40.6069 18.2767 40.5767C12.2457 40.5616 8.28124 37.66 6.50563 32.1137C4.79125 26.7487 4.85248 21.4896 7.60773 16.4571C9.61294 12.7847 12.261 9.70177 16.3327 8.14518C21.0319 6.34679 25.624 6.80016 30.0936 8.93103C31.8999 9.79245 33.4765 10.9712 34.9459 12.3162C38.0992 15.2027 40.9004 18.3915 43.2729 21.9278C43.5025 22.2754 43.7627 22.5474 43.3801 22.9857ZM84.418 34.1387C79.0606 41.015 69.3713 42.36 62.2229 37.2822C58.8554 34.8793 56.192 31.8114 53.697 28.5773C53.0847 27.7764 52.4877 26.9603 51.8601 26.1593C51.6152 25.842 51.5387 25.5851 51.8601 25.2375C55.2277 21.4291 58.4115 17.4545 62.177 13.9937C65.0241 11.3793 68.0549 9.0066 71.7286 7.5709C73.1521 7.01174 74.6216 6.58859 76.1523 6.42235C80.6372 5.93875 83.9129 7.79759 86.1783 11.5304C87.9692 14.4773 88.6274 17.7416 88.658 21.5953C88.5509 25.9024 87.3876 30.3304 84.418 34.1387Z" fill="white"/>
</g>
<defs>
<clipPath id="clip0_72_166">
<rect width="94" height="47" fill="white"/>
</clipPath>
</defs>
</svg>
