<svg width="96" height="42" viewBox="0 0 96 42" fill="none" xmlns="http://www.w3.org/2000/svg">
<path d="M15.7601 31.624L27.4721 5.176C29.2641 1.88 31.7921 0.231998 35.0561 0.231998H38.2721C38.2721 0.231998 38.2721 0.247998 38.2721 0.279998L19.8401 41.848H8.80006L0.688063 0.231998H5.20006C6.60806 0.231998 7.84006 0.679998 8.89606 1.576C9.95206 2.44 10.6241 3.576 10.9121 4.984L15.7121 31.624H15.7601ZM38.1723 41.848L43.5003 4.072C43.6603 2.952 44.1563 2.04 44.9883 1.336C45.8523 0.599998 46.8443 0.231998 47.9643 0.231998H53.0043L47.7723 37.336C47.5803 38.648 46.9883 39.72 45.9963 40.552C45.0363 41.416 43.9003 41.848 42.5883 41.848H38.1723ZM80.5664 0.327997C84.4384 0.327997 87.3824 0.919997 89.3984 2.104C91.4464 3.256 92.8704 4.632 93.6704 6.232C94.5024 7.832 94.9664 9.32 95.0624 10.696C95.1584 12.072 95.1584 13 95.0624 13.48C94.9024 14.664 94.6624 15.688 94.3424 16.552C94.0544 17.384 93.6544 18.248 93.1424 19.144C92.1184 21.032 90.8064 22.616 89.2064 23.896C87.5744 25.176 85.6704 26.152 83.4944 26.824C81.3184 27.496 78.8064 27.832 75.9584 27.832H72.4064L71.3504 35.8C71.0944 37.56 70.3264 39 69.0464 40.12C67.7664 41.272 66.2624 41.848 64.5344 41.848H61.8944L66.8384 5.32C67.0624 3.848 67.7024 2.648 68.7584 1.72C69.8464 0.791998 71.1104 0.327997 72.5504 0.327997H80.5664ZM85.8464 14.104C86.0704 12.6 85.9744 11.352 85.5584 10.36C85.1744 9.368 84.6304 8.648 83.9264 8.2C83.2224 7.72 82.4544 7.416 81.6224 7.288C80.7904 7.16 79.9104 7.096 78.9824 7.096H75.2864L73.3664 21.064L77.4464 21.016C78.8544 21.016 80.0544 20.824 81.0464 20.44C82.0384 20.056 82.8864 19.528 83.5904 18.856C84.2944 18.184 84.8544 17.368 85.2704 16.408C85.4304 16.056 85.5424 15.72 85.6064 15.4C85.7024 15.08 85.7824 14.648 85.8464 14.104Z" fill="white"/>
</svg>
