<svg width="164" height="52" viewBox="0 0 164 52" fill="none" xmlns="http://www.w3.org/2000/svg">
<path d="M28.3744 21.88C27.2544 21.88 26.3477 21.44 25.6544 20.56C24.961 19.7067 24.6944 18.6667 24.8544 17.44L26.9744 1.36H34.7344L34.2944 4.56L34.0544 6.36L32.6544 17.2C32.601 17.6 32.681 17.9467 32.8944 18.24C33.1344 18.5333 33.441 18.68 33.8144 18.68H39.0144C39.3877 18.68 39.7344 18.5333 40.0544 18.24C40.3477 17.9467 40.521 17.6 40.5744 17.2L42.2144 4.56H35.8544L36.2944 1.36H50.4144L48.2944 17.44C48.1344 18.6667 47.601 19.7067 46.6944 20.56C45.7877 21.44 44.761 21.88 43.6144 21.88H28.3744ZM0.974375 38.92L4.29438 15.44C4.37438 14.8533 4.62771 14.3733 5.05438 14C5.48104 13.6 5.96104 13.4 6.49438 13.4H9.09438L6.17438 34.12C5.93438 35.5333 5.32104 36.68 4.33438 37.56C3.37438 38.4667 2.25438 38.92 0.974375 38.92ZM18.6144 13.4H21.8944C22.241 13.4 22.5077 13.5333 22.6944 13.8C22.9077 14.04 23.001 14.3467 22.9744 14.72L20.0944 38.92C18.8944 38.92 17.9077 38.44 17.1344 37.48C16.361 36.5467 16.041 35.4267 16.1744 34.12L18.6144 13.4ZM44.6944 23.88C45.041 23.88 45.321 24 45.5344 24.24C45.7744 24.48 45.8944 24.7867 45.8944 25.16V39H42.3744C41.201 39 40.201 38.56 39.3744 37.68C38.5744 36.8 38.161 35.72 38.1344 34.44V23.88H44.6944ZM21.6144 39L25.2544 25C25.5477 24.2533 26.0144 23.88 26.6544 23.88H33.3344L31.4944 31C29.4944 36.3333 26.201 39 21.6144 39ZM18.8144 4.52L18.3344 8.32H24.3744L24.1344 10.04C24.0544 10.4667 23.8677 10.8133 23.5744 11.08C23.3077 11.3467 22.9744 11.48 22.5744 11.48H17.8944L14.5344 37.28C14.4544 37.76 14.241 38.1467 13.8944 38.44C13.5744 38.76 13.201 38.92 12.7744 38.92H6.77438L10.3744 11.48H4.33438L4.57438 9.64C4.62771 9.24 4.78771 8.92 5.05438 8.68C5.32104 8.44 5.64104 8.32 6.01438 8.32H10.7744L11.2544 4.52H5.49438C5.65438 3.58666 6.05438 2.82666 6.69438 2.24C7.33438 1.62666 8.08104 1.32 8.93438 1.32H24.9344L24.7344 3.04C24.6544 3.46666 24.4677 3.82667 24.1744 4.12C23.881 4.38667 23.5344 4.52 23.1344 4.52H18.8144ZM56.3666 12.96L62.7666 2.64C63.2732 1.81333 63.9399 1.4 64.7666 1.4H72.3666L67.7266 9.52C66.3666 11.8667 64.3532 13.0267 61.6866 13L56.3666 12.96ZM97.0066 34.6C96.8466 35.8 96.2866 36.84 95.3266 37.72C94.3932 38.5733 93.3132 39 92.0866 39H78.7266L78.8866 38.12C79.0199 37.2667 79.4066 36.5467 80.0466 35.96C80.6866 35.3733 81.4199 35.08 82.2466 35.08H87.4066C87.7799 35.08 88.1266 34.9467 88.4466 34.68C88.7666 34.4133 88.9532 34.0667 89.0066 33.64L91.0866 18.68H73.4866L65.6866 31.36C62.5666 36.4533 58.5666 39 53.6866 39H53.0466L64.9666 18.68H58.1266C56.6866 18.7067 56.0999 17.96 56.3666 16.44L56.6466 14.76H98.4866C98.8332 14.76 99.1132 14.8933 99.3266 15.16C99.5399 15.4 99.6199 15.6933 99.5666 16.04L97.0066 34.6ZM92.3266 8.68L89.6866 1.28H97.0866C98.1799 1.28 98.9132 1.82666 99.2866 2.92L102.727 12.96H97.4466C94.8599 12.8533 93.1532 11.4267 92.3266 8.68ZM121.799 14.08C123.052 12.3733 124.625 11.52 126.519 11.52H129.719L120.919 24.92L126.359 39.04H121.599C120.452 39.04 119.599 38.44 119.039 37.24L115.879 28.64L109.799 38C109.319 38.6933 108.692 39.04 107.919 39.04H102.839L112.359 24.96L106.759 11.52H110.759C112.359 11.52 113.559 12.3467 114.359 14L117.399 21.2L121.799 14.08ZM161.382 22.4C161.222 23.4133 160.755 24.2667 159.982 24.96C159.182 25.68 158.275 26.04 157.262 26.04H140.782L139.662 33.84C139.635 34.1867 139.715 34.5067 139.902 34.8C140.142 35.0667 140.449 35.2 140.822 35.2H159.582L159.182 38C159.129 38.2933 158.995 38.5333 158.782 38.72C158.595 38.9067 158.342 39 158.022 39H135.142C133.889 39 132.902 38.56 132.182 37.68C131.409 36.8267 131.115 35.76 131.302 34.48L133.062 21.92H153.102C153.422 21.92 153.702 21.8133 153.942 21.6C154.155 21.4133 154.289 21.1467 154.342 20.8L155.502 12.8H134.342L134.782 9.68C134.835 9.49333 134.929 9.33333 135.062 9.2C135.222 9.06667 135.395 9 135.582 9H163.302L161.382 22.4Z" fill="white"/>
</svg>
