<svg width="1920" height="308" viewBox="0 0 1920 308" fill="none" xmlns="http://www.w3.org/2000/svg">
<rect width="1920" height="308" fill="url(#paint0_radial_253_584)"/>
<path d="M829.977 70.824L836.853 57.9C837.429 56.964 838.209 56.496 839.193 56.496C840.201 56.496 840.957 56.916 841.461 57.756C841.965 58.596 842.001 59.484 841.569 60.42L836.025 70.824C835.617 71.616 835.521 72.456 835.737 73.344L838.437 84.288C838.629 85.152 838.461 85.92 837.933 86.592C837.405 87.264 836.709 87.6 835.845 87.6H835.305C834.705 87.6 834.165 87.408 833.685 87.024C833.205 86.664 832.881 86.184 832.713 85.584L829.689 73.344C829.473 72.456 829.569 71.616 829.977 70.824ZM838.797 70.824L845.637 57.9C846.237 56.964 847.029 56.496 848.013 56.496C849.021 56.496 849.777 56.916 850.281 57.756C850.785 58.596 850.809 59.484 850.353 60.42L844.845 70.824C844.437 71.616 844.341 72.456 844.557 73.344L847.257 84.288C847.449 85.152 847.281 85.92 846.753 86.592C846.225 87.264 845.529 87.6 844.665 87.6H844.125C843.501 87.6 842.949 87.408 842.469 87.024C842.013 86.664 841.701 86.184 841.533 85.584L838.509 73.344C838.293 72.456 838.389 71.616 838.797 70.824ZM884.805 80.292L884.661 79.536L874.617 82.848L874.725 81.084C874.869 79.788 875.541 78.912 876.741 78.456L884.049 76.044L881.817 64.308H868.209L866.985 72.804L873.645 72.084L873.393 73.848C873.321 74.4 873.093 74.868 872.709 75.252C872.325 75.612 871.869 75.828 871.341 75.9L866.481 76.404L865.473 83.64C865.329 84.72 864.825 85.644 863.961 86.412C863.097 87.204 862.125 87.6 861.045 87.6H852.009L852.081 87.024C852.177 86.352 852.465 85.8 852.945 85.368C853.449 84.936 854.025 84.72 854.673 84.72H856.509C856.989 84.72 857.373 84.552 857.661 84.216C857.949 83.88 858.129 83.46 858.201 82.956L858.993 77.196L852.153 77.916L852.369 76.26C852.465 75.66 852.717 75.168 853.125 74.784C853.533 74.4 854.025 74.172 854.601 74.1L859.497 73.596L860.865 64.308H854.097L854.313 62.472C854.385 61.992 854.589 61.608 854.925 61.32C855.261 61.008 855.657 60.852 856.113 60.852H861.261L861.765 57.18H854.997L855.321 55.02C855.369 54.708 855.501 54.456 855.717 54.264C855.933 54.072 856.185 53.976 856.473 53.976H876.129C875.985 54.912 875.577 55.68 874.905 56.28C874.233 56.88 873.441 57.18 872.529 57.18H869.109L868.605 60.852H881.313L879.873 53.652H885.849C886.233 53.652 886.581 53.784 886.893 54.048C887.205 54.312 887.397 54.648 887.469 55.056L888.621 60.852H897.261L897.045 62.688C896.973 63.168 896.769 63.564 896.433 63.876C896.097 64.164 895.713 64.308 895.281 64.308H889.197L890.925 73.776L895.677 72.192L895.569 74.532C895.449 75.468 894.969 76.092 894.129 76.404L891.609 77.268L893.517 87.6C891.405 87.6 889.533 86.916 887.901 85.548C886.293 84.204 885.261 82.452 884.805 80.292ZM891.501 59.664L891.213 54.192H894.021C894.789 54.192 895.437 54.456 895.965 54.984C896.517 55.512 896.829 56.172 896.901 56.964L897.045 59.664H891.501ZM943.874 54.12L942.254 67.548C942.086 68.916 941.546 70.068 940.634 71.004C939.746 71.964 938.726 72.444 937.574 72.444H922.31L920.942 83.028C920.894 83.388 920.966 83.7 921.158 83.964C921.374 84.228 921.65 84.36 921.986 84.36H922.598C923.438 84.36 924.158 84.672 924.758 85.296C925.358 85.92 925.694 86.688 925.766 87.6H917.414C916.238 87.6 915.314 87.168 914.642 86.304C913.946 85.368 913.682 84.252 913.85 82.956L917.414 54.12H924.614L923.714 61.248H935.882L936.494 57.18H925.514L925.874 54.12H943.874ZM935.09 68.304L935.558 64.596H923.354L922.67 69.312H933.938C934.082 69.312 934.214 69.3 934.334 69.276C934.478 69.252 934.61 69.192 934.73 69.096C934.85 68.952 934.946 68.832 935.018 68.736C935.066 68.64 935.09 68.496 935.09 68.304ZM941.102 74.46H929.366C928.094 74.46 927.326 74.988 927.062 76.044C926.798 77.076 927.062 78.072 927.854 79.032L933.794 87.6H940.994L934.514 77.88H939.554C939.698 77.88 939.878 77.844 940.094 77.772C940.31 77.7 940.478 77.592 940.598 77.448C940.838 77.16 940.982 76.788 941.03 76.332L941.102 74.46ZM903.482 78.312C902.978 81.696 901.574 83.484 899.27 83.676L902.402 60.42H905.822L903.482 78.312ZM907.838 86.988C908.222 86.58 908.45 86.064 908.522 85.44L912.626 53.652H908.954C908.474 53.652 908.078 53.844 907.766 54.228C907.406 54.612 907.178 55.104 907.082 55.704L903.014 87.6H906.578C907.058 87.6 907.478 87.396 907.838 86.988ZM915.47 61.068C915.59 61.26 915.638 61.488 915.614 61.752L913.742 76.584H912.698C912.05 76.584 911.534 76.284 911.15 75.684C910.766 75.06 910.61 74.34 910.682 73.524L912.266 60.816H915.002C915.194 60.816 915.35 60.9 915.47 61.068ZM970.327 84.576L970.183 85.656C970.111 86.184 969.895 86.604 969.535 86.916C969.175 87.252 968.743 87.42 968.239 87.42H945.487L945.631 86.34C945.703 85.812 945.919 85.38 946.279 85.044C946.639 84.732 947.071 84.576 947.575 84.576H970.327ZM948.475 69.528C950.131 69.528 951.403 70.152 952.291 71.4C953.395 72.648 953.899 74.16 953.803 75.936L953.335 82.668H947.467L948.475 69.528ZM972.775 64.524L972.667 65.316C972.571 65.916 972.307 66.408 971.875 66.792C971.443 67.2 970.951 67.404 970.399 67.404H948.367L948.475 66.612C948.571 65.988 948.835 65.484 949.267 65.1C949.675 64.716 950.167 64.524 950.743 64.524H972.775ZM965.575 57.612C965.455 56.964 965.131 56.64 964.603 56.64H959.203C958.579 56.64 958.135 56.964 957.871 57.612L955.819 63.156H948.871L951.499 56.064C951.739 55.392 952.147 54.84 952.723 54.408C953.299 54 953.923 53.796 954.595 53.796H969.787C970.459 53.796 971.023 54 971.479 54.408C971.959 54.84 972.247 55.392 972.343 56.064L973.063 63.156H966.079L965.575 57.612ZM956.791 69.528C958.447 69.528 959.719 70.152 960.607 71.4C961.711 72.648 962.215 74.16 962.119 75.936L961.615 82.668H955.783L956.791 69.528ZM964.675 75.864C965.083 73.992 965.971 72.468 967.339 71.292C968.491 70.116 969.967 69.528 971.767 69.528L969.211 82.668H963.379L964.675 75.864ZM975.547 58.116C975.715 57.012 976.195 56.1 976.987 55.38C977.779 54.66 978.691 54.3 979.723 54.3H981.883L978.499 79.5C978.355 80.436 977.959 81.204 977.311 81.804C976.639 82.404 975.871 82.704 975.007 82.704H972.271L975.547 58.116ZM985.447 86.448C984.607 87.216 983.671 87.6 982.639 87.6H973.135C973.255 86.76 973.615 86.064 974.215 85.512C974.791 84.984 975.475 84.72 976.267 84.72H979.399C979.783 84.72 980.107 84.588 980.371 84.324C980.635 84.06 980.791 83.76 980.839 83.424L984.511 56.064C984.631 55.368 984.943 54.792 985.447 54.336C985.927 53.88 986.503 53.652 987.175 53.652H990.955L986.959 83.64C986.791 84.72 986.287 85.656 985.447 86.448ZM1004.92 53.652H1037.64L1033.72 83.568C1033.57 84.696 1033.08 85.656 1032.24 86.448C1031.42 87.216 1030.48 87.6 1029.4 87.6H1019.24C1019.36 86.76 1019.71 86.064 1020.29 85.512C1020.89 84.96 1021.58 84.684 1022.38 84.684H1025.72C1025.94 84.684 1026.14 84.6 1026.34 84.432C1026.53 84.24 1026.64 84.024 1026.66 83.784L1026.88 82.2H1025.15C1023.35 82.2 1022.06 81.144 1021.3 79.032L1021.15 78.528L1020.47 79.896C1019.6 81.432 1018.42 82.2 1016.9 82.2H1011.43C1009.63 82.2 1008.35 81.156 1007.58 79.068L1007.4 78.456L1006.75 79.86C1005.86 81.42 1004.66 82.2 1003.15 82.2H1000.06L999.732 84.756C999.612 85.596 999.264 86.28 998.688 86.808C998.112 87.336 997.44 87.6 996.672 87.6H992.352L996.78 53.652H1003.8L1003.44 56.568L1003.3 57.504L1003.12 58.908H1005.71C1006.79 58.908 1007.56 59.532 1008.01 60.78L1008.55 62.976L1009.85 60.276C1010.38 59.364 1011.08 58.908 1011.97 58.908H1019.42C1020.5 58.908 1021.27 59.532 1021.73 60.78L1022.3 63.012L1023.6 60.312C1024.13 59.376 1024.82 58.908 1025.69 58.908H1029.94L1030.26 56.568H1004.52L1004.92 53.652ZM1000.34 80.184L1005.2 69.96L1002.86 60.78L1000.34 80.184ZM1013.34 81.588L1018.96 69.96L1016.36 60.06L1010.78 71.58L1013.34 81.588ZM1026.98 81.336L1029.68 60.96L1024.5 71.616L1026.98 81.336ZM1037.99 85.08C1038.02 84.816 1038.12 84.6 1038.32 84.432C1038.53 84.264 1038.76 84.18 1039 84.18H1055.92C1056.26 84.18 1056.56 84.06 1056.82 83.82C1057.08 83.58 1057.24 83.292 1057.29 82.956L1058.33 75.612H1040.33L1040.8 72.444C1040.82 72.204 1040.93 72 1041.12 71.832C1041.32 71.664 1041.52 71.58 1041.74 71.58H1058.87L1059.92 64.38H1041.52L1041.92 61.428C1041.96 61.188 1042.07 60.984 1042.24 60.816C1042.41 60.672 1042.62 60.6 1042.89 60.6H1065.68C1065.99 60.6 1066.25 60.732 1066.47 60.996C1066.71 61.236 1066.82 61.536 1066.79 61.896L1063.66 84.108C1063.59 84.588 1063.43 85.032 1063.19 85.44C1062.95 85.872 1062.65 86.244 1062.29 86.556C1061.93 86.868 1061.54 87.108 1061.1 87.276C1060.65 87.492 1060.18 87.6 1059.7 87.6H1037.63L1037.99 85.08ZM1070.79 83.676L1076.34 73.164C1076.74 72.372 1076.84 71.532 1076.62 70.644L1073.92 59.736C1073.73 58.872 1073.9 58.104 1074.43 57.432C1074.96 56.76 1075.65 56.424 1076.52 56.424H1077.06C1077.66 56.424 1078.2 56.616 1078.68 57C1079.16 57.36 1079.48 57.84 1079.65 58.44L1082.71 70.644C1082.9 71.532 1082.79 72.372 1082.38 73.164L1075.51 86.16C1074.93 87.12 1074.14 87.6 1073.13 87.6C1072.12 87.6 1071.37 87.18 1070.86 86.34C1070.36 85.5 1070.34 84.612 1070.79 83.676ZM1079.61 83.676L1085.16 73.164C1085.56 72.372 1085.67 71.532 1085.48 70.644L1082.74 59.736C1082.55 58.872 1082.72 58.104 1083.25 57.432C1083.78 56.76 1084.47 56.424 1085.34 56.424H1085.88C1086.5 56.424 1087.05 56.616 1087.53 57C1088.01 57.36 1088.32 57.84 1088.47 58.44L1091.53 70.644C1091.74 71.532 1091.64 72.372 1091.2 73.164L1084.36 86.16C1083.76 87.12 1082.97 87.6 1081.99 87.6C1080.98 87.6 1080.22 87.18 1079.72 86.34C1079.22 85.5 1079.18 84.612 1079.61 83.676Z" fill="white"/>
<path d="M855.277 103.203V116H853.581V103.203H855.277ZM907.186 108.705V110.085H900.26V108.705H907.186ZM900.523 103.203V116H898.827V103.203H900.523ZM908.662 103.203V116H906.975V103.203H908.662ZM931.496 103.203V116H929.8V103.203H931.496ZM957.046 103.203V116H955.376V103.203H957.046ZM961.159 103.203V104.592H951.271V103.203H961.159ZM1008.54 112.265V103.203H1010.23V112.265C1010.23 113.108 1010.06 113.82 1009.71 114.4C1009.36 114.98 1008.89 115.423 1008.28 115.728C1007.67 116.026 1006.98 116.176 1006.19 116.176C1005.41 116.176 1004.71 116.041 1004.1 115.771C1003.49 115.502 1003.02 115.092 1002.67 114.541C1002.32 113.99 1002.15 113.296 1002.15 112.458H1003.85C1003.85 112.997 1003.95 113.439 1004.15 113.785C1004.35 114.131 1004.62 114.386 1004.97 114.55C1005.33 114.714 1005.74 114.796 1006.19 114.796C1006.64 114.796 1007.04 114.702 1007.39 114.515C1007.75 114.321 1008.03 114.037 1008.23 113.662C1008.44 113.281 1008.54 112.815 1008.54 112.265ZM1032.2 103.203L1035.28 108.107L1038.35 103.203H1040.33L1036.29 109.54L1040.43 116H1038.43L1035.28 110.999L1032.12 116H1030.13L1034.27 109.54L1030.22 103.203H1032.2ZM1062.34 108.802H1063.5C1064.07 108.802 1064.54 108.708 1064.91 108.521C1065.28 108.327 1065.56 108.066 1065.74 107.738C1065.93 107.404 1066.02 107.029 1066.02 106.613C1066.02 106.121 1065.94 105.708 1065.78 105.374C1065.61 105.04 1065.37 104.788 1065.04 104.618C1064.71 104.448 1064.29 104.363 1063.79 104.363C1063.33 104.363 1062.93 104.454 1062.58 104.636C1062.23 104.812 1061.96 105.063 1061.76 105.392C1061.57 105.72 1061.47 106.106 1061.47 106.552H1059.84C1059.84 105.901 1060.01 105.31 1060.33 104.776C1060.66 104.243 1061.12 103.818 1061.71 103.502C1062.31 103.186 1063 103.027 1063.79 103.027C1064.56 103.027 1065.24 103.165 1065.82 103.44C1066.4 103.71 1066.85 104.114 1067.17 104.653C1067.5 105.187 1067.66 105.852 1067.66 106.648C1067.66 106.971 1067.58 107.316 1067.43 107.686C1067.28 108.049 1067.05 108.389 1066.73 108.705C1066.42 109.021 1066.02 109.282 1065.52 109.487C1065.02 109.687 1064.42 109.786 1063.73 109.786H1062.34V108.802ZM1062.34 110.138V109.162H1063.73C1064.54 109.162 1065.22 109.259 1065.75 109.452C1066.28 109.646 1066.7 109.903 1067.01 110.226C1067.32 110.548 1067.53 110.902 1067.66 111.289C1067.79 111.67 1067.85 112.051 1067.85 112.432C1067.85 113.029 1067.75 113.56 1067.54 114.022C1067.34 114.485 1067.06 114.878 1066.69 115.2C1066.33 115.522 1065.9 115.766 1065.41 115.93C1064.91 116.094 1064.38 116.176 1063.8 116.176C1063.24 116.176 1062.72 116.097 1062.22 115.938C1061.74 115.78 1061.31 115.552 1060.93 115.253C1060.56 114.948 1060.26 114.576 1060.05 114.137C1059.84 113.691 1059.74 113.185 1059.74 112.616H1061.36C1061.36 113.062 1061.46 113.451 1061.65 113.785C1061.85 114.119 1062.13 114.38 1062.5 114.567C1062.87 114.749 1063.3 114.84 1063.8 114.84C1064.3 114.84 1064.72 114.755 1065.08 114.585C1065.44 114.409 1065.72 114.146 1065.92 113.794C1066.12 113.442 1066.21 113 1066.21 112.467C1066.21 111.934 1066.1 111.497 1065.88 111.157C1065.66 110.812 1065.34 110.557 1064.93 110.393C1064.53 110.223 1064.05 110.138 1063.5 110.138H1062.34Z" fill="white" fill-opacity="0.5"/>
<defs>
<radialGradient id="paint0_radial_253_584" cx="0" cy="0" r="1" gradientUnits="userSpaceOnUse" gradientTransform="translate(995.578 -3.44573e-05) scale(1153.57 227.142)">
<stop stop-color="#9747FF"/>
<stop offset="0.25" stop-color="#9747FF" stop-opacity="0.485"/>
<stop offset="0.5" stop-color="#9747FF" stop-opacity="0.219489"/>
<stop offset="0.75" stop-color="#9747FF" stop-opacity="0.0888931"/>
<stop offset="1" stop-color="#9747FF" stop-opacity="0"/>
</radialGradient>
</defs>
</svg>
