<svg width="54" height="84" viewBox="0 0 54 84" fill="none" xmlns="http://www.w3.org/2000/svg">
<path d="M53.1898 57.4C53.1898 62.4667 52.0232 67 49.6898 71C47.4232 74.9333 44.2232 78 40.0898 80.2C35.9565 82.4 31.2232 83.5 25.8898 83.5C19.5565 83.5 14.0898 82.0333 9.48984 79.1C4.95651 76.2333 1.85651 72.2667 0.189844 67.2L9.48984 61.7C10.7565 65.3 12.7898 68.1 15.5898 70.1C18.3898 72.1 21.8232 73.1 25.8898 73.1C30.4232 73.1 34.0565 71.6667 36.7898 68.8C39.5898 65.8667 40.9898 62.0667 40.9898 57.4C40.9898 52.6 39.5898 48.8333 36.7898 46.1C34.0565 43.3667 30.2898 42 25.4898 42C20.6232 42 16.9898 43.5667 14.5898 46.7L7.48984 39L34.0898 11.1H3.48984V0.599998H49.4898V9.1L28.1898 31.6C32.9898 31.6667 37.2898 32.8 41.0898 35C44.8898 37.2 47.8565 40.2667 49.9898 44.2C52.1232 48.0667 53.1898 52.4667 53.1898 57.4Z" fill="url(#paint0_linear_253_546)"/>
<defs>
<linearGradient id="paint0_linear_253_546" x1="26" y1="6.5" x2="26" y2="107" gradientUnits="userSpaceOnUse">
<stop stop-color="white"/>
<stop offset="0.805" stop-color="white" stop-opacity="0"/>
</linearGradient>
</defs>
</svg>
