<svg width="1920" height="308" viewBox="0 0 1920 308" fill="none" xmlns="http://www.w3.org/2000/svg">
<rect width="1920" height="308" fill="url(#paint0_radial_253_582)"/>
<path d="M832.546 57.252C832.114 57.252 831.766 57.456 831.502 57.864L829.45 61.68H821.35L824.662 55.416C825.502 54.24 826.582 53.652 827.902 53.652H859.546C861.034 53.652 862.186 54.384 863.002 55.848L865.738 61.68H857.998L856.162 58.152C855.778 57.552 855.274 57.252 854.65 57.252H832.546ZM824.986 64.632C825.346 63.768 825.946 63.336 826.786 63.336H861.166L860.806 65.82C860.734 66.132 860.578 66.384 860.338 66.576C860.122 66.792 859.858 66.9 859.546 66.9H824.482L824.986 64.632ZM821.35 72.336C821.734 72.024 822.166 71.868 822.646 71.868H863.902L863.614 73.596C863.494 74.172 863.218 74.64 862.786 75C862.354 75.36 861.862 75.54 861.31 75.54H834.31L831.79 82.092C831.67 82.428 831.682 82.704 831.826 82.92C831.946 83.184 832.174 83.316 832.51 83.316L852.958 82.056L854.434 85.8L824.23 87.6C823.198 87.6 822.406 87.216 821.854 86.448C821.326 85.68 821.242 84.816 821.602 83.856L825.49 75.54H820.27L820.63 73.56C820.726 73.056 820.966 72.648 821.35 72.336ZM859.618 79.032L862.03 87.6H853.75L851.05 77.448H857.458C858.442 77.448 859.162 77.976 859.618 79.032ZM875.235 64.308C874.275 64.308 873.483 63.936 872.859 63.192C872.259 62.496 872.019 61.644 872.139 60.636L873.111 53.688H880.707L880.311 56.568V56.604L880.167 57.612V57.684L879.843 59.952C879.771 60.36 879.843 60.708 880.059 60.996C880.227 61.284 880.503 61.428 880.887 61.428H902.919C903.279 61.428 903.603 61.284 903.891 60.996C904.179 60.708 904.359 60.36 904.431 59.952L904.899 56.568H881.463L881.859 53.688H912.639L911.667 60.636C911.547 61.644 911.091 62.496 910.299 63.192C909.531 63.936 908.667 64.308 907.707 64.308H875.235ZM876.927 72.912L875.739 81.552H868.395L870.015 69.816C870.159 68.712 870.651 67.764 871.491 66.972C872.331 66.156 873.315 65.748 874.443 65.748H877.935L877.251 70.608L876.927 72.876V72.912ZM902.847 69.204H879.159L879.627 65.748H908.139C909.243 65.748 910.119 66.156 910.767 66.972C911.415 67.764 911.667 68.712 911.523 69.816L909.903 81.552H903.747C903.435 81.552 903.171 81.444 902.955 81.228C902.763 80.988 902.691 80.688 902.739 80.328L904.071 70.608C904.119 70.248 904.023 69.924 903.783 69.636C903.543 69.348 903.231 69.204 902.847 69.204ZM907.851 84.72H909.759L909.363 87.564H902.451C901.899 87.564 900.891 87.384 899.427 87.024C897.987 86.688 896.463 86.292 894.855 85.836C893.247 85.404 891.855 85.008 890.679 84.648C889.503 84.312 888.915 84.144 888.915 84.144C888.915 84.144 888.303 84.312 887.079 84.648C885.879 85.008 884.415 85.404 882.687 85.836C880.983 86.292 879.315 86.688 877.683 87.024C876.051 87.384 874.827 87.564 874.011 87.564H866.991L867.387 84.72H869.439C870.015 84.72 871.107 84.444 872.715 83.892C874.347 83.34 876.063 82.716 877.863 82.02C879.663 81.3 881.223 80.664 882.543 80.112C883.863 79.56 884.523 79.284 884.523 79.284L885.531 72.048H895.395L894.315 80.112H896.007C896.007 80.112 896.415 80.352 897.231 80.832C898.071 81.288 899.115 81.816 900.363 82.416C901.611 83.016 902.907 83.544 904.251 84C905.595 84.48 906.795 84.72 907.851 84.72ZM931.387 53.76C931.843 53.76 932.227 53.94 932.539 54.3C932.827 54.66 932.947 55.092 932.899 55.596L929.983 66.144H930.775C930.991 66.144 931.171 66.216 931.315 66.36C931.435 66.528 931.483 66.708 931.459 66.9L929.479 82.956C929.335 84.276 928.975 85.188 928.399 85.692C927.847 86.172 926.923 86.412 925.627 86.412H923.359L925.519 68.88H924.907C924.691 68.88 924.511 68.76 924.367 68.52C924.223 68.304 924.175 68.052 924.223 67.764L926.995 57.072H917.419L917.671 54.912C917.743 54.528 917.899 54.24 918.139 54.048C918.379 53.856 918.667 53.76 919.003 53.76H931.387ZM918.607 58.584H924.043L920.371 87.6H913.783L917.275 59.7C917.299 59.508 917.347 59.364 917.419 59.268C917.491 59.148 917.587 59.028 917.707 58.908C917.971 58.692 918.271 58.584 918.607 58.584ZM959.143 53.652H943.159L942.799 56.748H952.231L951.691 60.852H941.143L941.971 53.652H935.239L931.891 82.812C931.747 84.132 931.999 85.26 932.647 86.196C933.271 87.084 934.135 87.528 935.239 87.528H943.051C942.979 86.592 942.667 85.812 942.115 85.188C941.563 84.564 940.891 84.252 940.099 84.252H939.523C939.211 84.252 938.959 84.108 938.767 83.82C938.575 83.556 938.503 83.244 938.551 82.884L939.847 72.192H953.239C954.319 72.192 955.279 71.712 956.119 70.752C956.959 69.792 957.463 68.616 957.631 67.224L959.143 53.652ZM950.935 68.016C950.935 68.184 950.911 68.328 950.863 68.448C950.791 68.544 950.695 68.652 950.575 68.772C950.479 68.892 950.371 68.964 950.251 68.988C950.107 69.012 949.975 69.024 949.855 69.024H940.171L940.819 64.272H951.367L950.935 68.016ZM956.551 74.244L956.479 76.116C956.431 76.572 956.299 76.944 956.083 77.232C955.987 77.4 955.831 77.52 955.615 77.592C955.423 77.664 955.255 77.7 955.111 77.7H950.395L956.443 87.528H949.747L944.167 78.852C943.423 77.892 943.171 76.884 943.411 75.828C943.675 74.772 944.395 74.244 945.571 74.244H956.551ZM970.476 55.092L969.756 60.132C969.684 60.564 969.492 60.924 969.18 61.212C968.868 61.476 968.508 61.608 968.1 61.608H962.16L962.592 58.656C962.712 57.672 963.156 56.844 963.924 56.172C964.668 55.452 965.532 55.092 966.516 55.092H970.476ZM987.504 75.864L986.784 83.064L1004.71 84.396C1004.3 85.284 1003.69 86.052 1002.88 86.7C1002.04 87.3 1001.17 87.588 1000.28 87.564L968.028 85.512C967.884 86.112 967.584 86.592 967.128 86.952C966.672 87.312 966.156 87.492 965.58 87.492H960.72L966.012 70.968L972.168 71.328L969.072 81.984L979.116 82.668L980.808 67.044H964.032L964.428 64.416C964.476 64.104 964.62 63.852 964.86 63.66C965.1 63.444 965.376 63.336 965.688 63.336H1004.17L1003.81 65.892C1003.76 66.228 1003.61 66.504 1003.34 66.72C1003.1 66.936 1002.82 67.044 1002.48 67.044H988.224L987.72 72.444H1000.54L1000.18 73.452C999.456 75.06 998.376 75.864 996.936 75.864H987.504ZM1005.04 56.172C1005.66 56.844 1005.91 57.672 1005.79 58.656L1005.36 61.608H997.656L997.98 59.484C998.004 59.364 998.004 59.244 997.98 59.124C997.98 59.004 997.944 58.908 997.872 58.836C997.8 58.74 997.716 58.668 997.62 58.62C997.548 58.548 997.452 58.512 997.332 58.512H971.412L971.916 55.092H980.7L980.916 53.688H987.468C987.78 53.688 988.02 53.796 988.188 54.012C988.38 54.228 988.464 54.492 988.44 54.804L988.368 55.092H1002.66C1003.62 55.092 1004.41 55.452 1005.04 56.172ZM1020.98 87.6C1020.06 87.6 1019.33 87.264 1018.78 86.592C1018.23 85.896 1018.01 85.068 1018.13 84.108L1018.82 78.672L1018.24 79.752C1015.94 83.328 1012.96 85.116 1009.31 85.116H1007.87L1014.86 72.12H1009.6L1009.74 70.968C1009.82 70.464 1010.02 70.056 1010.36 69.744C1010.72 69.432 1011.12 69.276 1011.58 69.276H1028.14L1028.28 68.268H1034.37C1034.61 68.268 1034.81 68.364 1034.98 68.556C1035.15 68.748 1035.22 68.988 1035.2 69.276H1050.86L1050.71 70.428C1050.64 70.932 1050.42 71.34 1050.06 71.652C1049.73 71.964 1049.33 72.12 1048.88 72.12H1022.06L1020.87 74.496H1026.3L1025.12 83.64C1025.07 83.976 1025.13 84.24 1025.3 84.432C1025.46 84.648 1025.69 84.756 1025.98 84.756H1029.9C1030.62 84.756 1031.21 85.032 1031.67 85.584C1032.12 86.16 1032.32 86.832 1032.24 87.6H1020.98ZM1015.97 67.764L1016.22 65.856L1010.36 66.972L1010.46 66.108C1010.68 64.836 1011.38 64.056 1012.55 63.768L1016.62 62.976L1017.3 57.756L1013.81 57.144C1013.21 57.024 1012.73 56.724 1012.37 56.244C1012.04 55.74 1011.9 55.164 1011.98 54.516L1012.05 53.94L1017.7 54.912V54.804C1017.75 54.468 1017.88 54.192 1018.1 53.976C1018.34 53.76 1018.61 53.652 1018.92 53.652H1024.9L1023.21 66.36C1023.14 66.768 1022.96 67.104 1022.67 67.368C1022.38 67.632 1022.04 67.764 1021.66 67.764H1015.97ZM1026.92 64.668H1034.73L1035.63 57.828H1025.98L1026.2 56.28C1026.24 55.896 1026.4 55.584 1026.66 55.344C1026.93 55.104 1027.24 54.984 1027.6 54.984H1036.02C1036.07 54.6 1036.23 54.288 1036.49 54.048C1036.76 53.784 1037.07 53.652 1037.43 53.652H1043.22L1043.04 54.984H1052.73L1052.51 56.568C1052.46 56.928 1052.31 57.228 1052.04 57.468C1051.78 57.708 1051.47 57.828 1051.11 57.828H1042.65L1041.75 64.668H1050.96L1050.75 66.144C1050.7 66.552 1050.53 66.888 1050.24 67.152C1049.96 67.392 1049.62 67.512 1049.24 67.512H1025.22L1025.4 66.036C1025.45 65.628 1025.62 65.304 1025.91 65.064C1026.2 64.8 1026.53 64.668 1026.92 64.668ZM1039.19 83.82L1034.44 73.524H1041.78L1043.4 77.304L1049.96 75.792L1049.85 76.764C1049.63 77.964 1048.97 78.732 1047.87 79.068L1044.48 79.86L1048.44 87.492H1044.74C1042.38 87.492 1040.54 86.268 1039.19 83.82ZM1073.31 64.128L1077.49 53.724H1085.37L1082.31 61.284C1081.38 63.18 1079.97 64.128 1078.1 64.128H1073.31ZM1070.04 87.6L1076.63 68.664H1075.47C1074.87 68.664 1074.38 68.448 1074 68.016C1073.64 67.584 1073.49 67.068 1073.57 66.468L1073.64 65.82H1098.37L1095.89 83.64C1095.72 84.72 1095.19 85.644 1094.3 86.412C1093.41 87.204 1092.43 87.6 1091.35 87.6H1083.36C1083.48 86.76 1083.85 86.064 1084.47 85.512C1085.1 84.984 1085.82 84.72 1086.63 84.72H1086.74C1087.25 84.72 1087.64 84.552 1087.93 84.216C1088.24 83.88 1088.42 83.46 1088.47 82.956L1090.49 68.664H1084.11L1079.33 82.416C1077.77 85.872 1075.34 87.6 1072.05 87.6H1070.04ZM1091.6 60.708L1090.74 53.724H1098.48L1099.77 64.128H1095.49C1094.51 64.128 1093.64 63.804 1092.9 63.156C1092.18 62.508 1091.75 61.692 1091.6 60.708ZM1070.58 53.652H1064.49C1063.65 53.652 1063.13 54.12 1062.91 55.056L1062.66 56.316H1059.92C1059.63 56.316 1059.39 56.424 1059.2 56.64C1059.01 56.832 1058.89 57.048 1058.84 57.288L1058.19 60.06H1062.15L1060.35 71.616L1057.47 72.012C1057.21 72.036 1056.97 72.144 1056.75 72.336C1056.54 72.504 1056.41 72.72 1056.36 72.984L1055.64 75.864L1059.81 75.36L1058.81 82.128C1058.73 82.464 1058.65 82.752 1058.55 82.992C1058.41 83.232 1058.23 83.46 1058.01 83.676C1057.8 83.916 1057.57 84.072 1057.33 84.144C1057.07 84.192 1056.79 84.216 1056.5 84.216H1054.7L1054.31 87.6H1061.07C1062.39 87.6 1063.56 87.048 1064.57 85.944C1065.57 84.84 1066.15 83.52 1066.29 81.984L1067.45 74.388L1068.38 74.28C1068.74 74.232 1069.05 74.1 1069.32 73.884C1069.56 73.644 1069.7 73.356 1069.75 73.02L1070.18 70.392L1068.02 70.68L1069.61 60.06H1070.72C1071.03 60.06 1071.32 59.94 1071.59 59.7C1071.83 59.46 1071.97 59.196 1072.02 58.908L1072.41 56.316H1070.15L1070.58 53.652Z" fill="white"/>
<path d="M743.93 114.058L747.7 103.203H749.537L744.8 116H743.49L743.93 114.058ZM740.405 103.203L744.141 114.058L744.606 116H743.297L738.568 103.203H740.405ZM771.079 103.203V116H769.383V103.203H771.079ZM796.884 110.981H793.465V109.602H796.884C797.546 109.602 798.082 109.496 798.492 109.285C798.902 109.074 799.201 108.781 799.389 108.406C799.582 108.031 799.679 107.604 799.679 107.123C799.679 106.684 799.582 106.271 799.389 105.884C799.201 105.497 798.902 105.187 798.492 104.952C798.082 104.712 797.546 104.592 796.884 104.592H793.86V116H792.164V103.203H796.884C797.851 103.203 798.668 103.37 799.336 103.704C800.004 104.038 800.511 104.501 800.856 105.093C801.202 105.679 801.375 106.35 801.375 107.105C801.375 107.926 801.202 108.626 800.856 109.206C800.511 109.786 800.004 110.229 799.336 110.533C798.668 110.832 797.851 110.981 796.884 110.981ZM848.361 103.203V116H846.691V103.203H848.361ZM852.475 103.203V104.592H842.587V103.203H852.475ZM873.753 102.5V116H872.127V102.5H873.753ZM873.366 110.885L872.689 110.858C872.695 110.208 872.792 109.607 872.979 109.057C873.167 108.5 873.431 108.017 873.771 107.606C874.11 107.196 874.515 106.88 874.983 106.657C875.458 106.429 875.982 106.314 876.557 106.314C877.025 106.314 877.447 106.379 877.822 106.508C878.197 106.631 878.517 106.83 878.78 107.105C879.05 107.381 879.255 107.738 879.396 108.178C879.536 108.611 879.606 109.142 879.606 109.769V116H877.972V109.751C877.972 109.253 877.898 108.854 877.752 108.556C877.605 108.251 877.392 108.031 877.11 107.896C876.829 107.756 876.483 107.686 876.073 107.686C875.669 107.686 875.3 107.771 874.966 107.94C874.638 108.11 874.354 108.345 874.113 108.644C873.879 108.942 873.694 109.285 873.56 109.672C873.431 110.053 873.366 110.457 873.366 110.885ZM903.987 116.176C903.325 116.176 902.725 116.064 902.186 115.842C901.652 115.613 901.192 115.294 900.806 114.884C900.425 114.474 900.132 113.987 899.927 113.425C899.722 112.862 899.619 112.247 899.619 111.579V111.21C899.619 110.437 899.733 109.748 899.962 109.145C900.19 108.535 900.501 108.02 900.894 107.598C901.286 107.176 901.731 106.856 902.229 106.64C902.728 106.423 903.243 106.314 903.776 106.314C904.456 106.314 905.042 106.432 905.534 106.666C906.032 106.9 906.439 107.229 906.756 107.65C907.072 108.066 907.307 108.559 907.459 109.127C907.611 109.689 907.688 110.305 907.688 110.973V111.702H900.586V110.375H906.062V110.252C906.038 109.83 905.95 109.42 905.798 109.021C905.651 108.623 905.417 108.295 905.095 108.037C904.772 107.779 904.333 107.65 903.776 107.65C903.407 107.65 903.067 107.729 902.757 107.888C902.446 108.04 902.18 108.269 901.957 108.573C901.734 108.878 901.562 109.25 901.438 109.689C901.315 110.129 901.254 110.636 901.254 111.21V111.579C901.254 112.03 901.315 112.455 901.438 112.854C901.567 113.246 901.752 113.592 901.992 113.891C902.238 114.189 902.534 114.424 902.88 114.594C903.231 114.764 903.63 114.849 904.075 114.849C904.649 114.849 905.136 114.731 905.534 114.497C905.933 114.263 906.281 113.949 906.58 113.557L907.564 114.339C907.359 114.649 907.099 114.945 906.782 115.227C906.466 115.508 906.076 115.736 905.613 115.912C905.156 116.088 904.614 116.176 903.987 116.176ZM929.203 108.38V116H927.568V106.49H929.115L929.203 108.38ZM928.869 110.885L928.113 110.858C928.119 110.208 928.204 109.607 928.368 109.057C928.532 108.5 928.775 108.017 929.098 107.606C929.42 107.196 929.821 106.88 930.302 106.657C930.782 106.429 931.339 106.314 931.972 106.314C932.417 106.314 932.827 106.379 933.202 106.508C933.577 106.631 933.902 106.827 934.178 107.097C934.453 107.366 934.667 107.712 934.819 108.134C934.972 108.556 935.048 109.065 935.048 109.663V116H933.422V109.742C933.422 109.244 933.337 108.846 933.167 108.547C933.003 108.248 932.769 108.031 932.464 107.896C932.159 107.756 931.802 107.686 931.392 107.686C930.911 107.686 930.51 107.771 930.188 107.94C929.865 108.11 929.607 108.345 929.414 108.644C929.221 108.942 929.08 109.285 928.992 109.672C928.91 110.053 928.869 110.457 928.869 110.885ZM935.03 109.988L933.94 110.322C933.946 109.801 934.031 109.3 934.195 108.819C934.365 108.339 934.608 107.911 934.925 107.536C935.247 107.161 935.643 106.865 936.111 106.648C936.58 106.426 937.116 106.314 937.72 106.314C938.229 106.314 938.681 106.382 939.073 106.517C939.472 106.651 939.806 106.859 940.075 107.141C940.351 107.416 940.559 107.771 940.699 108.204C940.84 108.638 940.91 109.153 940.91 109.751V116H939.275V109.733C939.275 109.2 939.19 108.787 939.021 108.494C938.856 108.195 938.622 107.987 938.317 107.87C938.019 107.747 937.661 107.686 937.245 107.686C936.888 107.686 936.571 107.747 936.296 107.87C936.021 107.993 935.789 108.163 935.602 108.38C935.414 108.591 935.271 108.834 935.171 109.109C935.077 109.385 935.03 109.678 935.03 109.988ZM965.317 116.176C964.655 116.176 964.055 116.064 963.516 115.842C962.982 115.613 962.522 115.294 962.136 114.884C961.755 114.474 961.462 113.987 961.257 113.425C961.052 112.862 960.949 112.247 960.949 111.579V111.21C960.949 110.437 961.063 109.748 961.292 109.145C961.521 108.535 961.831 108.02 962.224 107.598C962.616 107.176 963.062 106.856 963.56 106.64C964.058 106.423 964.573 106.314 965.106 106.314C965.786 106.314 966.372 106.432 966.864 106.666C967.362 106.9 967.77 107.229 968.086 107.65C968.402 108.066 968.637 108.559 968.789 109.127C968.941 109.689 969.018 110.305 969.018 110.973V111.702H961.916V110.375H967.392V110.252C967.368 109.83 967.28 109.42 967.128 109.021C966.981 108.623 966.747 108.295 966.425 108.037C966.103 107.779 965.663 107.65 965.106 107.65C964.737 107.65 964.397 107.729 964.087 107.888C963.776 108.04 963.51 108.269 963.287 108.573C963.064 108.878 962.892 109.25 962.769 109.689C962.646 110.129 962.584 110.636 962.584 111.21V111.579C962.584 112.03 962.646 112.455 962.769 112.854C962.897 113.246 963.082 113.592 963.322 113.891C963.568 114.189 963.864 114.424 964.21 114.594C964.562 114.764 964.96 114.849 965.405 114.849C965.979 114.849 966.466 114.731 966.864 114.497C967.263 114.263 967.611 113.949 967.91 113.557L968.895 114.339C968.689 114.649 968.429 114.945 968.112 115.227C967.796 115.508 967.406 115.736 966.943 115.912C966.486 116.088 965.944 116.176 965.317 116.176ZM994.91 114.154V102.5H996.545V116H995.051L994.91 114.154ZM988.512 111.351V111.166C988.512 110.439 988.6 109.78 988.775 109.188C988.957 108.591 989.212 108.078 989.54 107.65C989.874 107.223 990.27 106.895 990.727 106.666C991.189 106.432 991.705 106.314 992.273 106.314C992.871 106.314 993.393 106.42 993.838 106.631C994.289 106.836 994.67 107.138 994.98 107.536C995.297 107.929 995.546 108.403 995.728 108.96C995.909 109.517 996.035 110.146 996.105 110.85V111.658C996.041 112.355 995.915 112.982 995.728 113.539C995.546 114.096 995.297 114.57 994.98 114.963C994.67 115.355 994.289 115.657 993.838 115.868C993.387 116.073 992.859 116.176 992.256 116.176C991.699 116.176 991.189 116.056 990.727 115.815C990.27 115.575 989.874 115.238 989.54 114.805C989.212 114.371 988.957 113.861 988.775 113.275C988.6 112.684 988.512 112.042 988.512 111.351ZM990.146 111.166V111.351C990.146 111.825 990.193 112.271 990.287 112.687C990.387 113.103 990.539 113.469 990.744 113.785C990.949 114.102 991.21 114.351 991.526 114.532C991.843 114.708 992.221 114.796 992.66 114.796C993.199 114.796 993.642 114.682 993.987 114.453C994.339 114.225 994.62 113.923 994.831 113.548C995.042 113.173 995.206 112.766 995.323 112.326V110.208C995.253 109.886 995.15 109.575 995.016 109.276C994.887 108.972 994.717 108.702 994.506 108.468C994.301 108.228 994.046 108.037 993.741 107.896C993.442 107.756 993.088 107.686 992.678 107.686C992.232 107.686 991.849 107.779 991.526 107.967C991.21 108.148 990.949 108.4 990.744 108.723C990.539 109.039 990.387 109.408 990.287 109.83C990.193 110.246 990.146 110.691 990.146 111.166ZM1049.64 109.197V110.006C1049.64 110.967 1049.52 111.828 1049.28 112.59C1049.04 113.352 1048.69 113.999 1048.24 114.532C1047.79 115.065 1047.25 115.473 1046.62 115.754C1045.99 116.035 1045.29 116.176 1044.51 116.176C1043.75 116.176 1043.06 116.035 1042.42 115.754C1041.8 115.473 1041.25 115.065 1040.79 114.532C1040.33 113.999 1039.98 113.352 1039.73 112.59C1039.47 111.828 1039.35 110.967 1039.35 110.006V109.197C1039.35 108.236 1039.47 107.378 1039.72 106.622C1039.97 105.86 1040.32 105.213 1040.78 104.68C1041.24 104.141 1041.78 103.73 1042.41 103.449C1043.04 103.168 1043.73 103.027 1044.49 103.027C1045.27 103.027 1045.97 103.168 1046.6 103.449C1047.23 103.73 1047.77 104.141 1048.22 104.68C1048.68 105.213 1049.03 105.86 1049.27 106.622C1049.52 107.378 1049.64 108.236 1049.64 109.197ZM1047.96 110.006V109.18C1047.96 108.418 1047.88 107.744 1047.72 107.158C1047.57 106.572 1047.35 106.08 1047.05 105.682C1046.75 105.283 1046.38 104.981 1045.95 104.776C1045.52 104.571 1045.03 104.469 1044.49 104.469C1043.96 104.469 1043.48 104.571 1043.06 104.776C1042.63 104.981 1042.27 105.283 1041.97 105.682C1041.67 106.08 1041.44 106.572 1041.27 107.158C1041.11 107.744 1041.03 108.418 1041.03 109.18V110.006C1041.03 110.773 1041.11 111.453 1041.27 112.045C1041.44 112.631 1041.67 113.126 1041.98 113.53C1042.29 113.929 1042.65 114.23 1043.07 114.436C1043.5 114.641 1043.98 114.743 1044.51 114.743C1045.06 114.743 1045.55 114.641 1045.97 114.436C1046.4 114.23 1046.76 113.929 1047.06 113.53C1047.35 113.126 1047.58 112.631 1047.73 112.045C1047.88 111.453 1047.96 110.773 1047.96 110.006ZM1075.75 113.803V106.49H1077.39V116H1075.83L1075.75 113.803ZM1076.06 111.799L1076.74 111.781C1076.74 112.414 1076.67 113 1076.53 113.539C1076.41 114.072 1076.19 114.535 1075.9 114.928C1075.61 115.32 1075.22 115.628 1074.75 115.851C1074.28 116.067 1073.7 116.176 1073.02 116.176C1072.56 116.176 1072.13 116.108 1071.74 115.974C1071.36 115.839 1071.04 115.631 1070.76 115.35C1070.48 115.068 1070.27 114.702 1070.12 114.251C1069.97 113.8 1069.9 113.258 1069.9 112.625V106.49H1071.52V112.643C1071.52 113.07 1071.57 113.425 1071.67 113.706C1071.76 113.981 1071.9 114.201 1072.06 114.365C1072.23 114.523 1072.42 114.635 1072.62 114.699C1072.83 114.764 1073.05 114.796 1073.27 114.796C1073.96 114.796 1074.51 114.664 1074.92 114.4C1075.32 114.131 1075.61 113.771 1075.79 113.319C1075.97 112.862 1076.06 112.355 1076.06 111.799ZM1101.85 106.49V107.738H1096.71V106.49H1101.85ZM1098.45 104.179H1100.07V113.645C1100.07 113.967 1100.12 114.21 1100.22 114.374C1100.32 114.538 1100.45 114.646 1100.61 114.699C1100.77 114.752 1100.94 114.778 1101.12 114.778C1101.25 114.778 1101.39 114.767 1101.54 114.743C1101.69 114.714 1101.81 114.69 1101.88 114.673L1101.89 116C1101.76 116.041 1101.59 116.079 1101.38 116.114C1101.18 116.155 1100.93 116.176 1100.63 116.176C1100.24 116.176 1099.87 116.097 1099.54 115.938C1099.2 115.78 1098.93 115.517 1098.74 115.147C1098.54 114.772 1098.45 114.269 1098.45 113.636V104.179ZM1123.92 116H1122.3V105.664C1122.3 104.943 1122.44 104.334 1122.72 103.836C1123 103.338 1123.4 102.96 1123.92 102.702C1124.45 102.444 1125.06 102.315 1125.78 102.315C1126.2 102.315 1126.61 102.368 1127.02 102.474C1127.42 102.573 1127.84 102.699 1128.27 102.852L1127.99 104.223C1127.72 104.117 1127.41 104.018 1127.05 103.924C1126.7 103.824 1126.32 103.774 1125.89 103.774C1125.2 103.774 1124.69 103.933 1124.38 104.249C1124.08 104.56 1123.92 105.031 1123.92 105.664V116ZM1125.87 106.49V107.738H1120.8V106.49H1125.87ZM1129.07 106.49V116H1127.44V106.49H1129.07ZM1153.72 106.49V107.738H1148.58V106.49H1153.72ZM1150.32 104.179H1151.94V113.645C1151.94 113.967 1151.99 114.21 1152.09 114.374C1152.19 114.538 1152.32 114.646 1152.48 114.699C1152.64 114.752 1152.81 114.778 1152.99 114.778C1153.12 114.778 1153.27 114.767 1153.41 114.743C1153.56 114.714 1153.68 114.69 1153.75 114.673L1153.76 116C1153.63 116.041 1153.46 116.079 1153.25 116.114C1153.05 116.155 1152.8 116.176 1152.51 116.176C1152.11 116.176 1151.74 116.097 1151.41 115.938C1151.07 115.78 1150.81 115.517 1150.61 115.147C1150.42 114.772 1150.32 114.269 1150.32 113.636V104.179ZM1179.16 113.478C1179.16 113.243 1179.11 113.026 1179.01 112.827C1178.91 112.622 1178.7 112.438 1178.38 112.273C1178.07 112.104 1177.6 111.957 1176.98 111.834C1176.45 111.723 1175.97 111.591 1175.54 111.438C1175.12 111.286 1174.76 111.102 1174.46 110.885C1174.17 110.668 1173.94 110.413 1173.79 110.12C1173.63 109.827 1173.55 109.484 1173.55 109.092C1173.55 108.717 1173.63 108.362 1173.79 108.028C1173.96 107.694 1174.2 107.398 1174.51 107.141C1174.82 106.883 1175.19 106.681 1175.62 106.534C1176.06 106.388 1176.54 106.314 1177.07 106.314C1177.83 106.314 1178.48 106.449 1179.02 106.719C1179.56 106.988 1179.98 107.349 1180.26 107.8C1180.55 108.245 1180.69 108.74 1180.69 109.285H1179.07C1179.07 109.021 1178.99 108.767 1178.83 108.521C1178.68 108.269 1178.45 108.061 1178.15 107.896C1177.86 107.732 1177.5 107.65 1177.07 107.65C1176.62 107.65 1176.25 107.721 1175.97 107.861C1175.7 107.996 1175.5 108.169 1175.37 108.38C1175.24 108.591 1175.18 108.813 1175.18 109.048C1175.18 109.224 1175.21 109.382 1175.27 109.522C1175.33 109.657 1175.45 109.783 1175.6 109.9C1175.76 110.012 1175.99 110.117 1176.27 110.217C1176.56 110.316 1176.93 110.416 1177.37 110.516C1178.15 110.691 1178.79 110.902 1179.3 111.148C1179.8 111.395 1180.17 111.696 1180.42 112.054C1180.67 112.411 1180.79 112.845 1180.79 113.354C1180.79 113.771 1180.7 114.151 1180.53 114.497C1180.36 114.843 1180.11 115.142 1179.78 115.394C1179.46 115.64 1179.07 115.833 1178.62 115.974C1178.17 116.108 1177.67 116.176 1177.12 116.176C1176.28 116.176 1175.57 116.026 1174.99 115.728C1174.41 115.429 1173.97 115.042 1173.67 114.567C1173.37 114.093 1173.22 113.592 1173.22 113.064H1174.86C1174.88 113.51 1175.01 113.864 1175.24 114.128C1175.48 114.386 1175.77 114.57 1176.11 114.682C1176.45 114.787 1176.78 114.84 1177.12 114.84C1177.56 114.84 1177.93 114.781 1178.23 114.664C1178.54 114.547 1178.77 114.386 1178.93 114.181C1179.08 113.976 1179.16 113.741 1179.16 113.478Z" fill="white" fill-opacity="0.5"/>
<defs>
<radialGradient id="paint0_radial_253_582" cx="0" cy="0" r="1" gradientUnits="userSpaceOnUse" gradientTransform="translate(995.578 -3.44573e-05) scale(1153.57 227.142)">
<stop stop-color="#EF6216"/>
<stop offset="0.25" stop-color="#EF6216" stop-opacity="0.485"/>
<stop offset="0.5" stop-color="#EF6216" stop-opacity="0.219489"/>
<stop offset="0.75" stop-color="#EF6216" stop-opacity="0.0888931"/>
<stop offset="1" stop-color="#EF6216" stop-opacity="0"/>
</radialGradient>
</defs>
</svg>
