<svg width="1920" height="308" viewBox="0 0 1920 308" fill="none" xmlns="http://www.w3.org/2000/svg">
<rect width="1920" height="308" fill="url(#paint0_radial_253_566)"/>
<rect width="1920" height="308" fill="url(#paint1_radial_253_566)"/>
<rect width="1920" height="308" fill="url(#paint2_radial_253_566)"/>
<rect width="1920" height="308" fill="url(#paint3_radial_253_566)"/>
<rect width="1920" height="308" fill="url(#paint4_radial_253_566)"/>
<rect width="1920" height="308" fill="url(#paint5_radial_253_566)"/>
<path d="M874.104 84.648H883.752C884.544 84.648 885.18 84.936 885.66 85.512C886.164 86.112 886.38 86.808 886.308 87.6H869.28C868.176 87.6 867.264 87.228 866.544 86.484C865.8 85.716 865.524 84.648 865.716 83.28L866.652 76.404L855.996 85.26C854.196 86.724 852.132 87.468 849.804 87.492H844.08L860.82 73.344H850.704C849.624 73.344 848.772 72.948 848.148 72.156C847.5 71.364 847.248 70.392 847.392 69.24L848.652 59.7H855.924L855.528 62.652L855.204 65.028L854.736 68.556C854.688 69.084 854.796 69.516 855.06 69.852C855.348 70.212 855.72 70.392 856.176 70.392H863.844L864.888 62.652H856.716L857.112 59.7H875.58L878.856 56.568H857.22L855.42 58.692H848.364L851.46 54.588C851.988 53.94 852.636 53.616 853.404 53.616H887.388C887.7 53.616 887.916 53.772 888.036 54.084C888.156 54.372 888.096 54.648 887.856 54.912L883.176 59.7H888.72L887.496 69.132C887.328 70.356 886.812 71.388 885.948 72.228C885.108 72.972 884.16 73.344 883.104 73.344H869.964L867.768 75.36H871.584C872.232 75.36 872.76 75.612 873.168 76.116C873.6 76.596 873.78 77.172 873.708 77.844L872.952 83.28C872.904 83.712 872.976 84.048 873.168 84.288C873.36 84.528 873.672 84.648 874.104 84.648ZM872.124 62.652L871.116 70.392H878.352C878.856 70.392 879.288 70.212 879.648 69.852C880.032 69.516 880.26 69.084 880.332 68.556L881.088 62.652H872.124ZM918.845 81.552L928.241 84.504C928.745 84.648 929.261 84.72 929.789 84.72H932.021L931.661 87.6H926.297C925.241 87.6 924.197 87.456 923.165 87.168L912.185 84.144L899.153 87.348C898.505 87.516 897.845 87.6 897.173 87.6H890.477L890.873 84.684H892.745C893.561 84.684 894.365 84.576 895.157 84.36L908.117 80.904L908.873 75.288H916.073L915.209 81.552H918.845ZM900.053 71.688L898.469 82.92H891.305L892.349 75.648C892.493 74.52 892.997 73.584 893.861 72.84C894.701 72.072 895.649 71.688 896.705 71.688H900.053ZM930.005 71.688C931.061 71.688 931.913 72.072 932.561 72.84C933.185 73.584 933.425 74.52 933.281 75.648L932.237 82.92H925.037L926.081 75.72C926.129 75.336 926.045 75.024 925.829 74.784C925.613 74.52 925.325 74.388 924.965 74.388H900.989L901.349 71.688H930.005ZM924.065 63.768H935.045L934.541 67.584C934.421 68.448 934.025 69.18 933.353 69.78C932.705 70.38 931.961 70.68 931.121 70.68H925.361L925.541 69.42C925.565 69.156 925.673 68.94 925.865 68.772C926.057 68.604 926.285 68.52 926.549 68.52C926.741 68.52 926.897 68.46 927.017 68.34C927.161 68.196 927.245 68.04 927.269 67.872L927.485 66.144H923.741L923.201 70.104C923.153 70.344 923.045 70.548 922.877 70.716C922.709 70.86 922.517 70.932 922.301 70.932H915.893L916.541 66.144H910.673L910.493 67.548C910.349 68.604 909.821 69.432 908.909 70.032C907.973 70.632 906.953 70.932 905.849 70.932H892.529C892.649 70.188 892.973 69.588 893.501 69.132C894.029 68.676 894.641 68.448 895.337 68.448H901.961C902.777 68.448 903.233 68.124 903.329 67.476L903.509 66.144H895.625C895.049 66.144 894.581 65.928 894.221 65.496C893.861 65.064 893.717 64.548 893.789 63.948L894.401 59.376H901.601L901.277 61.788L901.241 62.148L901.097 63.084C901.073 63.252 901.109 63.408 901.205 63.552C901.349 63.696 901.505 63.768 901.673 63.768H903.797L904.085 61.788H901.997L902.321 59.376H904.409L904.733 57.072H896.921C896.297 57.072 895.793 56.844 895.409 56.388C895.025 55.908 894.857 55.344 894.905 54.696H905.021C905.069 54.384 905.201 54.132 905.417 53.94C905.657 53.748 905.921 53.652 906.209 53.652H912.365L912.221 54.696H918.089C918.137 54.384 918.269 54.132 918.485 53.94C918.701 53.748 918.965 53.652 919.277 53.652H925.433L925.289 54.696H935.945L935.369 58.908C935.249 59.748 934.865 60.432 934.217 60.96C933.569 61.512 932.825 61.788 931.985 61.788H924.317L924.065 63.768ZM924.965 57.072L924.641 59.376H927.449C927.641 59.376 927.797 59.304 927.917 59.16C928.061 59.04 928.145 58.896 928.169 58.728L928.385 57.072H924.965ZM916.865 63.768L917.117 61.788H911.285L910.997 63.768H916.865ZM917.477 59.376L917.765 57.072H911.897L911.609 59.376H917.477ZM947.89 56.676C947.674 56.676 947.47 56.748 947.278 56.892C947.11 57.036 946.978 57.228 946.882 57.468L945.226 63.012H938.566L940.618 56.244C940.882 55.476 941.314 54.876 941.914 54.444C942.538 54.012 943.186 53.796 943.858 53.796H956.494C957.142 53.796 957.718 54.012 958.222 54.444C958.702 54.876 958.966 55.476 959.014 56.244L959.23 63.012H952.534L952.39 57.468C952.366 57.228 952.294 57.036 952.174 56.892C952.03 56.748 951.85 56.676 951.634 56.676H947.89ZM957.682 70.428L953.65 84.576C953.506 85.08 953.29 85.512 953.002 85.872C952.714 86.208 952.378 86.508 951.994 86.772C951.61 87.012 951.214 87.192 950.806 87.312C950.398 87.432 949.978 87.492 949.546 87.492H940.762C939.946 87.492 939.19 87.252 938.494 86.772C937.798 86.268 937.438 85.536 937.414 84.576L937.27 81.084H942.022C942.502 81.084 942.898 81.252 943.21 81.588C943.546 81.924 943.726 82.332 943.75 82.812V84.036C943.774 84.348 943.87 84.576 944.038 84.72C944.182 84.888 944.386 84.972 944.65 84.972H945.946C946.186 84.972 946.426 84.9 946.666 84.756C946.882 84.612 947.05 84.396 947.17 84.108L951.022 70.068H937.882L938.242 67.404C938.266 67.188 938.362 67.008 938.53 66.864C938.698 66.72 938.878 66.648 939.07 66.648H958.222L957.682 70.428ZM946.342 65.388L946.45 60.924H950.194C950.698 60.924 951.106 61.104 951.418 61.464C951.754 61.8 951.922 62.22 951.922 62.724L951.886 65.388H946.342ZM961.714 87.6H956.242L965.314 76.8L967.114 63.804H973.99L972.082 77.88L970.498 80.22H973.738L977.842 87.6H971.362C970.93 87.6 970.594 87.42 970.354 87.06L967.978 83.208L965.278 85.98C964.198 87.06 963.01 87.6 961.714 87.6ZM962.11 53.868H982.558L982.27 55.956C982.246 56.196 982.15 56.388 981.982 56.532C981.814 56.652 981.622 56.712 981.406 56.712H975.178L974.89 58.764H978.562C979.498 58.764 980.23 59.112 980.758 59.808C981.286 60.48 981.49 61.308 981.37 62.292L979.138 78.42H973.702L975.898 62.508C975.922 62.268 975.874 62.064 975.754 61.896C975.61 61.704 975.43 61.608 975.214 61.608H966.502C966.262 61.608 966.058 61.704 965.89 61.896C965.698 62.064 965.59 62.268 965.566 62.508L963.37 78.42H957.934L960.166 62.292C960.286 61.308 960.706 60.48 961.426 59.808C962.17 59.112 962.998 58.764 963.91 58.764H967.582L967.87 56.712H960.886L961.138 54.696C961.186 54.456 961.294 54.264 961.462 54.12C961.654 53.952 961.87 53.868 962.11 53.868ZM996.339 57.252C995.907 57.252 995.559 57.456 995.295 57.864L993.243 61.68H985.143L988.455 55.416C989.295 54.24 990.375 53.652 991.695 53.652H1023.34C1024.83 53.652 1025.98 54.384 1026.79 55.848L1029.53 61.68H1021.79L1019.95 58.152C1019.57 57.552 1019.07 57.252 1018.44 57.252H996.339ZM988.779 64.632C989.139 63.768 989.739 63.336 990.579 63.336H1024.96L1024.6 65.82C1024.53 66.132 1024.37 66.384 1024.13 66.576C1023.91 66.792 1023.65 66.9 1023.34 66.9H988.275L988.779 64.632ZM985.143 72.336C985.527 72.024 985.959 71.868 986.439 71.868H1027.69L1027.41 73.596C1027.29 74.172 1027.01 74.64 1026.58 75C1026.15 75.36 1025.65 75.54 1025.1 75.54H998.103L995.583 82.092C995.463 82.428 995.475 82.704 995.619 82.92C995.739 83.184 995.967 83.316 996.303 83.316L1016.75 82.056L1018.23 85.8L988.023 87.6C986.991 87.6 986.199 87.216 985.647 86.448C985.119 85.68 985.035 84.816 985.395 83.856L989.283 75.54H984.063L984.423 73.56C984.519 73.056 984.759 72.648 985.143 72.336ZM1023.41 79.032L1025.82 87.6H1017.54L1014.84 77.448H1021.25C1022.23 77.448 1022.95 77.976 1023.41 79.032ZM1039.03 64.308C1038.07 64.308 1037.28 63.936 1036.65 63.192C1036.05 62.496 1035.81 61.644 1035.93 60.636L1036.9 53.688H1044.5L1044.1 56.568V56.604L1043.96 57.612V57.684L1043.64 59.952C1043.56 60.36 1043.64 60.708 1043.85 60.996C1044.02 61.284 1044.3 61.428 1044.68 61.428H1066.71C1067.07 61.428 1067.4 61.284 1067.68 60.996C1067.97 60.708 1068.15 60.36 1068.22 59.952L1068.69 56.568H1045.26L1045.65 53.688H1076.43L1075.46 60.636C1075.34 61.644 1074.88 62.496 1074.09 63.192C1073.32 63.936 1072.46 64.308 1071.5 64.308H1039.03ZM1040.72 72.912L1039.53 81.552H1032.19L1033.81 69.816C1033.95 68.712 1034.44 67.764 1035.28 66.972C1036.12 66.156 1037.11 65.748 1038.24 65.748H1041.73L1041.04 70.608L1040.72 72.876V72.912ZM1066.64 69.204H1042.95L1043.42 65.748H1071.93C1073.04 65.748 1073.91 66.156 1074.56 66.972C1075.21 67.764 1075.46 68.712 1075.32 69.816L1073.7 81.552H1067.54C1067.23 81.552 1066.96 81.444 1066.75 81.228C1066.56 80.988 1066.48 80.688 1066.53 80.328L1067.86 70.608C1067.91 70.248 1067.82 69.924 1067.58 69.636C1067.34 69.348 1067.02 69.204 1066.64 69.204ZM1071.64 84.72H1073.55L1073.16 87.564H1066.24C1065.69 87.564 1064.68 87.384 1063.22 87.024C1061.78 86.688 1060.26 86.292 1058.65 85.836C1057.04 85.404 1055.65 85.008 1054.47 84.648C1053.3 84.312 1052.71 84.144 1052.71 84.144C1052.71 84.144 1052.1 84.312 1050.87 84.648C1049.67 85.008 1048.21 85.404 1046.48 85.836C1044.78 86.292 1043.11 86.688 1041.48 87.024C1039.84 87.384 1038.62 87.564 1037.8 87.564H1030.78L1031.18 84.72H1033.23C1033.81 84.72 1034.9 84.444 1036.51 83.892C1038.14 83.34 1039.86 82.716 1041.66 82.02C1043.46 81.3 1045.02 80.664 1046.34 80.112C1047.66 79.56 1048.32 79.284 1048.32 79.284L1049.32 72.048H1059.19L1058.11 80.112H1059.8C1059.8 80.112 1060.21 80.352 1061.02 80.832C1061.86 81.288 1062.91 81.816 1064.16 82.416C1065.4 83.016 1066.7 83.544 1068.04 84C1069.39 84.48 1070.59 84.72 1071.64 84.72Z" fill="white"/>
<path d="M866.722 103.203V116H865.025V103.203H866.722ZM872.083 108.96V110.349H866.353V108.96H872.083ZM872.953 103.203V104.592H866.353V103.203H872.953ZM894.126 107.984V116H892.5V106.49H894.082L894.126 107.984ZM897.097 106.438L897.088 107.949C896.953 107.92 896.824 107.902 896.701 107.896C896.584 107.885 896.449 107.879 896.297 107.879C895.922 107.879 895.591 107.938 895.304 108.055C895.017 108.172 894.773 108.336 894.574 108.547C894.375 108.758 894.217 109.01 894.1 109.303C893.988 109.59 893.915 109.906 893.88 110.252L893.423 110.516C893.423 109.941 893.479 109.402 893.59 108.898C893.707 108.395 893.886 107.949 894.126 107.562C894.366 107.17 894.671 106.865 895.04 106.648C895.415 106.426 895.86 106.314 896.376 106.314C896.493 106.314 896.628 106.329 896.78 106.358C896.933 106.382 897.038 106.408 897.097 106.438ZM920.37 116.176C919.708 116.176 919.107 116.064 918.568 115.842C918.035 115.613 917.575 115.294 917.188 114.884C916.808 114.474 916.515 113.987 916.31 113.425C916.104 112.862 916.002 112.247 916.002 111.579V111.21C916.002 110.437 916.116 109.748 916.345 109.145C916.573 108.535 916.884 108.02 917.276 107.598C917.669 107.176 918.114 106.856 918.612 106.64C919.11 106.423 919.626 106.314 920.159 106.314C920.839 106.314 921.425 106.432 921.917 106.666C922.415 106.9 922.822 107.229 923.139 107.65C923.455 108.066 923.689 108.559 923.842 109.127C923.994 109.689 924.07 110.305 924.07 110.973V111.702H916.969V110.375H922.444V110.252C922.421 109.83 922.333 109.42 922.181 109.021C922.034 108.623 921.8 108.295 921.478 108.037C921.155 107.779 920.716 107.65 920.159 107.65C919.79 107.65 919.45 107.729 919.14 107.888C918.829 108.04 918.562 108.269 918.34 108.573C918.117 108.878 917.944 109.25 917.821 109.689C917.698 110.129 917.637 110.636 917.637 111.21V111.579C917.637 112.03 917.698 112.455 917.821 112.854C917.95 113.246 918.135 113.592 918.375 113.891C918.621 114.189 918.917 114.424 919.263 114.594C919.614 114.764 920.013 114.849 920.458 114.849C921.032 114.849 921.519 114.731 921.917 114.497C922.315 114.263 922.664 113.949 922.963 113.557L923.947 114.339C923.742 114.649 923.481 114.945 923.165 115.227C922.849 115.508 922.459 115.736 921.996 115.912C921.539 116.088 920.997 116.176 920.37 116.176ZM947.915 116.176C947.253 116.176 946.652 116.064 946.113 115.842C945.58 115.613 945.12 115.294 944.733 114.884C944.353 114.474 944.06 113.987 943.854 113.425C943.649 112.862 943.547 112.247 943.547 111.579V111.21C943.547 110.437 943.661 109.748 943.89 109.145C944.118 108.535 944.429 108.02 944.821 107.598C945.214 107.176 945.659 106.856 946.157 106.64C946.655 106.423 947.171 106.314 947.704 106.314C948.384 106.314 948.97 106.432 949.462 106.666C949.96 106.9 950.367 107.229 950.684 107.65C951 108.066 951.234 108.559 951.387 109.127C951.539 109.689 951.615 110.305 951.615 110.973V111.702H944.514V110.375H949.989V110.252C949.966 109.83 949.878 109.42 949.726 109.021C949.579 108.623 949.345 108.295 949.022 108.037C948.7 107.779 948.261 107.65 947.704 107.65C947.335 107.65 946.995 107.729 946.685 107.888C946.374 108.04 946.107 108.269 945.885 108.573C945.662 108.878 945.489 109.25 945.366 109.689C945.243 110.129 945.182 110.636 945.182 111.21V111.579C945.182 112.03 945.243 112.455 945.366 112.854C945.495 113.246 945.68 113.592 945.92 113.891C946.166 114.189 946.462 114.424 946.808 114.594C947.159 114.764 947.558 114.849 948.003 114.849C948.577 114.849 949.063 114.731 949.462 114.497C949.86 114.263 950.209 113.949 950.508 113.557L951.492 114.339C951.287 114.649 951.026 114.945 950.71 115.227C950.394 115.508 950.004 115.736 949.541 115.912C949.084 116.088 948.542 116.176 947.915 116.176ZM998.355 114.058L1002.13 103.203H1003.96L999.226 116H997.916L998.355 114.058ZM994.831 103.203L998.566 114.058L999.032 116H997.723L992.994 103.203H994.831ZM1025.5 103.203V116H1023.81V103.203H1025.5ZM1051.31 110.981H1047.89V109.602H1051.31C1051.97 109.602 1052.51 109.496 1052.92 109.285C1053.33 109.074 1053.63 108.781 1053.81 108.406C1054.01 108.031 1054.1 107.604 1054.1 107.123C1054.1 106.684 1054.01 106.271 1053.81 105.884C1053.63 105.497 1053.33 105.187 1052.92 104.952C1052.51 104.712 1051.97 104.592 1051.31 104.592H1048.29V116H1046.59V103.203H1051.31C1052.28 103.203 1053.09 103.37 1053.76 103.704C1054.43 104.038 1054.94 104.501 1055.28 105.093C1055.63 105.679 1055.8 106.35 1055.8 107.105C1055.8 107.926 1055.63 108.626 1055.28 109.206C1054.94 109.786 1054.43 110.229 1053.76 110.533C1053.09 110.832 1052.28 110.981 1051.31 110.981Z" fill="white" fill-opacity="0.5"/>
<defs>
<radialGradient id="paint0_radial_253_566" cx="0" cy="0" r="1" gradientUnits="userSpaceOnUse" gradientTransform="translate(995.578 -3.44573e-05) scale(1153.57 227.142)">
<stop stop-color="#9747FF"/>
<stop offset="0.25" stop-color="#9747FF" stop-opacity="0.485"/>
<stop offset="0.5" stop-color="#9747FF" stop-opacity="0.219489"/>
<stop offset="0.75" stop-color="#9747FF" stop-opacity="0.0888931"/>
<stop offset="1" stop-color="#9747FF" stop-opacity="0"/>
</radialGradient>
<radialGradient id="paint1_radial_253_566" cx="0" cy="0" r="1" gradientUnits="userSpaceOnUse" gradientTransform="translate(995.578 -3.44573e-05) scale(1153.57 227.142)">
<stop stop-color="#CE0000"/>
<stop offset="0.25" stop-color="#CE0000" stop-opacity="0.485"/>
<stop offset="0.5" stop-color="#CE0000" stop-opacity="0.219489"/>
<stop offset="0.75" stop-color="#CE0000" stop-opacity="0.0888931"/>
<stop offset="1" stop-color="#CE0000" stop-opacity="0"/>
</radialGradient>
<radialGradient id="paint2_radial_253_566" cx="0" cy="0" r="1" gradientUnits="userSpaceOnUse" gradientTransform="translate(995.578 -3.44573e-05) scale(1153.57 227.142)">
<stop stop-color="#EF6216"/>
<stop offset="0.25" stop-color="#EF6216" stop-opacity="0.485"/>
<stop offset="0.5" stop-color="#EF6216" stop-opacity="0.219489"/>
<stop offset="0.75" stop-color="#EF6216" stop-opacity="0.0888931"/>
<stop offset="1" stop-color="#EF6216" stop-opacity="0"/>
</radialGradient>
<radialGradient id="paint3_radial_253_566" cx="0" cy="0" r="1" gradientUnits="userSpaceOnUse" gradientTransform="translate(995.578 -3.44573e-05) scale(1153.57 227.142)">
<stop stop-color="#EFCE16"/>
<stop offset="0.25" stop-color="#EFCE16" stop-opacity="0.485"/>
<stop offset="0.5" stop-color="#EFCE16" stop-opacity="0.219489"/>
<stop offset="0.75" stop-color="#EFCE16" stop-opacity="0.0888931"/>
<stop offset="1" stop-color="#EFCE16" stop-opacity="0"/>
</radialGradient>
<radialGradient id="paint4_radial_253_566" cx="0" cy="0" r="1" gradientUnits="userSpaceOnUse" gradientTransform="translate(995.578 -3.44573e-05) scale(1153.57 227.142)">
<stop stop-color="#30EC59"/>
<stop offset="0.25" stop-color="#30EC59" stop-opacity="0.485"/>
<stop offset="0.5" stop-color="#30EC59" stop-opacity="0.219489"/>
<stop offset="0.75" stop-color="#30EC59" stop-opacity="0.0888931"/>
<stop offset="1" stop-color="#30EC59" stop-opacity="0"/>
</radialGradient>
<radialGradient id="paint5_radial_253_566" cx="0" cy="0" r="1" gradientUnits="userSpaceOnUse" gradientTransform="translate(995.578 -3.44573e-05) scale(1153.57 227.142)">
<stop stop-color="#4080FF"/>
<stop offset="0.25" stop-color="#4080FF" stop-opacity="0.485"/>
<stop offset="0.5" stop-color="#4080FF" stop-opacity="0.219489"/>
<stop offset="0.75" stop-color="#4080FF" stop-opacity="0.0888931"/>
<stop offset="1" stop-color="#4080FF" stop-opacity="0"/>
</radialGradient>
</defs>
</svg>
