<svg width="54" height="84" viewBox="0 0 54 84" fill="none" xmlns="http://www.w3.org/2000/svg">
<path d="M53.1898 57.4C53.1898 62.4667 52.0232 66.9667 49.6898 70.9C47.4232 74.8333 44.1898 77.9 39.9898 80.1C35.7898 82.3667 31.0232 83.5 25.6898 83.5C19.2232 83.5 13.7232 82 9.18985 79C4.72318 76 1.75651 72.1 0.289844 67.3L9.58984 61.8C10.7232 65.3333 12.6898 68.1 15.4898 70.1C18.2898 72.1 21.6898 73.1 25.6898 73.1C30.2232 73.1 33.9232 71.6667 36.7898 68.8C39.6565 65.8667 41.0898 62.0667 41.0898 57.4C41.0898 52.8 39.6565 49.1 36.7898 46.3C33.9232 43.4333 30.2565 42 25.7898 42C22.7898 42 20.2232 42.5667 18.0898 43.7C16.0232 44.8333 14.4565 46.3333 13.3898 48.2L3.28984 45.6L7.88984 0.599998H49.6898V11.1H18.6898L16.1898 35.3C19.9232 32.8333 23.8232 31.6 27.8898 31.6C32.8232 31.6 37.1898 32.7333 40.9898 35C44.8565 37.2 47.8565 40.2667 49.9898 44.2C52.1232 48.1333 53.1898 52.5333 53.1898 57.4Z" fill="url(#paint0_linear_253_556)"/>
<defs>
<linearGradient id="paint0_linear_253_556" x1="26" y1="6.5" x2="26" y2="107" gradientUnits="userSpaceOnUse">
<stop stop-color="white"/>
<stop offset="0.805" stop-color="white" stop-opacity="0"/>
</linearGradient>
</defs>
</svg>
