<svg width="1920" height="308" viewBox="0 0 1920 308" fill="none" xmlns="http://www.w3.org/2000/svg">
<rect width="1920" height="308" fill="url(#paint0_radial_253_580)"/>
<path d="M848.688 55.2H864.6L864.816 53.652H870.54C870.924 53.652 871.248 53.808 871.512 54.12C871.752 54.408 871.848 54.768 871.8 55.2H889.152L889.008 56.316C888.936 56.82 888.72 57.24 888.36 57.576C887.976 57.888 887.544 58.044 887.064 58.044H861.432L855.636 67.908C855.444 68.148 855.396 68.34 855.492 68.484C855.588 68.652 855.744 68.736 855.96 68.736L878.028 68.16L876.516 62.796H881.016C882.864 62.796 884.184 63.792 884.976 65.784L886.776 72.264H880.188C879.612 72.264 879.168 71.928 878.856 71.256L878.748 70.896L848.616 71.616C848.016 71.616 847.536 71.496 847.176 71.256C846.816 71.016 846.552 70.716 846.384 70.356C846.24 69.972 846.204 69.564 846.276 69.132C846.372 68.7 846.576 68.292 846.888 67.908L852.756 58.044H846.888L847.068 56.676C847.14 56.244 847.32 55.896 847.608 55.632C847.92 55.344 848.28 55.2 848.688 55.2ZM843.684 87.6L851.1 73.416H860.532L854.556 85.08C853.548 86.76 852.18 87.6 850.452 87.6H843.684ZM879.576 73.416L878.28 82.992C878.208 83.496 878.316 83.916 878.604 84.252C878.868 84.588 879.252 84.756 879.756 84.756H883.392C883.872 84.756 884.28 84.912 884.616 85.224C884.976 85.56 885.18 85.968 885.228 86.448L885.336 87.6H872.7C871.668 87.6 870.828 87.216 870.18 86.448C869.508 85.704 869.244 84.768 869.388 83.64L870.828 73.416H879.576ZM902.753 57.252C902.321 57.252 901.973 57.456 901.709 57.864L899.657 61.68H891.557L894.869 55.416C895.709 54.24 896.789 53.652 898.109 53.652H929.753C931.241 53.652 932.393 54.384 933.209 55.848L935.945 61.68H928.205L926.369 58.152C925.985 57.552 925.481 57.252 924.857 57.252H902.753ZM895.193 64.632C895.553 63.768 896.153 63.336 896.993 63.336H931.373L931.013 65.82C930.941 66.132 930.785 66.384 930.545 66.576C930.329 66.792 930.065 66.9 929.753 66.9H894.689L895.193 64.632ZM891.557 72.336C891.941 72.024 892.373 71.868 892.853 71.868H934.109L933.821 73.596C933.701 74.172 933.425 74.64 932.993 75C932.561 75.36 932.069 75.54 931.517 75.54H904.517L901.997 82.092C901.877 82.428 901.889 82.704 902.033 82.92C902.153 83.184 902.381 83.316 902.717 83.316L923.165 82.056L924.641 85.8L894.437 87.6C893.405 87.6 892.613 87.216 892.061 86.448C891.533 85.68 891.449 84.816 891.809 83.856L895.697 75.54H890.477L890.837 73.56C890.933 73.056 891.173 72.648 891.557 72.336ZM929.825 79.032L932.237 87.6H923.957L921.257 77.448H927.665C928.649 77.448 929.369 77.976 929.825 79.032ZM945.442 64.308C944.482 64.308 943.69 63.936 943.066 63.192C942.466 62.496 942.226 61.644 942.346 60.636L943.318 53.688H950.914L950.518 56.568V56.604L950.374 57.612V57.684L950.05 59.952C949.978 60.36 950.05 60.708 950.266 60.996C950.434 61.284 950.71 61.428 951.094 61.428H973.126C973.486 61.428 973.81 61.284 974.098 60.996C974.386 60.708 974.566 60.36 974.638 59.952L975.106 56.568H951.67L952.066 53.688H982.846L981.874 60.636C981.754 61.644 981.298 62.496 980.506 63.192C979.738 63.936 978.874 64.308 977.914 64.308H945.442ZM947.134 72.912L945.946 81.552H938.602L940.222 69.816C940.366 68.712 940.858 67.764 941.698 66.972C942.538 66.156 943.522 65.748 944.65 65.748H948.142L947.458 70.608L947.134 72.876V72.912ZM973.054 69.204H949.366L949.834 65.748H978.346C979.45 65.748 980.326 66.156 980.974 66.972C981.622 67.764 981.874 68.712 981.73 69.816L980.11 81.552H973.954C973.642 81.552 973.378 81.444 973.162 81.228C972.97 80.988 972.898 80.688 972.946 80.328L974.278 70.608C974.326 70.248 974.23 69.924 973.99 69.636C973.75 69.348 973.438 69.204 973.054 69.204ZM978.058 84.72H979.966L979.57 87.564H972.658C972.106 87.564 971.098 87.384 969.634 87.024C968.194 86.688 966.67 86.292 965.062 85.836C963.454 85.404 962.062 85.008 960.886 84.648C959.71 84.312 959.122 84.144 959.122 84.144C959.122 84.144 958.51 84.312 957.286 84.648C956.086 85.008 954.622 85.404 952.894 85.836C951.19 86.292 949.522 86.688 947.89 87.024C946.258 87.384 945.034 87.564 944.218 87.564H937.198L937.594 84.72H939.646C940.222 84.72 941.314 84.444 942.922 83.892C944.554 83.34 946.27 82.716 948.07 82.02C949.87 81.3 951.43 80.664 952.75 80.112C954.07 79.56 954.73 79.284 954.73 79.284L955.738 72.048H965.602L964.522 80.112H966.214C966.214 80.112 966.622 80.352 967.438 80.832C968.278 81.288 969.322 81.816 970.57 82.416C971.818 83.016 973.114 83.544 974.458 84C975.802 84.48 977.002 84.72 978.058 84.72ZM1029.57 54.948L1029.53 55.236C1029.41 55.956 1029.07 56.556 1028.52 57.036C1027.97 57.492 1027.32 57.72 1026.58 57.72H1007.61L1008 54.948H1029.57ZM994.934 82.524L995.474 78.924L995.798 76.728L999.074 54.948H1006.74L1006.31 57.72L1006.17 58.872L1005.91 60.42H1028.74L1028.2 64.056L1019.05 73.632L1025.71 82.488H1022.29C1019.22 82.488 1016.63 81.216 1014.52 78.672L1013.94 79.284C1011.88 81.42 1009.45 82.488 1006.67 82.488H1002.17L1010.49 73.308L1004.98 66.648L1003.18 78.708C1003.01 79.764 1002.48 80.664 1001.59 81.408C1000.71 82.152 999.686 82.524 998.534 82.524H994.934ZM1005.52 63.156L1005.19 65.172H1010.38C1011.55 65.172 1012.54 65.664 1013.33 66.648L1014.95 68.808L1020.03 63.156H1005.52ZM993.89 83.244C994.154 83.34 994.406 83.388 994.646 83.388L1026.65 84.432C1026.43 85.488 1026.03 86.268 1025.43 86.772C1024.83 87.276 1024.12 87.528 1023.3 87.528L991.694 86.52L991.55 86.736C991.262 87.144 990.902 87.396 990.47 87.492C990.038 87.588 989.558 87.624 989.03 87.6C988.934 87.6 988.838 87.6 988.742 87.6H984.098L987.734 63.768H985.178L985.358 62.328C985.43 61.968 985.61 61.668 985.898 61.428C986.186 61.188 986.522 61.068 986.906 61.068H995.438L992.594 81.336C992.546 81.624 992.582 81.888 992.702 82.128C992.822 82.392 992.978 82.608 993.17 82.776C993.386 82.968 993.626 83.124 993.89 83.244ZM990.866 59.124C989.738 58.668 988.934 57.924 988.454 56.892C987.998 55.836 987.974 54.756 988.382 53.652L995.546 56.352L993.962 60.312L990.866 59.124ZM1053.18 56.604L1052.82 58.908L1046.77 67.8H1048.39C1049.42 67.8 1050.14 68.376 1050.55 69.528L1052.89 78.06H1051.05C1048.56 78.06 1046.77 76.668 1045.69 73.884L1045.54 73.38L1043.38 87.564H1034.92L1036.29 78.276H1030.89L1044.03 58.512H1034.6L1034.96 56.46C1035.01 56.244 1035.13 56.052 1035.32 55.884C1035.54 55.74 1035.78 55.668 1036.04 55.668H1040.22L1040.32 55.02C1040.4 54.612 1040.61 54.288 1040.97 54.048C1041.31 53.784 1041.72 53.652 1042.2 53.652H1048.96L1048.64 55.668H1052.24C1052.53 55.668 1052.77 55.764 1052.96 55.956C1053.18 56.148 1053.25 56.364 1053.18 56.604ZM1058.11 87.6C1056.72 87.6 1055.62 87.18 1054.83 86.34C1053.99 85.5 1053.67 84.456 1053.86 83.208L1058.47 53.724H1064.7C1065.25 53.724 1065.7 53.904 1066.06 54.264C1066.42 54.624 1066.58 55.056 1066.53 55.56L1062.28 82.56C1062.21 82.896 1062.3 83.196 1062.54 83.46C1062.75 83.724 1063.06 83.856 1063.47 83.856H1073.55C1074.44 83.856 1075.16 84.216 1075.71 84.936C1075.98 85.32 1076.16 85.752 1076.25 86.232C1076.37 86.712 1076.41 87.168 1076.36 87.6H1058.11Z" fill="white"/>
<path d="M737.575 114.058L741.346 103.203H743.183L738.445 116H737.136L737.575 114.058ZM734.051 103.203L737.786 114.058L738.252 116H736.942L732.214 103.203H734.051ZM764.725 103.203V116H763.028V103.203H764.725ZM790.529 110.981H787.11V109.602H790.529C791.191 109.602 791.728 109.496 792.138 109.285C792.548 109.074 792.847 108.781 793.034 108.406C793.228 108.031 793.324 107.604 793.324 107.123C793.324 106.684 793.228 106.271 793.034 105.884C792.847 105.497 792.548 105.187 792.138 104.952C791.728 104.712 791.191 104.592 790.529 104.592H787.506V116H785.81V103.203H790.529C791.496 103.203 792.313 103.37 792.981 103.704C793.649 104.038 794.156 104.501 794.502 105.093C794.848 105.679 795.021 106.35 795.021 107.105C795.021 107.926 794.848 108.626 794.502 109.206C794.156 109.786 793.649 110.229 792.981 110.533C792.313 110.832 791.496 110.981 790.529 110.981ZM837.63 103.203H841.866C842.827 103.203 843.639 103.35 844.301 103.643C844.969 103.936 845.476 104.369 845.821 104.943C846.173 105.512 846.349 106.212 846.349 107.044C846.349 107.63 846.229 108.166 845.988 108.652C845.754 109.133 845.414 109.543 844.969 109.883C844.529 110.217 844.002 110.466 843.387 110.63L842.912 110.814H838.931L838.913 109.435H841.919C842.528 109.435 843.035 109.329 843.439 109.118C843.844 108.901 844.148 108.611 844.354 108.248C844.559 107.885 844.661 107.483 844.661 107.044C844.661 106.552 844.564 106.121 844.371 105.752C844.178 105.383 843.873 105.099 843.457 104.899C843.047 104.694 842.517 104.592 841.866 104.592H839.326V116H837.63V103.203ZM845.109 116L841.998 110.199L843.765 110.19L846.92 115.895V116H845.109ZM870.422 116.176C869.76 116.176 869.159 116.064 868.62 115.842C868.087 115.613 867.627 115.294 867.24 114.884C866.859 114.474 866.566 113.987 866.361 113.425C866.156 112.862 866.054 112.247 866.054 111.579V111.21C866.054 110.437 866.168 109.748 866.396 109.145C866.625 108.535 866.936 108.02 867.328 107.598C867.721 107.176 868.166 106.856 868.664 106.64C869.162 106.423 869.678 106.314 870.211 106.314C870.891 106.314 871.477 106.432 871.969 106.666C872.467 106.9 872.874 107.229 873.19 107.65C873.507 108.066 873.741 108.559 873.894 109.127C874.046 109.689 874.122 110.305 874.122 110.973V111.702H867.021V110.375H872.496V110.252C872.473 109.83 872.385 109.42 872.232 109.021C872.086 108.623 871.852 108.295 871.529 108.037C871.207 107.779 870.768 107.65 870.211 107.65C869.842 107.65 869.502 107.729 869.191 107.888C868.881 108.04 868.614 108.269 868.392 108.573C868.169 108.878 867.996 109.25 867.873 109.689C867.75 110.129 867.688 110.636 867.688 111.21V111.579C867.688 112.03 867.75 112.455 867.873 112.854C868.002 113.246 868.187 113.592 868.427 113.891C868.673 114.189 868.969 114.424 869.314 114.594C869.666 114.764 870.064 114.849 870.51 114.849C871.084 114.849 871.57 114.731 871.969 114.497C872.367 114.263 872.716 113.949 873.015 113.557L873.999 114.339C873.794 114.649 873.533 114.945 873.217 115.227C872.9 115.508 872.511 115.736 872.048 115.912C871.591 116.088 871.049 116.176 870.422 116.176ZM897.826 114.84C898.213 114.84 898.57 114.761 898.898 114.603C899.227 114.444 899.496 114.228 899.707 113.952C899.918 113.671 900.038 113.352 900.067 112.994H901.614C901.585 113.557 901.395 114.081 901.043 114.567C900.697 115.048 900.243 115.438 899.681 115.736C899.118 116.029 898.5 116.176 897.826 116.176C897.111 116.176 896.487 116.05 895.954 115.798C895.427 115.546 894.987 115.2 894.636 114.761C894.29 114.321 894.029 113.817 893.854 113.249C893.684 112.675 893.599 112.068 893.599 111.43V111.061C893.599 110.422 893.684 109.818 893.854 109.25C894.029 108.676 894.29 108.169 894.636 107.729C894.987 107.29 895.427 106.944 895.954 106.692C896.487 106.44 897.111 106.314 897.826 106.314C898.57 106.314 899.221 106.467 899.777 106.771C900.334 107.07 900.771 107.48 901.087 108.002C901.409 108.518 901.585 109.104 901.614 109.76H900.067C900.038 109.367 899.927 109.013 899.733 108.696C899.546 108.38 899.288 108.128 898.96 107.94C898.638 107.747 898.26 107.65 897.826 107.65C897.328 107.65 896.909 107.75 896.569 107.949C896.235 108.143 895.969 108.406 895.77 108.74C895.576 109.068 895.436 109.435 895.348 109.839C895.266 110.237 895.225 110.645 895.225 111.061V111.43C895.225 111.846 895.266 112.256 895.348 112.66C895.43 113.064 895.567 113.431 895.761 113.759C895.96 114.087 896.227 114.351 896.561 114.55C896.9 114.743 897.322 114.84 897.826 114.84ZM923.068 102.5V116H921.442V102.5H923.068ZM922.682 110.885L922.005 110.858C922.011 110.208 922.107 109.607 922.295 109.057C922.482 108.5 922.746 108.017 923.086 107.606C923.426 107.196 923.83 106.88 924.299 106.657C924.773 106.429 925.298 106.314 925.872 106.314C926.341 106.314 926.763 106.379 927.138 106.508C927.513 106.631 927.832 106.83 928.096 107.105C928.365 107.381 928.57 107.738 928.711 108.178C928.852 108.611 928.922 109.142 928.922 109.769V116H927.287V109.751C927.287 109.253 927.214 108.854 927.067 108.556C926.921 108.251 926.707 108.031 926.426 107.896C926.145 107.756 925.799 107.686 925.389 107.686C924.984 107.686 924.615 107.771 924.281 107.94C923.953 108.11 923.669 108.345 923.429 108.644C923.194 108.942 923.01 109.285 922.875 109.672C922.746 110.053 922.682 110.457 922.682 110.885ZM954.964 114.374V109.479C954.964 109.104 954.888 108.778 954.735 108.503C954.589 108.222 954.366 108.005 954.067 107.853C953.769 107.7 953.399 107.624 952.96 107.624C952.55 107.624 952.189 107.694 951.879 107.835C951.574 107.976 951.334 108.16 951.158 108.389C950.988 108.617 950.903 108.863 950.903 109.127H949.277C949.277 108.787 949.365 108.45 949.541 108.116C949.717 107.782 949.969 107.48 950.297 107.211C950.631 106.936 951.029 106.719 951.492 106.561C951.961 106.396 952.482 106.314 953.057 106.314C953.748 106.314 954.357 106.432 954.885 106.666C955.418 106.9 955.834 107.255 956.133 107.729C956.438 108.198 956.59 108.787 956.59 109.496V113.926C956.59 114.242 956.616 114.579 956.669 114.937C956.728 115.294 956.812 115.602 956.924 115.859V116H955.228C955.146 115.812 955.081 115.563 955.034 115.253C954.987 114.937 954.964 114.644 954.964 114.374ZM955.245 110.234L955.263 111.377H953.619C953.156 111.377 952.743 111.415 952.38 111.491C952.017 111.562 951.712 111.67 951.466 111.816C951.22 111.963 951.032 112.147 950.903 112.37C950.774 112.587 950.71 112.842 950.71 113.135C950.71 113.434 950.777 113.706 950.912 113.952C951.047 114.198 951.249 114.395 951.519 114.541C951.794 114.682 952.131 114.752 952.529 114.752C953.027 114.752 953.467 114.646 953.848 114.436C954.229 114.225 954.53 113.967 954.753 113.662C954.981 113.357 955.104 113.062 955.122 112.774L955.816 113.557C955.775 113.803 955.664 114.075 955.482 114.374C955.301 114.673 955.058 114.96 954.753 115.235C954.454 115.505 954.097 115.73 953.681 115.912C953.271 116.088 952.808 116.176 952.292 116.176C951.647 116.176 951.082 116.05 950.596 115.798C950.115 115.546 949.74 115.209 949.471 114.787C949.207 114.359 949.075 113.882 949.075 113.354C949.075 112.845 949.175 112.396 949.374 112.01C949.573 111.617 949.86 111.292 950.235 111.034C950.61 110.771 951.062 110.571 951.589 110.437C952.116 110.302 952.705 110.234 953.355 110.234H955.245ZM978.773 107.984V116H977.147V106.49H978.729L978.773 107.984ZM981.744 106.438L981.735 107.949C981.601 107.92 981.472 107.902 981.349 107.896C981.231 107.885 981.097 107.879 980.944 107.879C980.569 107.879 980.238 107.938 979.951 108.055C979.664 108.172 979.421 108.336 979.222 108.547C979.022 108.758 978.864 109.01 978.747 109.303C978.636 109.59 978.562 109.906 978.527 110.252L978.07 110.516C978.07 109.941 978.126 109.402 978.237 108.898C978.354 108.395 978.533 107.949 978.773 107.562C979.014 107.17 979.318 106.865 979.688 106.648C980.062 106.426 980.508 106.314 981.023 106.314C981.141 106.314 981.275 106.329 981.428 106.358C981.58 106.382 981.686 106.408 981.744 106.438ZM1007.23 106.49H1008.71V115.798C1008.71 116.636 1008.54 117.351 1008.2 117.942C1007.86 118.534 1007.38 118.982 1006.78 119.287C1006.17 119.598 1005.47 119.753 1004.68 119.753C1004.36 119.753 1003.97 119.7 1003.52 119.595C1003.08 119.495 1002.65 119.322 1002.22 119.076C1001.8 118.836 1001.45 118.511 1001.16 118.101L1002.01 117.134C1002.41 117.614 1002.83 117.948 1003.26 118.136C1003.7 118.323 1004.13 118.417 1004.56 118.417C1005.08 118.417 1005.52 118.32 1005.9 118.127C1006.27 117.934 1006.56 117.646 1006.77 117.266C1006.98 116.891 1007.08 116.428 1007.08 115.877V108.582L1007.23 106.49ZM1000.68 111.351V111.166C1000.68 110.439 1000.77 109.78 1000.94 109.188C1001.12 108.591 1001.36 108.078 1001.69 107.65C1002.01 107.223 1002.41 106.895 1002.87 106.666C1003.34 106.432 1003.86 106.314 1004.44 106.314C1005.04 106.314 1005.56 106.42 1006 106.631C1006.45 106.836 1006.83 107.138 1007.14 107.536C1007.46 107.929 1007.71 108.403 1007.89 108.96C1008.07 109.517 1008.2 110.146 1008.27 110.85V111.658C1008.21 112.355 1008.08 112.982 1007.89 113.539C1007.71 114.096 1007.46 114.57 1007.14 114.963C1006.83 115.355 1006.45 115.657 1006 115.868C1005.55 116.073 1005.02 116.176 1004.42 116.176C1003.85 116.176 1003.34 116.056 1002.87 115.815C1002.42 115.575 1002.02 115.238 1001.7 114.805C1001.37 114.371 1001.12 113.861 1000.94 113.275C1000.77 112.684 1000.68 112.042 1000.68 111.351ZM1002.31 111.166V111.351C1002.31 111.825 1002.36 112.271 1002.45 112.687C1002.55 113.103 1002.7 113.469 1002.9 113.785C1003.1 114.102 1003.37 114.351 1003.68 114.532C1004 114.708 1004.38 114.796 1004.82 114.796C1005.35 114.796 1005.8 114.682 1006.15 114.453C1006.5 114.225 1006.78 113.923 1006.99 113.548C1007.2 113.173 1007.36 112.766 1007.48 112.326V110.208C1007.41 109.886 1007.31 109.575 1007.18 109.276C1007.05 108.972 1006.88 108.702 1006.67 108.468C1006.46 108.228 1006.21 108.037 1005.91 107.896C1005.6 107.756 1005.24 107.686 1004.83 107.686C1004.39 107.686 1004 107.779 1003.68 107.967C1003.37 108.148 1003.1 108.4 1002.9 108.723C1002.7 109.039 1002.55 109.408 1002.45 109.83C1002.36 110.246 1002.31 110.691 1002.31 111.166ZM1033.12 116.176C1032.46 116.176 1031.86 116.064 1031.32 115.842C1030.79 115.613 1030.33 115.294 1029.94 114.884C1029.56 114.474 1029.27 113.987 1029.06 113.425C1028.86 112.862 1028.76 112.247 1028.76 111.579V111.21C1028.76 110.437 1028.87 109.748 1029.1 109.145C1029.33 108.535 1029.64 108.02 1030.03 107.598C1030.42 107.176 1030.87 106.856 1031.37 106.64C1031.87 106.423 1032.38 106.314 1032.91 106.314C1033.59 106.314 1034.18 106.432 1034.67 106.666C1035.17 106.9 1035.58 107.229 1035.89 107.65C1036.21 108.066 1036.44 108.559 1036.6 109.127C1036.75 109.689 1036.83 110.305 1036.83 110.973V111.702H1029.72V110.375H1035.2V110.252C1035.18 109.83 1035.09 109.42 1034.94 109.021C1034.79 108.623 1034.55 108.295 1034.23 108.037C1033.91 107.779 1033.47 107.65 1032.91 107.65C1032.54 107.65 1032.21 107.729 1031.89 107.888C1031.58 108.04 1031.32 108.269 1031.09 108.573C1030.87 108.878 1030.7 109.25 1030.58 109.689C1030.45 110.129 1030.39 110.636 1030.39 111.21V111.579C1030.39 112.03 1030.45 112.455 1030.58 112.854C1030.71 113.246 1030.89 113.592 1031.13 113.891C1031.38 114.189 1031.67 114.424 1032.02 114.594C1032.37 114.764 1032.77 114.849 1033.21 114.849C1033.79 114.849 1034.27 114.731 1034.67 114.497C1035.07 114.263 1035.42 113.949 1035.72 113.557L1036.7 114.339C1036.5 114.649 1036.24 114.945 1035.92 115.227C1035.6 115.508 1035.21 115.736 1034.75 115.912C1034.29 116.088 1033.75 116.176 1033.12 116.176ZM1088.89 109.628V114.312C1088.73 114.547 1088.48 114.811 1088.14 115.104C1087.79 115.391 1087.31 115.643 1086.7 115.859C1086.1 116.07 1085.32 116.176 1084.37 116.176C1083.59 116.176 1082.87 116.041 1082.21 115.771C1081.56 115.496 1081 115.098 1080.52 114.576C1080.04 114.049 1079.67 113.41 1079.41 112.66C1079.15 111.904 1079.02 111.049 1079.02 110.094V109.101C1079.02 108.146 1079.13 107.293 1079.36 106.543C1079.58 105.793 1079.92 105.157 1080.36 104.636C1080.8 104.108 1081.34 103.71 1081.97 103.44C1082.61 103.165 1083.35 103.027 1084.17 103.027C1085.15 103.027 1085.97 103.197 1086.62 103.537C1087.29 103.871 1087.8 104.334 1088.17 104.926C1088.55 105.518 1088.79 106.191 1088.89 106.947H1087.2C1087.12 106.484 1086.97 106.062 1086.74 105.682C1086.52 105.301 1086.2 104.996 1085.78 104.768C1085.36 104.533 1084.83 104.416 1084.17 104.416C1083.58 104.416 1083.07 104.524 1082.63 104.741C1082.2 104.958 1081.84 105.269 1081.56 105.673C1081.28 106.077 1081.07 106.566 1080.93 107.141C1080.79 107.715 1080.73 108.362 1080.73 109.083V110.094C1080.73 110.832 1080.81 111.491 1080.98 112.071C1081.16 112.651 1081.41 113.146 1081.73 113.557C1082.05 113.961 1082.43 114.269 1082.88 114.479C1083.33 114.69 1083.83 114.796 1084.37 114.796C1084.98 114.796 1085.47 114.746 1085.84 114.646C1086.22 114.541 1086.51 114.418 1086.72 114.277C1086.93 114.131 1087.09 113.993 1087.2 113.864V110.999H1084.24V109.628H1088.89ZM1111.22 106.49V116H1109.59V106.49H1111.22ZM1109.47 103.968C1109.47 103.704 1109.55 103.481 1109.7 103.3C1109.87 103.118 1110.11 103.027 1110.42 103.027C1110.74 103.027 1110.97 103.118 1111.14 103.3C1111.31 103.481 1111.39 103.704 1111.39 103.968C1111.39 104.22 1111.31 104.437 1111.14 104.618C1110.97 104.794 1110.74 104.882 1110.42 104.882C1110.11 104.882 1109.87 104.794 1109.7 104.618C1109.55 104.437 1109.47 104.22 1109.47 103.968ZM1134.26 116H1132.63V105.488C1132.63 104.803 1132.76 104.226 1133 103.757C1133.26 103.282 1133.62 102.925 1134.08 102.685C1134.55 102.438 1135.11 102.315 1135.75 102.315C1135.94 102.315 1136.13 102.327 1136.32 102.351C1136.51 102.374 1136.7 102.409 1136.88 102.456L1136.79 103.783C1136.67 103.754 1136.53 103.733 1136.37 103.722C1136.22 103.71 1136.07 103.704 1135.91 103.704C1135.57 103.704 1135.27 103.774 1135.02 103.915C1134.77 104.05 1134.58 104.249 1134.45 104.513C1134.33 104.776 1134.26 105.102 1134.26 105.488V116ZM1136.28 106.49V107.738H1131.13V106.49H1136.28ZM1160.07 106.49V107.738H1154.93V106.49H1160.07ZM1156.67 104.179H1158.3V113.645C1158.3 113.967 1158.35 114.21 1158.45 114.374C1158.55 114.538 1158.68 114.646 1158.83 114.699C1158.99 114.752 1159.16 114.778 1159.34 114.778C1159.48 114.778 1159.62 114.767 1159.77 114.743C1159.92 114.714 1160.03 114.69 1160.11 114.673L1160.12 116C1159.99 116.041 1159.82 116.079 1159.61 116.114C1159.4 116.155 1159.15 116.176 1158.86 116.176C1158.46 116.176 1158.1 116.097 1157.76 115.938C1157.43 115.78 1157.16 115.517 1156.96 115.147C1156.77 114.772 1156.67 114.269 1156.67 113.636V104.179ZM1185.52 113.478C1185.52 113.243 1185.47 113.026 1185.36 112.827C1185.26 112.622 1185.05 112.438 1184.74 112.273C1184.43 112.104 1183.96 111.957 1183.33 111.834C1182.8 111.723 1182.33 111.591 1181.9 111.438C1181.48 111.286 1181.12 111.102 1180.82 110.885C1180.52 110.668 1180.3 110.413 1180.14 110.12C1179.98 109.827 1179.9 109.484 1179.9 109.092C1179.9 108.717 1179.98 108.362 1180.15 108.028C1180.32 107.694 1180.56 107.398 1180.86 107.141C1181.17 106.883 1181.54 106.681 1181.98 106.534C1182.41 106.388 1182.89 106.314 1183.43 106.314C1184.19 106.314 1184.84 106.449 1185.38 106.719C1185.92 106.988 1186.33 107.349 1186.62 107.8C1186.9 108.245 1187.05 108.74 1187.05 109.285H1185.42C1185.42 109.021 1185.34 108.767 1185.18 108.521C1185.03 108.269 1184.81 108.061 1184.51 107.896C1184.21 107.732 1183.85 107.65 1183.43 107.65C1182.98 107.65 1182.61 107.721 1182.33 107.861C1182.05 107.996 1181.85 108.169 1181.72 108.38C1181.6 108.591 1181.54 108.813 1181.54 109.048C1181.54 109.224 1181.57 109.382 1181.62 109.522C1181.69 109.657 1181.8 109.783 1181.96 109.9C1182.12 110.012 1182.34 110.117 1182.63 110.217C1182.91 110.316 1183.28 110.416 1183.73 110.516C1184.5 110.691 1185.15 110.902 1185.65 111.148C1186.15 111.395 1186.53 111.696 1186.78 112.054C1187.02 112.411 1187.14 112.845 1187.14 113.354C1187.14 113.771 1187.06 114.151 1186.88 114.497C1186.71 114.843 1186.46 115.142 1186.13 115.394C1185.81 115.64 1185.42 115.833 1184.97 115.974C1184.53 116.108 1184.03 116.176 1183.47 116.176C1182.63 116.176 1181.92 116.026 1181.34 115.728C1180.76 115.429 1180.32 115.042 1180.03 114.567C1179.73 114.093 1179.58 113.592 1179.58 113.064H1181.21C1181.24 113.51 1181.36 113.864 1181.6 114.128C1181.83 114.386 1182.12 114.57 1182.46 114.682C1182.8 114.787 1183.14 114.84 1183.47 114.84C1183.92 114.84 1184.29 114.781 1184.59 114.664C1184.89 114.547 1185.12 114.386 1185.28 114.181C1185.44 113.976 1185.52 113.741 1185.52 113.478Z" fill="white" fill-opacity="0.5"/>
<defs>
<radialGradient id="paint0_radial_253_580" cx="0" cy="0" r="1" gradientUnits="userSpaceOnUse" gradientTransform="translate(995.578 -3.44573e-05) scale(1153.57 227.142)">
<stop stop-color="#30EC59"/>
<stop offset="0.25" stop-color="#30EC59" stop-opacity="0.485"/>
<stop offset="0.5" stop-color="#30EC59" stop-opacity="0.219489"/>
<stop offset="0.75" stop-color="#30EC59" stop-opacity="0.0888931"/>
<stop offset="1" stop-color="#30EC59" stop-opacity="0"/>
</radialGradient>
</defs>
</svg>
