<svg width="54" height="84" viewBox="0 0 54 84" fill="none" xmlns="http://www.w3.org/2000/svg">
<path d="M53.8898 72.8V83.2H0.289844V74.7L31.6898 42.7C35.0232 39.3667 37.3898 36.3667 38.7898 33.7C40.1898 31.0333 40.8898 28.1667 40.8898 25.1C40.8898 20.7 39.5898 17.2 36.9898 14.6C34.4565 12 30.9898 10.7 26.5898 10.7C22.5232 10.7 19.1232 11.7667 16.3898 13.9C13.6565 15.9667 11.6898 18.9333 10.4898 22.8L1.18984 17.3C2.98984 11.7667 6.08984 7.56666 10.4898 4.69999C14.8898 1.76666 20.3898 0.299997 26.9898 0.299997C32.1232 0.299997 36.6898 1.36666 40.6898 3.5C44.7565 5.56667 47.8898 8.5 50.0898 12.3C52.3565 16.0333 53.4898 20.2667 53.4898 25C53.4898 29.5333 52.3565 33.7 50.0898 37.5C47.8232 41.2333 44.1232 45.7333 38.9898 51L17.8898 72.8H53.8898Z" fill="url(#paint0_linear_253_541)"/>
<defs>
<linearGradient id="paint0_linear_253_541" x1="27" y1="7.5" x2="27" y2="108" gradientUnits="userSpaceOnUse">
<stop stop-color="white"/>
<stop offset="0.805" stop-color="white" stop-opacity="0"/>
</linearGradient>
</defs>
</svg>
