<svg width="1920" height="308" viewBox="0 0 1920 308" fill="none" xmlns="http://www.w3.org/2000/svg">
<rect width="1920" height="308" fill="url(#paint0_radial_253_583)"/>
<path d="M893.702 84.288H905.654C906.494 84.288 907.178 84.612 907.706 85.26C908.258 85.908 908.486 86.688 908.39 87.6H888.122C887.042 87.6 886.202 87.24 885.602 86.52C884.954 85.752 884.714 84.828 884.882 83.748L887.15 67.188H894.386L892.298 82.488C892.226 82.992 892.322 83.424 892.586 83.784C892.85 84.12 893.222 84.288 893.702 84.288ZM868.142 83.964C868.478 83.652 868.85 83.472 869.258 83.424L882.362 82.272L881.894 84.936C881.846 85.272 881.678 85.56 881.39 85.8C881.174 86.04 880.91 86.184 880.598 86.232L867.17 87.348L867.602 85.08C867.674 84.648 867.854 84.276 868.142 83.964ZM886.466 59.052L877.07 74.172C877.046 74.22 877.022 74.268 876.998 74.316C876.974 74.34 876.95 74.364 876.926 74.388C876.902 74.412 876.89 74.448 876.89 74.496C876.89 74.616 877.01 74.664 877.25 74.64L882.83 74.1C883.094 74.1 883.31 74.172 883.478 74.316C883.574 74.508 883.598 74.76 883.55 75.072L882.794 78.348L869.51 79.824C869.102 79.848 868.814 79.704 868.646 79.392C868.454 79.056 868.454 78.708 868.646 78.348L875.81 67.476H870.086C869.654 67.476 869.354 67.272 869.186 66.864C868.994 66.528 869.006 66.156 869.222 65.748L875.702 54.48C875.822 54.24 876.002 54.096 876.242 54.048C876.506 53.976 876.83 53.94 877.214 53.94H881.462L875.774 64.056C875.486 64.536 875.582 64.776 876.062 64.776H877.358L880.346 59.664C880.682 59.256 881.042 59.052 881.426 59.052H886.466ZM906.266 70.212H895.142L895.538 67.188H901.55C902.03 67.188 902.474 67.008 902.882 66.648C903.266 66.288 903.506 65.856 903.602 65.352L904.79 56.64H888.266L888.482 55.092C888.554 54.66 888.734 54.312 889.022 54.048C889.334 53.784 889.682 53.652 890.066 53.652H912.422L910.73 66.288C910.562 67.368 910.046 68.292 909.182 69.06C908.318 69.828 907.346 70.212 906.266 70.212ZM957.991 55.884L959.359 62.328H952.015L950.899 57.144C950.707 56.736 950.395 56.532 949.963 56.532H928.291C927.859 56.532 927.487 56.76 927.175 57.216L924.871 62.328H917.239L920.155 55.956C920.587 55.284 921.091 54.732 921.667 54.3C922.267 53.868 922.939 53.652 923.683 53.652H955.075C955.819 53.652 956.419 53.856 956.875 54.264C957.331 54.648 957.703 55.188 957.991 55.884ZM957.667 66.324L947.479 72.552H937.147L946.939 66.324H920.335C919.591 66.324 918.979 66.048 918.499 65.496C918.019 64.92 917.827 64.236 917.923 63.444H934.843L934.699 58.152H938.263C939.295 58.152 940.171 58.524 940.891 59.268C941.611 59.988 941.995 60.9 942.043 62.004L942.079 63.444H958.063L957.667 66.324ZM917.203 73.38L913.855 87.6H916.771C919.795 87.6 921.619 85.836 922.243 82.308L924.043 73.38H917.203ZM932.935 84C932.695 83.76 932.611 83.448 932.683 83.064L933.835 74.46C933.859 74.172 933.787 73.92 933.619 73.704C933.451 73.488 933.223 73.38 932.935 73.38H926.743L925.339 83.64C925.171 84.744 925.411 85.68 926.059 86.448C926.707 87.216 927.559 87.6 928.615 87.6H946.507C946.555 87.192 946.543 86.76 946.471 86.304C946.399 85.872 946.243 85.512 946.003 85.224C945.523 84.648 944.899 84.36 944.131 84.36H933.799C933.463 84.36 933.175 84.24 932.935 84ZM939.307 73.38H937.867L937.687 82.596H944.563L944.599 78.636C944.599 77.292 944.107 76.08 943.123 75C942.067 73.92 940.795 73.38 939.307 73.38ZM948.775 73.38L948.271 87.6H955.219L955.579 76.98C955.699 74.652 954.619 73.464 952.339 73.416L948.775 73.38ZM997.296 56.172H1006.15L1002.52 83.604C1002.35 84.708 1001.86 85.644 1001.04 86.412C1000.2 87.204 999.252 87.6 998.196 87.6H992.796L993.192 84.72H994.236C994.596 84.72 994.908 84.588 995.172 84.324C995.46 84.06 995.628 83.748 995.676 83.388L998.916 59.052H996.72L992.004 82.488C991.668 84 990.948 85.224 989.844 86.16C988.74 87.12 987.468 87.6 986.028 87.6H984.084L989.88 59.052H988.944C988.632 59.052 988.38 58.932 988.188 58.692C987.996 58.428 987.912 58.128 987.936 57.792L988.152 56.172H990.42L990.96 53.652H997.836L997.296 56.172ZM966.876 62.04C966.204 62.04 965.664 61.776 965.256 61.248C964.848 60.744 964.692 60.12 964.788 59.376L965.544 53.868H972.636L972.312 56.46L972.204 57.252L972.024 58.548C972 58.788 972.06 58.992 972.204 59.16C972.372 59.352 972.576 59.448 972.816 59.448H978.756C979.02 59.448 979.248 59.352 979.44 59.16C979.656 58.992 979.776 58.788 979.8 58.548L980.088 56.46H973.032L973.356 53.868H987.54L986.82 59.376C986.724 60.12 986.4 60.744 985.848 61.248C985.296 61.776 984.708 62.04 984.084 62.04H966.876ZM976.236 83.064H977.892L983.472 87.6H977.46C976.164 87.6 974.976 87.168 973.896 86.304L972.42 85.116L969.612 86.988C968.988 87.396 968.316 87.6 967.596 87.6H960.684L969.144 81.984L970.8 69.6C970.872 69.048 971.1 68.604 971.484 68.268C971.868 67.908 972.324 67.728 972.852 67.728H978.288L976.236 83.064ZM970.26 63.048L969.756 66.792L969.684 67.188L967.668 82.524H961.296L963.528 65.712C963.624 64.968 963.948 64.344 964.5 63.84C965.028 63.312 965.628 63.048 966.3 63.048H970.26ZM984.3 63.048C984.972 63.048 985.512 63.312 985.92 63.84C986.328 64.344 986.484 64.968 986.388 65.712L984.156 82.524H977.784L979.872 66.792C979.896 66.552 979.836 66.348 979.692 66.18C979.524 66.012 979.32 65.928 979.08 65.928H970.872L971.268 63.048H984.3ZM1047.51 61.644H1052.19L1052.04 62.76C1051.97 63.216 1051.77 63.6 1051.43 63.912C1051.1 64.2 1050.71 64.344 1050.28 64.344H1010.03L1010.18 63.264C1010.25 62.784 1010.45 62.4 1010.79 62.112C1011.12 61.8 1011.51 61.644 1011.94 61.644H1015.11L1014.71 58.08H1018.89C1019.75 58.08 1020.5 58.38 1021.12 58.98C1021.77 59.556 1022.15 60.312 1022.27 61.248L1022.34 61.644H1040.31L1040.7 60.456C1041.4 58.872 1042.48 58.08 1043.94 58.08H1048.7L1047.51 61.644ZM1052.84 54.804L1052.69 55.668C1052.6 56.1 1052.38 56.46 1052.04 56.748C1051.73 57.036 1051.36 57.18 1050.93 57.18H1011.22L1011.36 56.352C1011.44 55.896 1011.64 55.524 1011.98 55.236C1012.31 54.948 1012.7 54.804 1013.13 54.804H1028.5L1028.64 53.616H1034.94C1035.26 53.616 1035.51 53.736 1035.7 53.976C1035.89 54.216 1035.98 54.492 1035.95 54.804H1052.84ZM1032.53 80.148L1032.32 81.624H1049.49L1049.42 82.236C1049.32 82.812 1049.06 83.304 1048.62 83.712C1048.19 84.12 1047.7 84.324 1047.15 84.324H1031.96L1031.63 86.808C1031.58 87.048 1031.48 87.24 1031.31 87.384C1031.16 87.528 1030.98 87.6 1030.77 87.6H1024.07L1024.5 84.324H1007.33L1007.44 83.496C1007.54 82.968 1007.78 82.524 1008.16 82.164C1008.57 81.804 1009.01 81.624 1009.49 81.624H1024.86L1025.08 80.148H1012.88C1011.94 80.148 1011.22 79.776 1010.72 79.032C1010.16 78.312 1009.96 77.46 1010.1 76.476L1011.54 65.82H1018.71L1018.35 68.52L1018.31 68.664L1018.24 69.42V69.456L1017.99 71.184H1042.04L1042.4 68.52H1019.5L1019.86 65.82H1050.21L1048.77 76.476C1048.6 77.46 1048.13 78.312 1047.36 79.032C1046.55 79.776 1045.67 80.148 1044.74 80.148H1032.53ZM1018.17 77.16H1040.27C1040.58 77.16 1040.84 77.052 1041.03 76.836C1041.24 76.62 1041.36 76.356 1041.39 76.044L1041.68 73.884H1017.63L1017.34 76.044C1017.27 76.356 1017.32 76.62 1017.48 76.836C1017.63 77.052 1017.86 77.16 1018.17 77.16Z" fill="white"/>
<path d="M713.634 111.931H715.321C715.233 112.739 715.002 113.463 714.627 114.102C714.252 114.74 713.722 115.247 713.036 115.622C712.351 115.991 711.495 116.176 710.47 116.176C709.72 116.176 709.037 116.035 708.422 115.754C707.812 115.473 707.288 115.074 706.849 114.559C706.409 114.037 706.069 113.413 705.829 112.687C705.595 111.954 705.478 111.14 705.478 110.243V108.969C705.478 108.072 705.595 107.261 705.829 106.534C706.069 105.802 706.412 105.175 706.857 104.653C707.309 104.132 707.851 103.73 708.483 103.449C709.116 103.168 709.828 103.027 710.619 103.027C711.586 103.027 712.403 103.209 713.071 103.572C713.739 103.936 714.258 104.439 714.627 105.084C715.002 105.723 715.233 106.464 715.321 107.308H713.634C713.552 106.71 713.399 106.197 713.177 105.77C712.954 105.336 712.638 105.002 712.228 104.768C711.817 104.533 711.281 104.416 710.619 104.416C710.051 104.416 709.55 104.524 709.116 104.741C708.688 104.958 708.328 105.266 708.035 105.664C707.748 106.062 707.531 106.54 707.385 107.097C707.238 107.653 707.165 108.271 707.165 108.951V110.243C707.165 110.87 707.229 111.459 707.358 112.01C707.493 112.561 707.695 113.044 707.965 113.46C708.234 113.876 708.577 114.204 708.993 114.444C709.409 114.679 709.901 114.796 710.47 114.796C711.19 114.796 711.765 114.682 712.192 114.453C712.62 114.225 712.942 113.896 713.159 113.469C713.382 113.041 713.54 112.528 713.634 111.931ZM734.956 111.351V111.148C734.956 110.463 735.056 109.827 735.255 109.241C735.454 108.649 735.741 108.137 736.116 107.703C736.491 107.264 736.945 106.924 737.479 106.684C738.012 106.438 738.609 106.314 739.271 106.314C739.939 106.314 740.54 106.438 741.073 106.684C741.612 106.924 742.069 107.264 742.444 107.703C742.825 108.137 743.115 108.649 743.314 109.241C743.514 109.827 743.613 110.463 743.613 111.148V111.351C743.613 112.036 743.514 112.672 743.314 113.258C743.115 113.844 742.825 114.356 742.444 114.796C742.069 115.229 741.615 115.569 741.082 115.815C740.555 116.056 739.957 116.176 739.289 116.176C738.621 116.176 738.021 116.056 737.487 115.815C736.954 115.569 736.497 115.229 736.116 114.796C735.741 114.356 735.454 113.844 735.255 113.258C735.056 112.672 734.956 112.036 734.956 111.351ZM736.582 111.148V111.351C736.582 111.825 736.638 112.273 736.749 112.695C736.86 113.111 737.027 113.48 737.25 113.803C737.479 114.125 737.763 114.38 738.103 114.567C738.442 114.749 738.838 114.84 739.289 114.84C739.734 114.84 740.124 114.749 740.458 114.567C740.798 114.38 741.079 114.125 741.302 113.803C741.524 113.48 741.691 113.111 741.803 112.695C741.92 112.273 741.979 111.825 741.979 111.351V111.148C741.979 110.68 741.92 110.237 741.803 109.821C741.691 109.399 741.521 109.027 741.293 108.705C741.07 108.377 740.789 108.119 740.449 107.932C740.115 107.744 739.723 107.65 739.271 107.65C738.826 107.65 738.434 107.744 738.094 107.932C737.76 108.119 737.479 108.377 737.25 108.705C737.027 109.027 736.86 109.399 736.749 109.821C736.638 110.237 736.582 110.68 736.582 111.148ZM765.27 108.38V116H763.635V106.49H765.182L765.27 108.38ZM764.936 110.885L764.18 110.858C764.186 110.208 764.271 109.607 764.435 109.057C764.599 108.5 764.842 108.017 765.164 107.606C765.486 107.196 765.888 106.88 766.368 106.657C766.849 106.429 767.405 106.314 768.038 106.314C768.483 106.314 768.894 106.379 769.269 106.508C769.644 106.631 769.969 106.827 770.244 107.097C770.52 107.366 770.733 107.712 770.886 108.134C771.038 108.556 771.114 109.065 771.114 109.663V116H769.488V109.742C769.488 109.244 769.403 108.846 769.233 108.547C769.069 108.248 768.835 108.031 768.53 107.896C768.226 107.756 767.868 107.686 767.458 107.686C766.978 107.686 766.576 107.771 766.254 107.94C765.932 108.11 765.674 108.345 765.48 108.644C765.287 108.942 765.146 109.285 765.059 109.672C764.977 110.053 764.936 110.457 764.936 110.885ZM771.097 109.988L770.007 110.322C770.013 109.801 770.098 109.3 770.262 108.819C770.432 108.339 770.675 107.911 770.991 107.536C771.313 107.161 771.709 106.865 772.178 106.648C772.646 106.426 773.183 106.314 773.786 106.314C774.296 106.314 774.747 106.382 775.14 106.517C775.538 106.651 775.872 106.859 776.142 107.141C776.417 107.416 776.625 107.771 776.766 108.204C776.906 108.638 776.977 109.153 776.977 109.751V116H775.342V109.733C775.342 109.2 775.257 108.787 775.087 108.494C774.923 108.195 774.688 107.987 774.384 107.87C774.085 107.747 773.728 107.686 773.312 107.686C772.954 107.686 772.638 107.747 772.362 107.87C772.087 107.993 771.855 108.163 771.668 108.38C771.48 108.591 771.337 108.834 771.237 109.109C771.144 109.385 771.097 109.678 771.097 109.988ZM799.055 108.38V116H797.42V106.49H798.967L799.055 108.38ZM798.721 110.885L797.965 110.858C797.971 110.208 798.056 109.607 798.22 109.057C798.384 108.5 798.627 108.017 798.949 107.606C799.271 107.196 799.673 106.88 800.153 106.657C800.634 106.429 801.19 106.314 801.823 106.314C802.269 106.314 802.679 106.379 803.054 106.508C803.429 106.631 803.754 106.827 804.029 107.097C804.305 107.366 804.519 107.712 804.671 108.134C804.823 108.556 804.899 109.065 804.899 109.663V116H803.273V109.742C803.273 109.244 803.188 108.846 803.019 108.547C802.854 108.248 802.62 108.031 802.315 107.896C802.011 107.756 801.653 107.686 801.243 107.686C800.763 107.686 800.361 107.771 800.039 107.94C799.717 108.11 799.459 108.345 799.266 108.644C799.072 108.942 798.932 109.285 798.844 109.672C798.762 110.053 798.721 110.457 798.721 110.885ZM804.882 109.988L803.792 110.322C803.798 109.801 803.883 109.3 804.047 108.819C804.217 108.339 804.46 107.911 804.776 107.536C805.099 107.161 805.494 106.865 805.963 106.648C806.432 106.426 806.968 106.314 807.571 106.314C808.081 106.314 808.532 106.382 808.925 106.517C809.323 106.651 809.657 106.859 809.927 107.141C810.202 107.416 810.41 107.771 810.551 108.204C810.691 108.638 810.762 109.153 810.762 109.751V116H809.127V109.733C809.127 109.2 809.042 108.787 808.872 108.494C808.708 108.195 808.474 107.987 808.169 107.87C807.87 107.747 807.513 107.686 807.097 107.686C806.739 107.686 806.423 107.747 806.147 107.87C805.872 107.993 805.641 108.163 805.453 108.38C805.266 108.591 805.122 108.834 805.022 109.109C804.929 109.385 804.882 109.678 804.882 109.988ZM835.169 116.176C834.507 116.176 833.906 116.064 833.367 115.842C832.834 115.613 832.374 115.294 831.987 114.884C831.606 114.474 831.313 113.987 831.108 113.425C830.903 112.862 830.801 112.247 830.801 111.579V111.21C830.801 110.437 830.915 109.748 831.144 109.145C831.372 108.535 831.683 108.02 832.075 107.598C832.468 107.176 832.913 106.856 833.411 106.64C833.909 106.423 834.425 106.314 834.958 106.314C835.638 106.314 836.224 106.432 836.716 106.666C837.214 106.9 837.621 107.229 837.938 107.65C838.254 108.066 838.488 108.559 838.641 109.127C838.793 109.689 838.869 110.305 838.869 110.973V111.702H831.768V110.375H837.243V110.252C837.22 109.83 837.132 109.42 836.979 109.021C836.833 108.623 836.599 108.295 836.276 108.037C835.954 107.779 835.515 107.65 834.958 107.65C834.589 107.65 834.249 107.729 833.938 107.888C833.628 108.04 833.361 108.269 833.139 108.573C832.916 108.878 832.743 109.25 832.62 109.689C832.497 110.129 832.436 110.636 832.436 111.21V111.579C832.436 112.03 832.497 112.455 832.62 112.854C832.749 113.246 832.934 113.592 833.174 113.891C833.42 114.189 833.716 114.424 834.062 114.594C834.413 114.764 834.812 114.849 835.257 114.849C835.831 114.849 836.317 114.731 836.716 114.497C837.114 114.263 837.463 113.949 837.762 113.557L838.746 114.339C838.541 114.649 838.28 114.945 837.964 115.227C837.647 115.508 837.258 115.736 836.795 115.912C836.338 116.088 835.796 116.176 835.169 116.176ZM860.385 108.38V116H858.75V106.49H860.297L860.385 108.38ZM860.051 110.885L859.295 110.858C859.301 110.208 859.386 109.607 859.55 109.057C859.714 108.5 859.957 108.017 860.279 107.606C860.602 107.196 861.003 106.88 861.483 106.657C861.964 106.429 862.521 106.314 863.153 106.314C863.599 106.314 864.009 106.379 864.384 106.508C864.759 106.631 865.084 106.827 865.359 107.097C865.635 107.366 865.849 107.712 866.001 108.134C866.153 108.556 866.229 109.065 866.229 109.663V116H864.604V109.742C864.604 109.244 864.519 108.846 864.349 108.547C864.185 108.248 863.95 108.031 863.646 107.896C863.341 107.756 862.983 107.686 862.573 107.686C862.093 107.686 861.691 107.771 861.369 107.94C861.047 108.11 860.789 108.345 860.596 108.644C860.402 108.942 860.262 109.285 860.174 109.672C860.092 110.053 860.051 110.457 860.051 110.885ZM866.212 109.988L865.122 110.322C865.128 109.801 865.213 109.3 865.377 108.819C865.547 108.339 865.79 107.911 866.106 107.536C866.429 107.161 866.824 106.865 867.293 106.648C867.762 106.426 868.298 106.314 868.901 106.314C869.411 106.314 869.862 106.382 870.255 106.517C870.653 106.651 870.987 106.859 871.257 107.141C871.532 107.416 871.74 107.771 871.881 108.204C872.021 108.638 872.092 109.153 872.092 109.751V116H870.457V109.733C870.457 109.2 870.372 108.787 870.202 108.494C870.038 108.195 869.804 107.987 869.499 107.87C869.2 107.747 868.843 107.686 868.427 107.686C868.069 107.686 867.753 107.747 867.478 107.87C867.202 107.993 866.971 108.163 866.783 108.38C866.596 108.591 866.452 108.834 866.353 109.109C866.259 109.385 866.212 109.678 866.212 109.988ZM892.122 111.351V111.148C892.122 110.463 892.222 109.827 892.421 109.241C892.62 108.649 892.907 108.137 893.282 107.703C893.657 107.264 894.111 106.924 894.645 106.684C895.178 106.438 895.775 106.314 896.438 106.314C897.105 106.314 897.706 106.438 898.239 106.684C898.778 106.924 899.235 107.264 899.61 107.703C899.991 108.137 900.281 108.649 900.48 109.241C900.68 109.827 900.779 110.463 900.779 111.148V111.351C900.779 112.036 900.68 112.672 900.48 113.258C900.281 113.844 899.991 114.356 899.61 114.796C899.235 115.229 898.781 115.569 898.248 115.815C897.721 116.056 897.123 116.176 896.455 116.176C895.787 116.176 895.187 116.056 894.653 115.815C894.12 115.569 893.663 115.229 893.282 114.796C892.907 114.356 892.62 113.844 892.421 113.258C892.222 112.672 892.122 112.036 892.122 111.351ZM893.748 111.148V111.351C893.748 111.825 893.804 112.273 893.915 112.695C894.026 113.111 894.193 113.48 894.416 113.803C894.645 114.125 894.929 114.38 895.269 114.567C895.608 114.749 896.004 114.84 896.455 114.84C896.9 114.84 897.29 114.749 897.624 114.567C897.964 114.38 898.245 114.125 898.468 113.803C898.69 113.48 898.857 113.111 898.969 112.695C899.086 112.273 899.145 111.825 899.145 111.351V111.148C899.145 110.68 899.086 110.237 898.969 109.821C898.857 109.399 898.688 109.027 898.459 108.705C898.236 108.377 897.955 108.119 897.615 107.932C897.281 107.744 896.889 107.65 896.438 107.65C895.992 107.65 895.6 107.744 895.26 107.932C894.926 108.119 894.645 108.377 894.416 108.705C894.193 109.027 894.026 109.399 893.915 109.821C893.804 110.237 893.748 110.68 893.748 111.148ZM922.444 107.984V116H920.818V106.49H922.4L922.444 107.984ZM925.415 106.438L925.406 107.949C925.271 107.92 925.143 107.902 925.02 107.896C924.902 107.885 924.768 107.879 924.615 107.879C924.24 107.879 923.909 107.938 923.622 108.055C923.335 108.172 923.092 108.336 922.893 108.547C922.693 108.758 922.535 109.01 922.418 109.303C922.307 109.59 922.233 109.906 922.198 110.252L921.741 110.516C921.741 109.941 921.797 109.402 921.908 108.898C922.025 108.395 922.204 107.949 922.444 107.562C922.685 107.17 922.989 106.865 923.358 106.648C923.733 106.426 924.179 106.314 924.694 106.314C924.812 106.314 924.946 106.329 925.099 106.358C925.251 106.382 925.356 106.408 925.415 106.438ZM950.174 114.374V109.479C950.174 109.104 950.098 108.778 949.945 108.503C949.799 108.222 949.576 108.005 949.277 107.853C948.979 107.7 948.609 107.624 948.17 107.624C947.76 107.624 947.399 107.694 947.089 107.835C946.784 107.976 946.544 108.16 946.368 108.389C946.198 108.617 946.113 108.863 946.113 109.127H944.487C944.487 108.787 944.575 108.45 944.751 108.116C944.927 107.782 945.179 107.48 945.507 107.211C945.841 106.936 946.239 106.719 946.702 106.561C947.171 106.396 947.692 106.314 948.267 106.314C948.958 106.314 949.567 106.432 950.095 106.666C950.628 106.9 951.044 107.255 951.343 107.729C951.647 108.198 951.8 108.787 951.8 109.496V113.926C951.8 114.242 951.826 114.579 951.879 114.937C951.938 115.294 952.022 115.602 952.134 115.859V116H950.438C950.355 115.812 950.291 115.563 950.244 115.253C950.197 114.937 950.174 114.644 950.174 114.374ZM950.455 110.234L950.473 111.377H948.829C948.366 111.377 947.953 111.415 947.59 111.491C947.227 111.562 946.922 111.67 946.676 111.816C946.43 111.963 946.242 112.147 946.113 112.37C945.984 112.587 945.92 112.842 945.92 113.135C945.92 113.434 945.987 113.706 946.122 113.952C946.257 114.198 946.459 114.395 946.729 114.541C947.004 114.682 947.341 114.752 947.739 114.752C948.237 114.752 948.677 114.646 949.058 114.436C949.438 114.225 949.74 113.967 949.963 113.662C950.191 113.357 950.314 113.062 950.332 112.774L951.026 113.557C950.985 113.803 950.874 114.075 950.692 114.374C950.511 114.673 950.268 114.96 949.963 115.235C949.664 115.505 949.307 115.73 948.891 115.912C948.48 116.088 948.018 116.176 947.502 116.176C946.857 116.176 946.292 116.05 945.806 115.798C945.325 115.546 944.95 115.209 944.681 114.787C944.417 114.359 944.285 113.882 944.285 113.354C944.285 112.845 944.385 112.396 944.584 112.01C944.783 111.617 945.07 111.292 945.445 111.034C945.82 110.771 946.271 110.571 946.799 110.437C947.326 110.302 947.915 110.234 948.565 110.234H950.455ZM976.339 106.49V107.738H971.197V106.49H976.339ZM972.938 104.179H974.563V113.645C974.563 113.967 974.613 114.21 974.713 114.374C974.812 114.538 974.941 114.646 975.1 114.699C975.258 114.752 975.428 114.778 975.609 114.778C975.744 114.778 975.885 114.767 976.031 114.743C976.184 114.714 976.298 114.69 976.374 114.673L976.383 116C976.254 116.041 976.084 116.079 975.873 116.114C975.668 116.155 975.419 116.176 975.126 116.176C974.728 116.176 974.361 116.097 974.027 115.938C973.693 115.78 973.427 115.517 973.228 115.147C973.034 114.772 972.938 114.269 972.938 113.636V104.179ZM998.013 106.49V116H996.378V106.49H998.013ZM996.255 103.968C996.255 103.704 996.334 103.481 996.492 103.3C996.656 103.118 996.896 103.027 997.213 103.027C997.523 103.027 997.761 103.118 997.925 103.3C998.095 103.481 998.18 103.704 998.18 103.968C998.18 104.22 998.095 104.437 997.925 104.618C997.761 104.794 997.523 104.882 997.213 104.882C996.896 104.882 996.656 104.794 996.492 104.618C996.334 104.437 996.255 104.22 996.255 103.968ZM1021.51 114.532L1024.12 106.49H1025.78L1022.36 116H1021.27L1021.51 114.532ZM1019.34 106.49L1022.02 114.576L1022.21 116H1021.12L1017.67 106.49H1019.34ZM1049.17 116.176C1048.5 116.176 1047.9 116.064 1047.36 115.842C1046.83 115.613 1046.37 115.294 1045.98 114.884C1045.6 114.474 1045.31 113.987 1045.1 113.425C1044.9 112.862 1044.8 112.247 1044.8 111.579V111.21C1044.8 110.437 1044.91 109.748 1045.14 109.145C1045.37 108.535 1045.68 108.02 1046.07 107.598C1046.46 107.176 1046.91 106.856 1047.41 106.64C1047.91 106.423 1048.42 106.314 1048.95 106.314C1049.63 106.314 1050.22 106.432 1050.71 106.666C1051.21 106.9 1051.62 107.229 1051.93 107.65C1052.25 108.066 1052.48 108.559 1052.64 109.127C1052.79 109.689 1052.87 110.305 1052.87 110.973V111.702H1045.76V110.375H1051.24V110.252C1051.22 109.83 1051.13 109.42 1050.98 109.021C1050.83 108.623 1050.59 108.295 1050.27 108.037C1049.95 107.779 1049.51 107.65 1048.95 107.65C1048.58 107.65 1048.25 107.729 1047.93 107.888C1047.62 108.04 1047.36 108.269 1047.13 108.573C1046.91 108.878 1046.74 109.25 1046.62 109.689C1046.49 110.129 1046.43 110.636 1046.43 111.21V111.579C1046.43 112.03 1046.49 112.455 1046.62 112.854C1046.75 113.246 1046.93 113.592 1047.17 113.891C1047.42 114.189 1047.71 114.424 1048.06 114.594C1048.41 114.764 1048.81 114.849 1049.25 114.849C1049.83 114.849 1050.31 114.731 1050.71 114.497C1051.11 114.263 1051.46 113.949 1051.76 113.557L1052.74 114.339C1052.54 114.649 1052.28 114.945 1051.96 115.227C1051.64 115.508 1051.25 115.736 1050.79 115.912C1050.33 116.088 1049.79 116.176 1049.17 116.176ZM1096.01 103.203H1097.65L1101.85 113.636L1106.03 103.203H1107.68L1102.48 116H1101.2L1096.01 103.203ZM1095.47 103.203H1096.92L1097.16 111.008V116H1095.47V103.203ZM1106.76 103.203H1108.21V116H1106.52V111.008L1106.76 103.203ZM1132.89 116.176C1132.23 116.176 1131.63 116.064 1131.09 115.842C1130.55 115.613 1130.09 115.294 1129.71 114.884C1129.33 114.474 1129.03 113.987 1128.83 113.425C1128.62 112.862 1128.52 112.247 1128.52 111.579V111.21C1128.52 110.437 1128.64 109.748 1128.86 109.145C1129.09 108.535 1129.4 108.02 1129.8 107.598C1130.19 107.176 1130.63 106.856 1131.13 106.64C1131.63 106.423 1132.15 106.314 1132.68 106.314C1133.36 106.314 1133.94 106.432 1134.44 106.666C1134.93 106.9 1135.34 107.229 1135.66 107.65C1135.97 108.066 1136.21 108.559 1136.36 109.127C1136.51 109.689 1136.59 110.305 1136.59 110.973V111.702H1129.49V110.375H1134.96V110.252C1134.94 109.83 1134.85 109.42 1134.7 109.021C1134.55 108.623 1134.32 108.295 1134 108.037C1133.67 107.779 1133.24 107.65 1132.68 107.65C1132.31 107.65 1131.97 107.729 1131.66 107.888C1131.35 108.04 1131.08 108.269 1130.86 108.573C1130.64 108.878 1130.46 109.25 1130.34 109.689C1130.22 110.129 1130.16 110.636 1130.16 111.21V111.579C1130.16 112.03 1130.22 112.455 1130.34 112.854C1130.47 113.246 1130.65 113.592 1130.89 113.891C1131.14 114.189 1131.44 114.424 1131.78 114.594C1132.13 114.764 1132.53 114.849 1132.98 114.849C1133.55 114.849 1134.04 114.731 1134.44 114.497C1134.83 114.263 1135.18 113.949 1135.48 113.557L1136.47 114.339C1136.26 114.649 1136 114.945 1135.68 115.227C1135.37 115.508 1134.98 115.736 1134.52 115.912C1134.06 116.088 1133.52 116.176 1132.89 116.176ZM1162.48 114.154V102.5H1164.12V116H1162.62L1162.48 114.154ZM1156.08 111.351V111.166C1156.08 110.439 1156.17 109.78 1156.35 109.188C1156.53 108.591 1156.78 108.078 1157.11 107.65C1157.45 107.223 1157.84 106.895 1158.3 106.666C1158.76 106.432 1159.28 106.314 1159.85 106.314C1160.44 106.314 1160.96 106.42 1161.41 106.631C1161.86 106.836 1162.24 107.138 1162.55 107.536C1162.87 107.929 1163.12 108.403 1163.3 108.96C1163.48 109.517 1163.61 110.146 1163.68 110.85V111.658C1163.61 112.355 1163.49 112.982 1163.3 113.539C1163.12 114.096 1162.87 114.57 1162.55 114.963C1162.24 115.355 1161.86 115.657 1161.41 115.868C1160.96 116.073 1160.43 116.176 1159.83 116.176C1159.27 116.176 1158.76 116.056 1158.3 115.815C1157.84 115.575 1157.45 115.238 1157.11 114.805C1156.78 114.371 1156.53 113.861 1156.35 113.275C1156.17 112.684 1156.08 112.042 1156.08 111.351ZM1157.72 111.166V111.351C1157.72 111.825 1157.77 112.271 1157.86 112.687C1157.96 113.103 1158.11 113.469 1158.32 113.785C1158.52 114.102 1158.78 114.351 1159.1 114.532C1159.42 114.708 1159.79 114.796 1160.23 114.796C1160.77 114.796 1161.21 114.682 1161.56 114.453C1161.91 114.225 1162.19 113.923 1162.4 113.548C1162.61 113.173 1162.78 112.766 1162.9 112.326V110.208C1162.83 109.886 1162.72 109.575 1162.59 109.276C1162.46 108.972 1162.29 108.702 1162.08 108.468C1161.87 108.228 1161.62 108.037 1161.31 107.896C1161.01 107.756 1160.66 107.686 1160.25 107.686C1159.8 107.686 1159.42 107.779 1159.1 107.967C1158.78 108.148 1158.52 108.4 1158.32 108.723C1158.11 109.039 1157.96 109.408 1157.86 109.83C1157.77 110.246 1157.72 110.691 1157.72 111.166ZM1190.26 114.374V109.479C1190.26 109.104 1190.18 108.778 1190.03 108.503C1189.88 108.222 1189.66 108.005 1189.36 107.853C1189.06 107.7 1188.69 107.624 1188.25 107.624C1187.84 107.624 1187.48 107.694 1187.17 107.835C1186.87 107.976 1186.63 108.16 1186.45 108.389C1186.28 108.617 1186.2 108.863 1186.2 109.127H1184.57C1184.57 108.787 1184.66 108.45 1184.83 108.116C1185.01 107.782 1185.26 107.48 1185.59 107.211C1185.92 106.936 1186.32 106.719 1186.78 106.561C1187.25 106.396 1187.77 106.314 1188.35 106.314C1189.04 106.314 1189.65 106.432 1190.18 106.666C1190.71 106.9 1191.13 107.255 1191.42 107.729C1191.73 108.198 1191.88 108.787 1191.88 109.496V113.926C1191.88 114.242 1191.91 114.579 1191.96 114.937C1192.02 115.294 1192.1 115.602 1192.22 115.859V116H1190.52C1190.44 115.812 1190.37 115.563 1190.33 115.253C1190.28 114.937 1190.26 114.644 1190.26 114.374ZM1190.54 110.234L1190.55 111.377H1188.91C1188.45 111.377 1188.04 111.415 1187.67 111.491C1187.31 111.562 1187 111.67 1186.76 111.816C1186.51 111.963 1186.32 112.147 1186.2 112.37C1186.07 112.587 1186 112.842 1186 113.135C1186 113.434 1186.07 113.706 1186.2 113.952C1186.34 114.198 1186.54 114.395 1186.81 114.541C1187.09 114.682 1187.42 114.752 1187.82 114.752C1188.32 114.752 1188.76 114.646 1189.14 114.436C1189.52 114.225 1189.82 113.967 1190.04 113.662C1190.27 113.357 1190.4 113.062 1190.41 112.774L1191.11 113.557C1191.07 113.803 1190.96 114.075 1190.77 114.374C1190.59 114.673 1190.35 114.96 1190.04 115.235C1189.75 115.505 1189.39 115.73 1188.97 115.912C1188.56 116.088 1188.1 116.176 1187.58 116.176C1186.94 116.176 1186.37 116.05 1185.89 115.798C1185.41 115.546 1185.03 115.209 1184.76 114.787C1184.5 114.359 1184.37 113.882 1184.37 113.354C1184.37 112.845 1184.47 112.396 1184.67 112.01C1184.87 111.617 1185.15 111.292 1185.53 111.034C1185.9 110.771 1186.35 110.571 1186.88 110.437C1187.41 110.302 1188 110.234 1188.65 110.234H1190.54ZM1214.21 102.5V116H1212.57V102.5H1214.21Z" fill="white" fill-opacity="0.5"/>
<defs>
<radialGradient id="paint0_radial_253_583" cx="0" cy="0" r="1" gradientUnits="userSpaceOnUse" gradientTransform="translate(995.578 -3.44573e-05) scale(1153.57 227.142)">
<stop stop-color="#CE0000"/>
<stop offset="0.25" stop-color="#CE0000" stop-opacity="0.485"/>
<stop offset="0.5" stop-color="#CE0000" stop-opacity="0.219489"/>
<stop offset="0.75" stop-color="#CE0000" stop-opacity="0.0888931"/>
<stop offset="1" stop-color="#CE0000" stop-opacity="0"/>
</radialGradient>
</defs>
</svg>
