<svg width="263" height="35" viewBox="0 0 263 35" fill="none" xmlns="http://www.w3.org/2000/svg">
<path d="M0.976798 17.824L7.8528 4.9C8.4288 3.964 9.2088 3.496 10.1928 3.496C11.2008 3.496 11.9568 3.916 12.4608 4.756C12.9648 5.596 13.0008 6.484 12.5688 7.42L7.0248 17.824C6.6168 18.616 6.5208 19.456 6.7368 20.344L9.4368 31.288C9.6288 32.152 9.4608 32.92 8.9328 33.592C8.4048 34.264 7.7088 34.6 6.8448 34.6H6.3048C5.7048 34.6 5.1648 34.408 4.6848 34.024C4.2048 33.664 3.8808 33.184 3.7128 32.584L0.688797 20.344C0.472797 19.456 0.568797 18.616 0.976798 17.824ZM9.7968 17.824L16.6368 4.9C17.2368 3.964 18.0288 3.496 19.0128 3.496C20.0208 3.496 20.7768 3.916 21.2808 4.756C21.7848 5.596 21.8088 6.484 21.3528 7.42L15.8448 17.824C15.4368 18.616 15.3408 19.456 15.5568 20.344L18.2568 31.288C18.4488 32.152 18.2808 32.92 17.7528 33.592C17.2248 34.264 16.5288 34.6 15.6648 34.6H15.1248C14.5008 34.6 13.9488 34.408 13.4688 34.024C13.0128 33.664 12.7008 33.184 12.5328 32.584L9.5088 20.344C9.2928 19.456 9.3888 18.616 9.7968 17.824ZM55.8048 27.292L55.6608 26.536L45.6168 29.848L45.7248 28.084C45.8688 26.788 46.5408 25.912 47.7408 25.456L55.0488 23.044L52.8168 11.308H39.2088L37.9848 19.804L44.6448 19.084L44.3928 20.848C44.3208 21.4 44.0928 21.868 43.7088 22.252C43.3248 22.612 42.8688 22.828 42.3408 22.9L37.4808 23.404L36.4728 30.64C36.3288 31.72 35.8248 32.644 34.9608 33.412C34.0968 34.204 33.1248 34.6 32.0448 34.6H23.0088L23.0808 34.024C23.1768 33.352 23.4648 32.8 23.9448 32.368C24.4488 31.936 25.0248 31.72 25.6728 31.72H27.5088C27.9888 31.72 28.3728 31.552 28.6608 31.216C28.9488 30.88 29.1288 30.46 29.2008 29.956L29.9928 24.196L23.1528 24.916L23.3688 23.26C23.4648 22.66 23.7168 22.168 24.1248 21.784C24.5328 21.4 25.0248 21.172 25.6008 21.1L30.4968 20.596L31.8648 11.308H25.0968L25.3128 9.472C25.3848 8.992 25.5888 8.608 25.9248 8.32C26.2608 8.008 26.6568 7.852 27.1128 7.852H32.2608L32.7648 4.18H25.9968L26.3208 2.02C26.3688 1.708 26.5008 1.456 26.7168 1.264C26.9328 1.072 27.1848 0.975998 27.4728 0.975998H47.1288C46.9848 1.912 46.5768 2.68 45.9048 3.28C45.2328 3.88 44.4408 4.18 43.5288 4.18H40.1088L39.6048 7.852H52.3128L50.8728 0.651998H56.8488C57.2328 0.651998 57.5808 0.783998 57.8928 1.048C58.2048 1.312 58.3968 1.648 58.4688 2.056L59.6208 7.852H68.2608L68.0448 9.688C67.9728 10.168 67.7688 10.564 67.4328 10.876C67.0968 11.164 66.7128 11.308 66.2808 11.308H60.1968L61.9248 20.776L66.6768 19.192L66.5688 21.532C66.4488 22.468 65.9688 23.092 65.1288 23.404L62.6088 24.268L64.5168 34.6C62.4048 34.6 60.5328 33.916 58.9008 32.548C57.2928 31.204 56.2608 29.452 55.8048 27.292ZM62.5008 6.664L62.2128 1.192H65.0208C65.7888 1.192 66.4368 1.456 66.9648 1.984C67.5168 2.512 67.8288 3.172 67.9008 3.964L68.0448 6.664H62.5008ZM114.874 1.12L113.254 14.548C113.086 15.916 112.546 17.068 111.634 18.004C110.746 18.964 109.726 19.444 108.574 19.444H93.3098L91.9418 30.028C91.8938 30.388 91.9658 30.7 92.1578 30.964C92.3738 31.228 92.6498 31.36 92.9858 31.36H93.5978C94.4378 31.36 95.1578 31.672 95.7578 32.296C96.3578 32.92 96.6938 33.688 96.7658 34.6H88.4138C87.2378 34.6 86.3138 34.168 85.6418 33.304C84.9458 32.368 84.6818 31.252 84.8498 29.956L88.4138 1.12H95.6138L94.7138 8.248H106.882L107.494 4.18H96.5138L96.8738 1.12H114.874ZM106.09 15.304L106.558 11.596H94.3538L93.6698 16.312H104.938C105.082 16.312 105.214 16.3 105.334 16.276C105.478 16.252 105.61 16.192 105.73 16.096C105.85 15.952 105.946 15.832 106.018 15.736C106.066 15.64 106.09 15.496 106.09 15.304ZM112.102 21.46H100.366C99.0938 21.46 98.3258 21.988 98.0618 23.044C97.7978 24.076 98.0618 25.072 98.8538 26.032L104.794 34.6H111.994L105.514 24.88H110.554C110.698 24.88 110.878 24.844 111.094 24.772C111.31 24.7 111.478 24.592 111.598 24.448C111.838 24.16 111.982 23.788 112.03 23.332L112.102 21.46ZM74.4818 25.312C73.9778 28.696 72.5738 30.484 70.2698 30.676L73.4018 7.42H76.8218L74.4818 25.312ZM78.8378 33.988C79.2218 33.58 79.4498 33.064 79.5218 32.44L83.6258 0.651998H79.9538C79.4738 0.651998 79.0778 0.843998 78.7658 1.228C78.4058 1.612 78.1778 2.104 78.0818 2.704L74.0138 34.6H77.5778C78.0578 34.6 78.4778 34.396 78.8378 33.988ZM86.4698 8.068C86.5898 8.26 86.6378 8.488 86.6138 8.752L84.7418 23.584H83.6978C83.0498 23.584 82.5338 23.284 82.1498 22.684C81.7658 22.06 81.6098 21.34 81.6818 20.524L83.2658 7.816H86.0018C86.1938 7.816 86.3498 7.9 86.4698 8.068ZM141.327 31.576L141.183 32.656C141.111 33.184 140.895 33.604 140.535 33.916C140.175 34.252 139.743 34.42 139.239 34.42H116.487L116.631 33.34C116.703 32.812 116.919 32.38 117.279 32.044C117.639 31.732 118.071 31.576 118.575 31.576H141.327ZM119.475 16.528C121.131 16.528 122.403 17.152 123.291 18.4C124.395 19.648 124.899 21.16 124.803 22.936L124.335 29.668H118.467L119.475 16.528ZM143.775 11.524L143.667 12.316C143.571 12.916 143.307 13.408 142.875 13.792C142.443 14.2 141.951 14.404 141.399 14.404H119.367L119.475 13.612C119.571 12.988 119.835 12.484 120.267 12.1C120.675 11.716 121.167 11.524 121.743 11.524H143.775ZM136.575 4.612C136.455 3.964 136.131 3.64 135.603 3.64H130.203C129.579 3.64 129.135 3.964 128.871 4.612L126.819 10.156H119.871L122.499 3.064C122.739 2.392 123.147 1.84 123.723 1.408C124.299 0.999999 124.923 0.795998 125.595 0.795998H140.787C141.459 0.795998 142.023 0.999999 142.479 1.408C142.959 1.84 143.247 2.392 143.343 3.064L144.063 10.156H137.079L136.575 4.612ZM127.791 16.528C129.447 16.528 130.719 17.152 131.607 18.4C132.711 19.648 133.215 21.16 133.119 22.936L132.615 29.668H126.783L127.791 16.528ZM135.675 22.864C136.083 20.992 136.971 19.468 138.339 18.292C139.491 17.116 140.967 16.528 142.767 16.528L140.211 29.668H134.379L135.675 22.864ZM146.547 5.116C146.715 4.012 147.195 3.1 147.987 2.38C148.779 1.66 149.691 1.3 150.723 1.3H152.883L149.499 26.5C149.355 27.436 148.959 28.204 148.311 28.804C147.639 29.404 146.871 29.704 146.007 29.704H143.271L146.547 5.116ZM156.447 33.448C155.607 34.216 154.671 34.6 153.639 34.6H144.135C144.255 33.76 144.615 33.064 145.215 32.512C145.791 31.984 146.475 31.72 147.267 31.72H150.399C150.783 31.72 151.107 31.588 151.371 31.324C151.635 31.06 151.791 30.76 151.839 30.424L155.511 3.064C155.631 2.368 155.943 1.792 156.447 1.336C156.927 0.879998 157.503 0.651998 158.175 0.651998H161.955L157.959 30.64C157.791 31.72 157.287 32.656 156.447 33.448ZM175.916 0.651998H208.64L204.716 30.568C204.572 31.696 204.08 32.656 203.24 33.448C202.424 34.216 201.476 34.6 200.396 34.6H190.244C190.364 33.76 190.712 33.064 191.288 32.512C191.888 31.96 192.584 31.684 193.376 31.684H196.724C196.94 31.684 197.144 31.6 197.336 31.432C197.528 31.24 197.636 31.024 197.66 30.784L197.876 29.2H196.148C194.348 29.2 193.064 28.144 192.296 26.032L192.152 25.528L191.468 26.896C190.604 28.432 189.416 29.2 187.904 29.2H182.432C180.632 29.2 179.348 28.156 178.58 26.068L178.4 25.456L177.752 26.86C176.864 28.42 175.664 29.2 174.152 29.2H171.056L170.732 31.756C170.612 32.596 170.264 33.28 169.688 33.808C169.112 34.336 168.44 34.6 167.672 34.6H163.352L167.78 0.651998H174.8L174.44 3.568L174.296 4.504L174.116 5.908H176.708C177.788 5.908 178.556 6.532 179.012 7.78L179.552 9.976L180.848 7.276C181.376 6.364 182.084 5.908 182.972 5.908H190.424C191.504 5.908 192.272 6.532 192.728 7.78L193.304 10.012L194.6 7.312C195.128 6.376 195.824 5.908 196.688 5.908H200.936L201.26 3.568H175.52L175.916 0.651998ZM171.344 27.184L176.204 16.96L173.864 7.78L171.344 27.184ZM184.34 28.588L189.956 16.96L187.364 7.06L181.784 18.58L184.34 28.588ZM197.984 28.336L200.684 7.96L195.5 18.616L197.984 28.336ZM208.993 32.08C209.017 31.816 209.125 31.6 209.317 31.432C209.533 31.264 209.761 31.18 210.001 31.18H226.921C227.257 31.18 227.557 31.06 227.821 30.82C228.085 30.58 228.241 30.292 228.289 29.956L229.333 22.612H211.333L211.801 19.444C211.825 19.204 211.933 19 212.125 18.832C212.317 18.664 212.521 18.58 212.737 18.58H229.873L230.917 11.38H212.521L212.917 8.428C212.965 8.188 213.073 7.984 213.241 7.816C213.409 7.672 213.625 7.6 213.889 7.6H236.677C236.989 7.6 237.253 7.732 237.469 7.996C237.709 8.236 237.817 8.536 237.793 8.896L234.661 31.108C234.589 31.588 234.433 32.032 234.193 32.44C233.953 32.872 233.653 33.244 233.293 33.556C232.933 33.868 232.537 34.108 232.105 34.276C231.649 34.492 231.181 34.6 230.701 34.6H208.633L208.993 32.08ZM241.791 30.676L247.335 20.164C247.743 19.372 247.839 18.532 247.623 17.644L244.923 6.736C244.731 5.872 244.899 5.104 245.427 4.432C245.955 3.76 246.651 3.424 247.515 3.424H248.055C248.655 3.424 249.195 3.616 249.675 4C250.155 4.36 250.479 4.84 250.647 5.44L253.707 17.644C253.899 18.532 253.791 19.372 253.383 20.164L246.507 33.16C245.931 34.12 245.139 34.6 244.131 34.6C243.123 34.6 242.367 34.18 241.863 33.34C241.359 32.5 241.335 31.612 241.791 30.676ZM250.611 30.676L256.155 20.164C256.563 19.372 256.671 18.532 256.479 17.644L253.743 6.736C253.551 5.872 253.719 5.104 254.247 4.432C254.775 3.76 255.471 3.424 256.335 3.424H256.875C257.499 3.424 258.051 3.616 258.531 4C259.011 4.36 259.323 4.84 259.467 5.44L262.527 17.644C262.743 18.532 262.635 19.372 262.203 20.164L255.363 33.16C254.763 34.12 253.971 34.6 252.987 34.6C251.979 34.6 251.223 34.18 250.719 33.34C250.215 32.5 250.179 31.612 250.611 30.676Z" fill="white"/>
</svg>
