<svg width="186" height="35" viewBox="0 0 186 35" fill="none" xmlns="http://www.w3.org/2000/svg">
<path d="M26.7021 31.288H38.6541C39.4941 31.288 40.1781 31.612 40.7061 32.26C41.2581 32.908 41.4861 33.688 41.3901 34.6H21.1221C20.0421 34.6 19.2021 34.24 18.6021 33.52C17.9541 32.752 17.7141 31.828 17.8821 30.748L20.1501 14.188H27.3861L25.2981 29.488C25.2261 29.992 25.3221 30.424 25.5861 30.784C25.8501 31.12 26.2221 31.288 26.7021 31.288ZM1.14206 30.964C1.47806 30.652 1.85006 30.472 2.25806 30.424L15.3621 29.272L14.8941 31.936C14.8461 32.272 14.6781 32.56 14.3901 32.8C14.1741 33.04 13.9101 33.184 13.5981 33.232L0.170063 34.348L0.602062 32.08C0.674063 31.648 0.854063 31.276 1.14206 30.964ZM19.4661 6.052L10.0701 21.172C10.0461 21.22 10.0221 21.268 9.99806 21.316C9.97406 21.34 9.95006 21.364 9.92606 21.388C9.90206 21.412 9.89006 21.448 9.89006 21.496C9.89006 21.616 10.0101 21.664 10.2501 21.64L15.8301 21.1C16.0941 21.1 16.3101 21.172 16.4781 21.316C16.5741 21.508 16.5981 21.76 16.5501 22.072L15.7941 25.348L2.51006 26.824C2.10206 26.848 1.81406 26.704 1.64606 26.392C1.45406 26.056 1.45406 25.708 1.64606 25.348L8.81006 14.476H3.08606C2.65406 14.476 2.35406 14.272 2.18606 13.864C1.99406 13.528 2.00606 13.156 2.22206 12.748L8.70206 1.48C8.82206 1.24 9.00206 1.096 9.24206 1.048C9.50606 0.975999 9.83006 0.939999 10.2141 0.939999H14.4621L8.77406 11.056C8.48606 11.536 8.58206 11.776 9.06206 11.776H10.3581L13.3461 6.664C13.6821 6.256 14.0421 6.052 14.4261 6.052H19.4661ZM39.2661 17.212H28.1421L28.5381 14.188H34.5501C35.0301 14.188 35.4741 14.008 35.8821 13.648C36.2661 13.288 36.5061 12.856 36.6021 12.352L37.7901 3.64H21.2661L21.4821 2.092C21.5541 1.66 21.7341 1.312 22.0221 1.048C22.3341 0.783998 22.6821 0.651998 23.0661 0.651998H45.4221L43.7301 13.288C43.5621 14.368 43.0461 15.292 42.1821 16.06C41.3181 16.828 40.3461 17.212 39.2661 17.212ZM90.991 2.884L92.359 9.328H85.015L83.899 4.144C83.707 3.736 83.395 3.532 82.963 3.532H61.291C60.859 3.532 60.487 3.76 60.175 4.216L57.871 9.328H50.239L53.155 2.956C53.587 2.284 54.091 1.732 54.667 1.3C55.267 0.867998 55.939 0.651998 56.683 0.651998H88.075C88.819 0.651998 89.419 0.855998 89.875 1.264C90.331 1.648 90.703 2.188 90.991 2.884ZM90.667 13.324L80.479 19.552H70.147L79.939 13.324H53.335C52.591 13.324 51.979 13.048 51.499 12.496C51.019 11.92 50.827 11.236 50.923 10.444H67.843L67.699 5.152H71.263C72.295 5.152 73.171 5.524 73.891 6.268C74.611 6.988 74.995 7.9 75.043 9.004L75.079 10.444H91.063L90.667 13.324ZM50.203 20.38L46.855 34.6H49.771C52.795 34.6 54.619 32.836 55.243 29.308L57.043 20.38H50.203ZM65.935 31C65.695 30.76 65.611 30.448 65.683 30.064L66.835 21.46C66.859 21.172 66.787 20.92 66.619 20.704C66.451 20.488 66.223 20.38 65.935 20.38H59.743L58.339 30.64C58.171 31.744 58.411 32.68 59.059 33.448C59.707 34.216 60.559 34.6 61.615 34.6H79.507C79.555 34.192 79.543 33.76 79.471 33.304C79.399 32.872 79.243 32.512 79.003 32.224C78.523 31.648 77.899 31.36 77.131 31.36H66.799C66.463 31.36 66.175 31.24 65.935 31ZM72.307 20.38H70.867L70.687 29.596H77.563L77.599 25.636C77.599 24.292 77.107 23.08 76.123 22C75.067 20.92 73.795 20.38 72.307 20.38ZM81.775 20.38L81.271 34.6H88.219L88.579 23.98C88.699 21.652 87.619 20.464 85.339 20.416L81.775 20.38ZM130.296 3.172H139.152L135.516 30.604C135.348 31.708 134.856 32.644 134.04 33.412C133.2 34.204 132.252 34.6 131.196 34.6H125.796L126.192 31.72H127.236C127.596 31.72 127.908 31.588 128.172 31.324C128.46 31.06 128.628 30.748 128.676 30.388L131.916 6.052H129.72L125.004 29.488C124.668 31 123.948 32.224 122.844 33.16C121.74 34.12 120.468 34.6 119.028 34.6H117.084L122.88 6.052H121.944C121.632 6.052 121.38 5.932 121.188 5.692C120.996 5.428 120.912 5.128 120.936 4.792L121.152 3.172H123.42L123.96 0.651998H130.836L130.296 3.172ZM99.876 9.04C99.204 9.04 98.664 8.776 98.256 8.248C97.848 7.744 97.692 7.12 97.788 6.376L98.544 0.868H105.636L105.312 3.46L105.204 4.252L105.024 5.548C105 5.788 105.06 5.992 105.204 6.16C105.372 6.352 105.576 6.448 105.816 6.448H111.756C112.02 6.448 112.248 6.352 112.44 6.16C112.656 5.992 112.776 5.788 112.8 5.548L113.088 3.46H106.032L106.356 0.868H120.54L119.82 6.376C119.724 7.12 119.4 7.744 118.848 8.248C118.296 8.776 117.708 9.04 117.084 9.04H99.876ZM109.236 30.064H110.892L116.472 34.6H110.46C109.164 34.6 107.976 34.168 106.896 33.304L105.42 32.116L102.612 33.988C101.988 34.396 101.316 34.6 100.596 34.6H93.684L102.144 28.984L103.8 16.6C103.872 16.048 104.1 15.604 104.484 15.268C104.868 14.908 105.324 14.728 105.852 14.728H111.288L109.236 30.064ZM103.26 10.048L102.756 13.792L102.684 14.188L100.668 29.524H94.296L96.528 12.712C96.624 11.968 96.948 11.344 97.5 10.84C98.028 10.312 98.628 10.048 99.3 10.048H103.26ZM117.3 10.048C117.972 10.048 118.512 10.312 118.92 10.84C119.328 11.344 119.484 11.968 119.388 12.712L117.156 29.524H110.784L112.872 13.792C112.896 13.552 112.836 13.348 112.692 13.18C112.524 13.012 112.32 12.928 112.08 12.928H103.872L104.268 10.048H117.3ZM180.509 8.644H185.189L185.045 9.76C184.973 10.216 184.769 10.6 184.433 10.912C184.097 11.2 183.713 11.344 183.281 11.344H143.033L143.177 10.264C143.249 9.784 143.453 9.4 143.789 9.112C144.125 8.8 144.509 8.644 144.941 8.644H148.109L147.713 5.08H151.889C152.753 5.08 153.497 5.38 154.121 5.98C154.769 6.556 155.153 7.312 155.273 8.248L155.345 8.644H173.309L173.705 7.456C174.401 5.872 175.481 5.08 176.945 5.08H181.697L180.509 8.644ZM185.837 1.804L185.693 2.668C185.597 3.1 185.381 3.46 185.045 3.748C184.733 4.036 184.361 4.18 183.929 4.18H144.221L144.365 3.352C144.437 2.896 144.641 2.524 144.977 2.236C145.313 1.948 145.697 1.804 146.129 1.804H161.501L161.645 0.615999H167.945C168.257 0.615999 168.509 0.735998 168.701 0.975998C168.893 1.216 168.977 1.492 168.953 1.804H185.837ZM165.533 27.148L165.317 28.624H182.489L182.417 29.236C182.321 29.812 182.057 30.304 181.625 30.712C181.193 31.12 180.701 31.324 180.149 31.324H164.957L164.633 33.808C164.585 34.048 164.477 34.24 164.309 34.384C164.165 34.528 163.985 34.6 163.769 34.6H157.073L157.505 31.324H140.333L140.441 30.496C140.537 29.968 140.777 29.524 141.161 29.164C141.569 28.804 142.013 28.624 142.493 28.624H157.865L158.081 27.148H145.877C144.941 27.148 144.221 26.776 143.717 26.032C143.165 25.312 142.961 24.46 143.105 23.476L144.545 12.82H151.709L151.349 15.52L151.313 15.664L151.241 16.42V16.456L150.989 18.184H175.037L175.397 15.52H152.501L152.861 12.82H183.209L181.769 23.476C181.601 24.46 181.133 25.312 180.365 26.032C179.549 26.776 178.673 27.148 177.737 27.148H165.533ZM151.169 24.16H173.273C173.585 24.16 173.837 24.052 174.029 23.836C174.245 23.62 174.365 23.356 174.389 23.044L174.677 20.884H150.629L150.341 23.044C150.269 23.356 150.317 23.62 150.485 23.836C150.629 24.052 150.857 24.16 151.169 24.16Z" fill="white"/>
</svg>
