<svg width="281" height="35" viewBox="0 0 281 35" fill="none" xmlns="http://www.w3.org/2000/svg">
<path d="M13.0459 4.252C12.6139 4.252 12.2659 4.456 12.0019 4.864L9.94994 8.68H1.84994L5.16194 2.416C6.00194 1.24 7.08194 0.651998 8.40194 0.651998H40.0459C41.5339 0.651998 42.6859 1.384 43.5019 2.848L46.2379 8.68H38.4979L36.6619 5.152C36.2779 4.552 35.7739 4.252 35.1499 4.252H13.0459ZM5.48594 11.632C5.84594 10.768 6.44594 10.336 7.28594 10.336H41.6659L41.3059 12.82C41.2339 13.132 41.0779 13.384 40.8379 13.576C40.6219 13.792 40.3579 13.9 40.0459 13.9H4.98194L5.48594 11.632ZM1.84994 19.336C2.23394 19.024 2.66594 18.868 3.14594 18.868H44.4019L44.1139 20.596C43.9939 21.172 43.7179 21.64 43.2859 22C42.8539 22.36 42.3619 22.54 41.8099 22.54H14.8099L12.2899 29.092C12.1699 29.428 12.1819 29.704 12.3259 29.92C12.4459 30.184 12.6739 30.316 13.0099 30.316L33.4579 29.056L34.9339 32.8L4.72994 34.6C3.69794 34.6 2.90594 34.216 2.35394 33.448C1.82594 32.68 1.74194 31.816 2.10194 30.856L5.98994 22.54H0.769938L1.12994 20.56C1.22594 20.056 1.46594 19.648 1.84994 19.336ZM40.1179 26.032L42.5299 34.6H34.2499L31.5499 24.448H37.9579C38.9419 24.448 39.6619 24.976 40.1179 26.032ZM55.7349 11.308C54.7749 11.308 53.9829 10.936 53.3589 10.192C52.7589 9.496 52.5189 8.644 52.6389 7.636L53.6109 0.687998H61.2069L60.8109 3.568V3.604L60.6669 4.612V4.684L60.3429 6.952C60.2709 7.36 60.3429 7.708 60.5589 7.996C60.7269 8.284 61.0029 8.428 61.3869 8.428H83.4189C83.7789 8.428 84.1029 8.284 84.3909 7.996C84.6789 7.708 84.8589 7.36 84.9309 6.952L85.3989 3.568H61.9629L62.3589 0.687998H93.1389L92.1669 7.636C92.0469 8.644 91.5909 9.496 90.7989 10.192C90.0309 10.936 89.1669 11.308 88.2069 11.308H55.7349ZM57.4269 19.912L56.2389 28.552H48.8949L50.5149 16.816C50.6589 15.712 51.1509 14.764 51.9909 13.972C52.8309 13.156 53.8149 12.748 54.9429 12.748H58.4349L57.7509 17.608L57.4269 19.876V19.912ZM83.3469 16.204H59.6589L60.1269 12.748H88.6389C89.7429 12.748 90.6189 13.156 91.2669 13.972C91.9149 14.764 92.1669 15.712 92.0229 16.816L90.4029 28.552H84.2469C83.9349 28.552 83.6709 28.444 83.4549 28.228C83.2629 27.988 83.1909 27.688 83.2389 27.328L84.5709 17.608C84.6189 17.248 84.5229 16.924 84.2829 16.636C84.0429 16.348 83.7309 16.204 83.3469 16.204ZM88.3509 31.72H90.2589L89.8629 34.564H82.9509C82.3989 34.564 81.3909 34.384 79.9269 34.024C78.4869 33.688 76.9629 33.292 75.3549 32.836C73.7469 32.404 72.3549 32.008 71.1789 31.648C70.0029 31.312 69.4149 31.144 69.4149 31.144C69.4149 31.144 68.8029 31.312 67.5789 31.648C66.3789 32.008 64.9149 32.404 63.1869 32.836C61.4829 33.292 59.8149 33.688 58.1829 34.024C56.5509 34.384 55.3269 34.564 54.5109 34.564H47.4909L47.8869 31.72H49.9389C50.5149 31.72 51.6069 31.444 53.2149 30.892C54.8469 30.34 56.5629 29.716 58.3629 29.02C60.1629 28.3 61.7229 27.664 63.0429 27.112C64.3629 26.56 65.0229 26.284 65.0229 26.284L66.0309 19.048H75.8949L74.8149 27.112H76.5069C76.5069 27.112 76.9149 27.352 77.7309 27.832C78.5709 28.288 79.6149 28.816 80.8629 29.416C82.1109 30.016 83.4069 30.544 84.7509 31C86.0949 31.48 87.2949 31.72 88.3509 31.72ZM111.887 0.759999C112.343 0.759999 112.727 0.939999 113.039 1.3C113.327 1.66 113.447 2.092 113.399 2.596L110.483 13.144H111.275C111.491 13.144 111.671 13.216 111.815 13.36C111.935 13.528 111.983 13.708 111.959 13.9L109.979 29.956C109.835 31.276 109.475 32.188 108.899 32.692C108.347 33.172 107.423 33.412 106.127 33.412H103.859L106.019 15.88H105.407C105.191 15.88 105.011 15.76 104.867 15.52C104.723 15.304 104.675 15.052 104.723 14.764L107.495 4.072H97.919L98.171 1.912C98.243 1.528 98.399 1.24 98.639 1.048C98.879 0.855999 99.167 0.759999 99.503 0.759999H111.887ZM99.107 5.584H104.543L100.871 34.6H94.283L97.775 6.7C97.799 6.508 97.847 6.364 97.919 6.268C97.991 6.148 98.087 6.028 98.207 5.908C98.471 5.692 98.771 5.584 99.107 5.584ZM139.643 0.651998H123.659L123.299 3.748H132.731L132.191 7.852H121.643L122.471 0.651998H115.739L112.391 29.812C112.247 31.132 112.499 32.26 113.147 33.196C113.771 34.084 114.635 34.528 115.739 34.528H123.551C123.479 33.592 123.167 32.812 122.615 32.188C122.063 31.564 121.391 31.252 120.599 31.252H120.023C119.711 31.252 119.459 31.108 119.267 30.82C119.075 30.556 119.003 30.244 119.051 29.884L120.347 19.192H133.739C134.819 19.192 135.779 18.712 136.619 17.752C137.459 16.792 137.963 15.616 138.131 14.224L139.643 0.651998ZM131.435 15.016C131.435 15.184 131.411 15.328 131.363 15.448C131.291 15.544 131.195 15.652 131.075 15.772C130.979 15.892 130.871 15.964 130.751 15.988C130.607 16.012 130.475 16.024 130.355 16.024H120.671L121.319 11.272H131.867L131.435 15.016ZM137.051 21.244L136.979 23.116C136.931 23.572 136.799 23.944 136.583 24.232C136.487 24.4 136.331 24.52 136.115 24.592C135.923 24.664 135.755 24.7 135.611 24.7H130.895L136.943 34.528H130.247L124.667 25.852C123.923 24.892 123.671 23.884 123.911 22.828C124.175 21.772 124.895 21.244 126.071 21.244H137.051ZM150.976 2.092L150.256 7.132C150.184 7.564 149.992 7.924 149.68 8.212C149.368 8.476 149.008 8.608 148.6 8.608H142.66L143.092 5.656C143.212 4.672 143.656 3.844 144.424 3.172C145.168 2.452 146.032 2.092 147.016 2.092H150.976ZM168.004 22.864L167.284 30.064L185.212 31.396C184.804 32.284 184.192 33.052 183.376 33.7C182.536 34.3 181.672 34.588 180.784 34.564L148.528 32.512C148.384 33.112 148.084 33.592 147.628 33.952C147.172 34.312 146.656 34.492 146.08 34.492H141.22L146.512 17.968L152.668 18.328L149.572 28.984L159.616 29.668L161.308 14.044H144.532L144.928 11.416C144.976 11.104 145.12 10.852 145.36 10.66C145.6 10.444 145.876 10.336 146.188 10.336H184.672L184.312 12.892C184.264 13.228 184.108 13.504 183.844 13.72C183.604 13.936 183.316 14.044 182.98 14.044H168.724L168.22 19.444H181.036L180.676 20.452C179.956 22.06 178.876 22.864 177.436 22.864H168.004ZM185.536 3.172C186.16 3.844 186.412 4.672 186.292 5.656L185.86 8.608H178.156L178.48 6.484C178.504 6.364 178.504 6.244 178.48 6.124C178.48 6.004 178.444 5.908 178.372 5.836C178.3 5.74 178.216 5.668 178.12 5.62C178.048 5.548 177.952 5.512 177.832 5.512H151.912L152.416 2.092H161.2L161.416 0.687998H167.968C168.28 0.687998 168.52 0.795998 168.688 1.012C168.88 1.228 168.964 1.492 168.94 1.804L168.868 2.092H183.16C184.12 2.092 184.912 2.452 185.536 3.172ZM201.476 34.6C200.564 34.6 199.832 34.264 199.28 33.592C198.728 32.896 198.512 32.068 198.632 31.108L199.316 25.672L198.74 26.752C196.436 30.328 193.46 32.116 189.812 32.116H188.372L195.356 19.12H190.1L190.244 17.968C190.316 17.464 190.52 17.056 190.856 16.744C191.216 16.432 191.624 16.276 192.08 16.276H208.64L208.784 15.268H214.868C215.108 15.268 215.312 15.364 215.48 15.556C215.648 15.748 215.72 15.988 215.696 16.276H231.356L231.212 17.428C231.14 17.932 230.924 18.34 230.564 18.652C230.228 18.964 229.832 19.12 229.376 19.12H202.556L201.368 21.496H206.804L205.616 30.64C205.568 30.976 205.628 31.24 205.796 31.432C205.964 31.648 206.192 31.756 206.48 31.756H210.404C211.124 31.756 211.712 32.032 212.168 32.584C212.624 33.16 212.816 33.832 212.744 34.6H201.476ZM196.472 14.764L196.724 12.856L190.856 13.972L190.964 13.108C191.18 11.836 191.876 11.056 193.052 10.768L197.12 9.976L197.804 4.756L194.312 4.144C193.712 4.024 193.232 3.724 192.872 3.244C192.536 2.74 192.404 2.164 192.476 1.516L192.548 0.939999L198.2 1.912V1.804C198.248 1.468 198.38 1.192 198.596 0.975998C198.836 0.759998 199.112 0.651998 199.424 0.651998H205.4L203.708 13.36C203.636 13.768 203.456 14.104 203.168 14.368C202.88 14.632 202.544 14.764 202.16 14.764H196.472ZM207.416 11.668H215.228L216.128 4.828H206.48L206.696 3.28C206.744 2.896 206.9 2.584 207.164 2.344C207.428 2.104 207.74 1.984 208.1 1.984H216.524C216.572 1.6 216.728 1.288 216.992 1.048C217.256 0.783998 217.568 0.651998 217.928 0.651998H223.724L223.544 1.984H233.228L233.012 3.568C232.964 3.928 232.808 4.228 232.544 4.468C232.28 4.708 231.968 4.828 231.608 4.828H223.148L222.248 11.668H231.464L231.248 13.144C231.2 13.552 231.032 13.888 230.744 14.152C230.456 14.392 230.12 14.512 229.736 14.512H205.724L205.904 13.036C205.952 12.628 206.12 12.304 206.408 12.064C206.696 11.8 207.032 11.668 207.416 11.668ZM219.692 30.82L214.94 20.524H222.284L223.904 24.304L230.456 22.792L230.348 23.764C230.132 24.964 229.472 25.732 228.368 26.068L224.984 26.86L228.944 34.492H225.236C222.884 34.492 221.036 33.268 219.692 30.82ZM253.813 11.128L257.989 0.723999H265.873L262.813 8.284C261.877 10.18 260.473 11.128 258.601 11.128H253.813ZM250.537 34.6L257.125 15.664H255.973C255.373 15.664 254.881 15.448 254.497 15.016C254.137 14.584 253.993 14.068 254.065 13.468L254.137 12.82H278.869L276.385 30.64C276.217 31.72 275.689 32.644 274.801 33.412C273.913 34.204 272.929 34.6 271.849 34.6H263.857C263.977 33.76 264.349 33.064 264.973 32.512C265.597 31.984 266.317 31.72 267.133 31.72H267.241C267.745 31.72 268.141 31.552 268.429 31.216C268.741 30.88 268.921 30.46 268.969 29.956L270.985 15.664H264.613L259.825 29.416C258.265 32.872 255.841 34.6 252.553 34.6H250.537ZM272.101 7.708L271.237 0.723999H278.977L280.273 11.128H275.989C275.005 11.128 274.141 10.804 273.397 10.156C272.677 9.508 272.245 8.692 272.101 7.708ZM251.077 0.651998H244.993C244.153 0.651998 243.625 1.12 243.409 2.056L243.157 3.316H240.421C240.133 3.316 239.893 3.424 239.701 3.64C239.509 3.832 239.389 4.048 239.341 4.288L238.693 7.06H242.653L240.853 18.616L237.973 19.012C237.709 19.036 237.469 19.144 237.253 19.336C237.037 19.504 236.905 19.72 236.857 19.984L236.137 22.864L240.313 22.36L239.305 29.128C239.233 29.464 239.149 29.752 239.053 29.992C238.909 30.232 238.729 30.46 238.513 30.676C238.297 30.916 238.069 31.072 237.829 31.144C237.565 31.192 237.289 31.216 237.001 31.216H235.201L234.805 34.6H241.573C242.893 34.6 244.057 34.048 245.065 32.944C246.073 31.84 246.649 30.52 246.793 28.984L247.945 21.388L248.881 21.28C249.241 21.232 249.553 21.1 249.817 20.884C250.057 20.644 250.201 20.356 250.249 20.02L250.681 17.392L248.521 17.68L250.105 7.06H251.221C251.533 7.06 251.821 6.94 252.085 6.7C252.325 6.46 252.469 6.196 252.517 5.908L252.913 3.316H250.645L251.077 0.651998Z" fill="white"/>
</svg>
