<svg width="328" height="35" viewBox="0 0 328 35" fill="none" xmlns="http://www.w3.org/2000/svg">
<path d="M39.447 14.008H33.507L34.227 8.464H33.723L32.859 11.776C32.307 13.264 31.371 14.008 30.051 14.008H28.323L29.763 8.464H29.043L29.367 6.196C29.415 5.98 29.511 5.8 29.655 5.656C29.823 5.512 30.003 5.44 30.195 5.44H34.659L34.803 4.576H39.879C40.095 4.576 40.275 4.66 40.419 4.828C40.587 4.996 40.647 5.2 40.599 5.44H45.783L45.459 7.744C45.435 7.96 45.339 8.14 45.171 8.284C45.027 8.404 44.847 8.464 44.631 8.464V14.008H43.191C42.495 14.008 41.907 13.756 41.427 13.252C40.947 12.748 40.707 12.136 40.707 11.416V8.464H40.203L39.447 14.008ZM1.57503 29.344L5.35503 1.516H12.087L11.727 4.108L11.655 4.684L8.12703 30.568C7.98303 31.672 7.49103 32.608 6.65103 33.376C5.78703 34.144 4.82703 34.528 3.77103 34.528H0.891031L1.39503 30.784L1.57503 29.344ZM46.359 1.516L46.323 1.912C46.227 2.56 45.939 3.088 45.459 3.496C45.003 3.904 44.475 4.108 43.875 4.108H12.483L12.843 1.516H23.715L23.859 0.651998H30.087C30.303 0.651998 30.483 0.735998 30.627 0.903999C30.771 1.072 30.831 1.276 30.807 1.516H46.359ZM37.863 26.824L36.891 29.344C36.699 29.584 36.783 29.692 37.143 29.668L38.295 29.632L38.331 27.796H40.095C40.719 27.796 41.247 28.024 41.679 28.48C42.135 28.936 42.363 29.5 42.363 30.172V31.612H38.295V31.252L32.823 31.54C32.175 31.588 31.755 31.444 31.563 31.108C31.395 30.748 31.395 30.352 31.563 29.92L32.679 26.824H37.863ZM31.059 32.332H42.327L42.003 34.6H26.379C25.563 34.6 24.903 34.336 24.399 33.808C23.871 33.256 23.667 32.596 23.787 31.828L24.075 29.704L18.351 33.628C17.847 33.964 17.283 34.204 16.659 34.348C16.035 34.516 15.411 34.6 14.787 34.6H8.34303L8.52303 33.412C8.57103 33.076 8.71503 32.8 8.95503 32.584C9.19503 32.368 9.47103 32.26 9.78303 32.26C10.239 32.26 10.623 32.2 10.935 32.08C11.247 31.936 11.523 31.804 11.763 31.684L20.475 25.996H13.023C12.183 25.996 11.511 25.732 11.007 25.204C10.503 24.676 10.299 24.028 10.395 23.26L11.475 15.34H17.775L17.451 17.572L17.415 18.04L17.235 19.408H23.427L23.679 17.572H18.099L18.423 15.34H19.467C19.515 15.1 19.611 14.908 19.755 14.764C19.923 14.62 20.115 14.548 20.331 14.548H26.811L26.703 15.34H43.659L42.579 23.26C42.483 24.028 42.111 24.676 41.463 25.204C40.815 25.732 40.083 25.996 39.267 25.996H29.511L27.279 27.508H30.879L30.303 31.54C30.279 31.732 30.339 31.912 30.483 32.08C30.651 32.248 30.843 32.332 31.059 32.332ZM30.879 17.572L30.627 19.408H36.855L37.107 17.572H30.879ZM30.339 21.676L30.051 23.8H35.415C35.631 23.8 35.835 23.728 36.027 23.584C36.219 23.416 36.327 23.224 36.351 23.008L36.531 21.676H30.339ZM22.815 23.8L23.103 21.676H16.911L16.731 23.008C16.707 23.224 16.767 23.416 16.911 23.584C17.055 23.728 17.247 23.8 17.487 23.8H22.815ZM15.687 11.776C15.135 13.264 14.199 14.008 12.879 14.008H11.151L12.627 8.464H11.871L12.195 6.196C12.243 5.98 12.339 5.8 12.483 5.656C12.651 5.512 12.831 5.44 13.023 5.44H17.487L17.631 4.576H22.707C22.923 4.576 23.103 4.66 23.247 4.828C23.415 4.996 23.487 5.2 23.463 5.44H28.647L28.323 7.744C28.275 7.96 28.167 8.14 27.999 8.284C27.855 8.404 27.687 8.464 27.495 8.464H27.423L27.459 14.008H26.019C25.323 14.008 24.735 13.756 24.255 13.252C23.775 12.748 23.535 12.136 23.535 11.416V8.464H23.031L22.275 14.008H16.335L17.055 8.464H16.551L15.687 11.776ZM89.732 25.168L88.94 31.216H90.308L89.984 33.412C89.936 33.772 89.792 34.06 89.552 34.276C89.312 34.492 89.036 34.6 88.724 34.6H47.684L48.008 32.368C48.056 32.032 48.188 31.756 48.404 31.54C48.644 31.324 48.932 31.216 49.268 31.216L50.06 25.168C50.228 23.896 50.78 22.816 51.716 21.928C52.652 21.04 53.708 20.596 54.884 20.596H57.872L57.296 24.952L57.152 25.888L56.468 31.216H60.14L60.788 26.356C60.86 25.852 61.064 25.444 61.4 25.132C61.736 24.82 62.132 24.664 62.588 24.664H67.988L67.124 31.216H70.832L71.48 26.356C71.552 25.852 71.756 25.444 72.092 25.132C72.428 24.82 72.824 24.664 73.28 24.664H78.644L77.78 31.216H81.74L82.568 24.952C82.616 24.592 82.532 24.268 82.316 23.98C82.124 23.716 81.836 23.584 81.452 23.584H58.952L59.312 20.596H86.096C87.272 20.596 88.22 21.04 88.94 21.928C89.636 22.816 89.9 23.896 89.732 25.168ZM60.752 4.108L58.736 7.312H51.248L54.164 2.668C54.548 2.044 55.028 1.552 55.604 1.192C56.204 0.831998 56.828 0.651998 57.476 0.651998H88.688C89.336 0.651998 89.9 0.831998 90.38 1.192C90.884 1.552 91.244 2.044 91.46 2.668L93.152 7.312H85.7L84.512 4.108C84.416 3.772 84.176 3.604 83.792 3.604H61.58C61.22 3.604 60.944 3.772 60.752 4.108ZM59.384 11.992L58.988 15.124L58.916 15.664C58.892 15.856 58.94 16.012 59.06 16.132C59.156 16.276 59.288 16.348 59.456 16.348H82.64C82.808 16.348 82.964 16.276 83.108 16.132C83.252 16.012 83.336 15.856 83.36 15.664L83.792 11.992H60.32L60.716 9.04H91.388L90.452 16.348C90.332 17.212 89.948 17.956 89.3 18.58C88.628 19.204 87.884 19.516 87.068 19.516H54.164C53.348 19.516 52.688 19.204 52.184 18.58C51.68 17.956 51.488 17.212 51.608 16.348L52.544 9.04H59.78L59.384 11.992ZM61.832 6.52C61.904 6.04 62.108 5.644 62.444 5.332C62.756 5.044 63.128 4.9 63.56 4.9H83L82.82 6.232C82.748 6.712 82.556 7.096 82.244 7.384C81.908 7.696 81.524 7.852 81.092 7.852H61.652L61.832 6.52ZM106.753 4.252C106.321 4.252 105.973 4.456 105.709 4.864L103.657 8.68H95.557L98.869 2.416C99.709 1.24 100.789 0.651998 102.109 0.651998H133.753C135.241 0.651998 136.393 1.384 137.209 2.848L139.945 8.68H132.205L130.369 5.152C129.985 4.552 129.481 4.252 128.857 4.252H106.753ZM99.193 11.632C99.553 10.768 100.153 10.336 100.993 10.336H135.373L135.013 12.82C134.941 13.132 134.785 13.384 134.545 13.576C134.329 13.792 134.065 13.9 133.753 13.9H98.689L99.193 11.632ZM95.557 19.336C95.941 19.024 96.373 18.868 96.853 18.868H138.109L137.821 20.596C137.701 21.172 137.425 21.64 136.993 22C136.561 22.36 136.069 22.54 135.517 22.54H108.517L105.997 29.092C105.877 29.428 105.889 29.704 106.033 29.92C106.153 30.184 106.381 30.316 106.717 30.316L127.165 29.056L128.641 32.8L98.437 34.6C97.405 34.6 96.613 34.216 96.061 33.448C95.533 32.68 95.449 31.816 95.809 30.856L99.697 22.54H94.477L94.837 20.56C94.933 20.056 95.173 19.648 95.557 19.336ZM133.825 26.032L136.237 34.6H127.957L125.257 24.448H131.665C132.649 24.448 133.369 24.976 133.825 26.032ZM149.442 11.308C148.482 11.308 147.69 10.936 147.066 10.192C146.466 9.496 146.226 8.644 146.346 7.636L147.318 0.687998H154.914L154.518 3.568V3.604L154.374 4.612V4.684L154.05 6.952C153.978 7.36 154.05 7.708 154.266 7.996C154.434 8.284 154.71 8.428 155.094 8.428H177.126C177.486 8.428 177.81 8.284 178.098 7.996C178.386 7.708 178.566 7.36 178.638 6.952L179.106 3.568H155.67L156.066 0.687998H186.846L185.874 7.636C185.754 8.644 185.298 9.496 184.506 10.192C183.738 10.936 182.874 11.308 181.914 11.308H149.442ZM151.134 19.912L149.946 28.552H142.602L144.222 16.816C144.366 15.712 144.858 14.764 145.698 13.972C146.538 13.156 147.522 12.748 148.65 12.748H152.142L151.458 17.608L151.134 19.876V19.912ZM177.054 16.204H153.366L153.834 12.748H182.346C183.45 12.748 184.326 13.156 184.974 13.972C185.622 14.764 185.874 15.712 185.73 16.816L184.11 28.552H177.954C177.642 28.552 177.378 28.444 177.162 28.228C176.97 27.988 176.898 27.688 176.946 27.328L178.278 17.608C178.326 17.248 178.23 16.924 177.99 16.636C177.75 16.348 177.438 16.204 177.054 16.204ZM182.058 31.72H183.966L183.57 34.564H176.658C176.106 34.564 175.098 34.384 173.634 34.024C172.194 33.688 170.67 33.292 169.062 32.836C167.454 32.404 166.062 32.008 164.886 31.648C163.71 31.312 163.122 31.144 163.122 31.144C163.122 31.144 162.51 31.312 161.286 31.648C160.086 32.008 158.622 32.404 156.894 32.836C155.19 33.292 153.522 33.688 151.89 34.024C150.258 34.384 149.034 34.564 148.218 34.564H141.198L141.594 31.72H143.646C144.222 31.72 145.314 31.444 146.922 30.892C148.554 30.34 150.27 29.716 152.07 29.02C153.87 28.3 155.43 27.664 156.75 27.112C158.07 26.56 158.73 26.284 158.73 26.284L159.738 19.048H169.602L168.522 27.112H170.214C170.214 27.112 170.622 27.352 171.438 27.832C172.278 28.288 173.322 28.816 174.57 29.416C175.818 30.016 177.114 30.544 178.458 31C179.802 31.48 181.002 31.72 182.058 31.72ZM192.958 32.26C192.862 32.836 192.61 33.292 192.202 33.628C191.794 33.988 191.326 34.168 190.798 34.168H188.098L190.186 22.72C190.306 22.072 190.594 21.544 191.05 21.136C191.506 20.752 192.046 20.56 192.67 20.56H195.082L192.958 32.26ZM197.206 16.42L197.494 14.44H190.654L190.906 12.532C190.954 12.22 191.098 11.968 191.338 11.776C191.53 11.656 191.734 11.596 191.95 11.596H193.174L193.318 5.548H198.142C198.622 5.548 199.042 5.716 199.402 6.052C199.762 6.364 199.954 6.772 199.978 7.276L199.762 11.596H203.218L204.298 6.808C204.682 5.968 205.27 5.548 206.062 5.548H211.282L209.77 11.596H211.966L211.714 13.396C211.666 13.684 211.522 13.936 211.282 14.152C211.066 14.344 210.802 14.44 210.49 14.44H204.586L204.298 16.42H211.066L210.886 17.824C210.814 18.256 210.634 18.604 210.346 18.868C210.034 19.132 209.686 19.264 209.302 19.264H203.902L202.39 30.712C202.246 31.792 201.826 32.716 201.13 33.484C200.434 34.228 199.546 34.6 198.466 34.6H194.758L196.81 19.264H190.186L190.402 17.68C190.45 17.32 190.618 17.02 190.906 16.78C191.17 16.54 191.47 16.42 191.806 16.42H197.206ZM199.294 1.84L199.474 0.651998H205.45C205.69 0.651998 205.906 0.747998 206.098 0.939999C206.266 1.156 206.326 1.408 206.278 1.696V1.84H212.83L212.578 3.604C212.53 3.916 212.398 4.168 212.182 4.36C211.966 4.576 211.714 4.684 211.426 4.684H192.382L192.598 3.1C192.67 2.74 192.838 2.44 193.102 2.2C193.366 1.96 193.678 1.84 194.038 1.84H199.294ZM208.582 32.152C208.51 32.728 208.27 33.208 207.862 33.592C207.478 33.976 206.998 34.168 206.422 34.168H203.83L204.838 22.468C204.886 21.916 205.114 21.46 205.522 21.1C205.906 20.74 206.35 20.56 206.854 20.56H209.626L208.582 32.152ZM221.65 0.975998H214.522L209.914 34.6H213.37C214.402 34.6 215.338 34.216 216.178 33.448C217.042 32.68 217.546 31.756 217.69 30.676L220.066 12.784H223.486L220.57 34.6H227.698L230.578 12.784H231.226C231.49 12.784 231.718 12.7 231.91 12.532C232.102 12.364 232.222 12.148 232.27 11.884L232.486 9.94H220.498L221.65 0.975998ZM222.262 0.975998L221.938 3.856H230.398C231.214 3.856 231.91 3.58 232.486 3.028C233.086 2.5 233.446 1.816 233.566 0.975998H222.262ZM240.255 2.56H256.599L256.311 4.576C256.263 4.912 256.119 5.188 255.879 5.404C255.639 5.62 255.363 5.728 255.051 5.728H250.911L247.707 29.524L252.999 29.128L252.639 31.576C252.591 32.008 252.423 32.356 252.135 32.62C251.847 32.908 251.499 33.064 251.091 33.088L234.675 34.312L234.999 31.756C235.071 31.372 235.239 31.048 235.503 30.784C235.767 30.52 236.091 30.376 236.475 30.352L240.399 30.028L243.675 5.728H238.527L238.779 3.892C238.851 3.508 239.019 3.196 239.283 2.956C239.571 2.692 239.895 2.56 240.255 2.56ZM253.863 34.6L261.063 6.556H257.607L258.039 3.388H261.819L262.287 1.48C262.335 1.24 262.455 1.048 262.647 0.903999C262.839 0.735998 263.055 0.651998 263.295 0.651998H269.451L268.803 3.388H278.631C279.159 3.388 279.591 3.592 279.927 4C280.263 4.408 280.395 4.888 280.323 5.44L276.903 30.604C276.759 31.708 276.267 32.644 275.427 33.412C274.587 34.204 273.627 34.6 272.547 34.6H266.391L266.607 32.836C266.655 32.5 266.787 32.224 267.003 32.008C267.243 31.816 267.519 31.72 267.831 31.72H268.263C268.623 31.72 268.947 31.588 269.235 31.324C269.499 31.06 269.655 30.748 269.703 30.388L272.943 6.556H268.047L262.647 27.58C262.071 29.692 260.979 31.384 259.371 32.656C257.763 33.952 255.927 34.6 253.863 34.6ZM292.304 14.368L292.664 11.668H306.272L303.752 30.64C303.608 31.768 303.128 32.716 302.312 33.484C301.496 34.228 300.572 34.6 299.54 34.6H292.448L292.556 33.772C292.676 33.148 292.952 32.644 293.384 32.26C293.816 31.852 294.32 31.648 294.896 31.648H295.76C295.856 31.648 295.952 31.636 296.048 31.612C296.144 31.564 296.24 31.504 296.336 31.432C296.432 31.336 296.504 31.252 296.552 31.18C296.576 31.084 296.6 30.976 296.624 30.856L297.128 27.148H289.784L289.208 31.36C289.064 32.296 288.632 33.064 287.912 33.664C287.216 34.288 286.4 34.6 285.464 34.6H281.684L284.78 11.668H291.836L291.044 17.644H298.424L298.856 14.368H292.304ZM299.504 2.74H303.284C304.052 2.74 304.724 3.016 305.3 3.568C305.876 4.12 306.2 4.816 306.272 5.656L306.632 10.768H300.044L299.936 9.544L286.724 10.444C286.292 10.468 285.932 10.384 285.644 10.192C285.356 10 285.14 9.748 284.996 9.436C284.876 9.1 284.828 8.74 284.852 8.356C284.876 7.972 284.984 7.6 285.176 7.24L288.164 1.696C288.62 0.999999 289.184 0.651998 289.856 0.651998H296.192L293.348 6.412C293.252 6.532 293.252 6.688 293.348 6.88C293.396 7.024 293.516 7.096 293.708 7.096L299.684 6.592L299.504 2.74ZM297.524 24.196L298.028 20.596H290.648L290.18 24.196H297.524ZM314.732 16.24L314.156 20.272L324.848 18.94C324.728 19.804 324.38 20.536 323.804 21.136C323.228 21.712 322.532 22.048 321.716 22.144L313.796 23.152L312.824 30.424C312.776 30.784 312.86 31.084 313.076 31.324C313.292 31.54 313.58 31.648 313.94 31.648H320.276C321.044 31.648 321.668 31.936 322.148 32.512C322.628 33.088 322.82 33.784 322.724 34.6H308.936C307.904 34.6 307.076 34.228 306.452 33.484C305.804 32.716 305.552 31.768 305.696 30.64L307.676 16.24H314.732ZM326.108 3.82C325.556 4.396 324.872 4.744 324.056 4.864L316.136 5.836L315.488 10.588C315.44 10.948 315.524 11.236 315.74 11.452C315.956 11.668 316.244 11.776 316.604 11.776H322.94C323.708 11.776 324.332 12.064 324.812 12.64C325.292 13.216 325.484 13.912 325.388 14.728H311.6C310.544 14.728 309.704 14.356 309.08 13.612C308.456 12.844 308.216 11.908 308.36 10.804L309.728 0.651998H316.82L316.496 2.992L327.152 1.66C327.008 2.524 326.66 3.244 326.108 3.82Z" fill="white"/>
</svg>
