<svg width="234" height="35" viewBox="0 0 234 35" fill="none" xmlns="http://www.w3.org/2000/svg">
<path d="M5.688 2.2H21.6L21.816 0.651998H27.54C27.924 0.651998 28.248 0.807998 28.512 1.12C28.752 1.408 28.848 1.768 28.8 2.2H46.152L46.008 3.316C45.936 3.82 45.72 4.24 45.36 4.576C44.976 4.888 44.544 5.044 44.064 5.044H18.432L12.636 14.908C12.444 15.148 12.396 15.34 12.492 15.484C12.588 15.652 12.744 15.736 12.96 15.736L35.028 15.16L33.516 9.796H38.016C39.864 9.796 41.184 10.792 41.976 12.784L43.776 19.264H37.188C36.612 19.264 36.168 18.928 35.856 18.256L35.748 17.896L5.616 18.616C5.016 18.616 4.536 18.496 4.176 18.256C3.816 18.016 3.552 17.716 3.384 17.356C3.24 16.972 3.204 16.564 3.276 16.132C3.372 15.7 3.576 15.292 3.888 14.908L9.756 5.044H3.888L4.068 3.676C4.14 3.244 4.32 2.896 4.608 2.632C4.92 2.344 5.28 2.2 5.688 2.2ZM0.684 34.6L8.1 20.416H17.532L11.556 32.08C10.548 33.76 9.18 34.6 7.452 34.6H0.684ZM36.576 20.416L35.28 29.992C35.208 30.496 35.316 30.916 35.604 31.252C35.868 31.588 36.252 31.756 36.756 31.756H40.392C40.872 31.756 41.28 31.912 41.616 32.224C41.976 32.56 42.18 32.968 42.228 33.448L42.336 34.6H29.7C28.668 34.6 27.828 34.216 27.18 33.448C26.508 32.704 26.244 31.768 26.388 30.64L27.828 20.416H36.576ZM59.753 4.252C59.321 4.252 58.973 4.456 58.709 4.864L56.657 8.68H48.557L51.869 2.416C52.709 1.24 53.789 0.651998 55.109 0.651998H86.753C88.241 0.651998 89.393 1.384 90.209 2.848L92.945 8.68H85.205L83.369 5.152C82.985 4.552 82.481 4.252 81.857 4.252H59.753ZM52.193 11.632C52.553 10.768 53.153 10.336 53.993 10.336H88.373L88.013 12.82C87.941 13.132 87.785 13.384 87.545 13.576C87.329 13.792 87.065 13.9 86.753 13.9H51.689L52.193 11.632ZM48.557 19.336C48.941 19.024 49.373 18.868 49.853 18.868H91.109L90.821 20.596C90.701 21.172 90.425 21.64 89.993 22C89.561 22.36 89.069 22.54 88.517 22.54H61.517L58.997 29.092C58.877 29.428 58.889 29.704 59.033 29.92C59.153 30.184 59.381 30.316 59.717 30.316L80.165 29.056L81.641 32.8L51.437 34.6C50.405 34.6 49.613 34.216 49.061 33.448C48.533 32.68 48.449 31.816 48.809 30.856L52.697 22.54H47.477L47.837 20.56C47.933 20.056 48.173 19.648 48.557 19.336ZM86.825 26.032L89.237 34.6H80.957L78.257 24.448H84.665C85.649 24.448 86.369 24.976 86.825 26.032ZM102.442 11.308C101.482 11.308 100.69 10.936 100.066 10.192C99.4659 9.496 99.2259 8.644 99.3459 7.636L100.318 0.687998H107.914L107.518 3.568V3.604L107.374 4.612V4.684L107.05 6.952C106.978 7.36 107.05 7.708 107.266 7.996C107.434 8.284 107.71 8.428 108.094 8.428H130.126C130.486 8.428 130.81 8.284 131.098 7.996C131.386 7.708 131.566 7.36 131.638 6.952L132.106 3.568H108.67L109.066 0.687998H139.846L138.874 7.636C138.754 8.644 138.298 9.496 137.506 10.192C136.738 10.936 135.874 11.308 134.914 11.308H102.442ZM104.134 19.912L102.946 28.552H95.6019L97.2219 16.816C97.3659 15.712 97.8579 14.764 98.6979 13.972C99.5379 13.156 100.522 12.748 101.65 12.748H105.142L104.458 17.608L104.134 19.876V19.912ZM130.054 16.204H106.366L106.834 12.748H135.346C136.45 12.748 137.326 13.156 137.974 13.972C138.622 14.764 138.874 15.712 138.73 16.816L137.11 28.552H130.954C130.642 28.552 130.378 28.444 130.162 28.228C129.97 27.988 129.898 27.688 129.946 27.328L131.278 17.608C131.326 17.248 131.23 16.924 130.99 16.636C130.75 16.348 130.438 16.204 130.054 16.204ZM135.058 31.72H136.966L136.57 34.564H129.658C129.106 34.564 128.098 34.384 126.634 34.024C125.194 33.688 123.67 33.292 122.062 32.836C120.454 32.404 119.062 32.008 117.886 31.648C116.71 31.312 116.122 31.144 116.122 31.144C116.122 31.144 115.51 31.312 114.286 31.648C113.086 32.008 111.622 32.404 109.894 32.836C108.19 33.292 106.522 33.688 104.89 34.024C103.258 34.384 102.034 34.564 101.218 34.564H94.1979L94.5939 31.72H96.6459C97.2219 31.72 98.3139 31.444 99.9219 30.892C101.554 30.34 103.27 29.716 105.07 29.02C106.87 28.3 108.43 27.664 109.75 27.112C111.07 26.56 111.73 26.284 111.73 26.284L112.738 19.048H122.602L121.522 27.112H123.214C123.214 27.112 123.622 27.352 124.438 27.832C125.278 28.288 126.322 28.816 127.57 29.416C128.818 30.016 130.114 30.544 131.458 31C132.802 31.48 134.002 31.72 135.058 31.72ZM186.566 1.948L186.53 2.236C186.41 2.956 186.074 3.556 185.522 4.036C184.97 4.492 184.322 4.72 183.578 4.72H164.606L165.002 1.948H186.566ZM151.934 29.524L152.474 25.924L152.798 23.728L156.074 1.948H163.742L163.31 4.72L163.166 5.872L162.914 7.42H185.738L185.198 11.056L176.054 20.632L182.714 29.488H179.294C176.222 29.488 173.63 28.216 171.518 25.672L170.942 26.284C168.878 28.42 166.454 29.488 163.67 29.488H159.17L167.486 20.308L161.978 13.648L160.178 25.708C160.01 26.764 159.482 27.664 158.594 28.408C157.706 29.152 156.686 29.524 155.534 29.524H151.934ZM162.518 10.156L162.194 12.172H167.378C168.554 12.172 169.538 12.664 170.33 13.648L171.95 15.808L177.026 10.156H162.518ZM150.89 30.244C151.154 30.34 151.406 30.388 151.646 30.388L183.65 31.432C183.434 32.488 183.026 33.268 182.426 33.772C181.826 34.276 181.118 34.528 180.302 34.528L148.694 33.52L148.55 33.736C148.262 34.144 147.902 34.396 147.47 34.492C147.038 34.588 146.558 34.624 146.03 34.6C145.934 34.6 145.838 34.6 145.742 34.6H141.098L144.734 10.768H142.178L142.358 9.328C142.43 8.968 142.61 8.668 142.898 8.428C143.186 8.188 143.522 8.068 143.906 8.068H152.438L149.594 28.336C149.546 28.624 149.582 28.888 149.702 29.128C149.822 29.392 149.978 29.608 150.17 29.776C150.386 29.968 150.626 30.124 150.89 30.244ZM147.866 6.124C146.738 5.668 145.934 4.924 145.454 3.892C144.998 2.836 144.974 1.756 145.382 0.651998L152.546 3.352L150.962 7.312L147.866 6.124ZM210.175 3.604L209.815 5.908L203.767 14.8H205.387C206.419 14.8 207.139 15.376 207.547 16.528L209.887 25.06H208.051C205.555 25.06 203.767 23.668 202.687 20.884L202.543 20.38L200.383 34.564H191.923L193.291 25.276H187.891L201.031 5.512H191.599L191.959 3.46C192.007 3.244 192.127 3.052 192.319 2.884C192.535 2.74 192.775 2.668 193.039 2.668H197.215L197.323 2.02C197.395 1.612 197.611 1.288 197.971 1.048C198.307 0.783998 198.715 0.651998 199.195 0.651998H205.963L205.639 2.668H209.239C209.527 2.668 209.767 2.764 209.959 2.956C210.175 3.148 210.247 3.364 210.175 3.604ZM215.107 34.6C213.715 34.6 212.623 34.18 211.831 33.34C210.991 32.5 210.667 31.456 210.859 30.208L215.467 0.723999H221.695C222.247 0.723999 222.703 0.903999 223.063 1.264C223.423 1.624 223.579 2.056 223.531 2.56L219.283 29.56C219.211 29.896 219.295 30.196 219.535 30.46C219.751 30.724 220.063 30.856 220.471 30.856H230.551C231.439 30.856 232.159 31.216 232.711 31.936C232.975 32.32 233.155 32.752 233.251 33.232C233.371 33.712 233.407 34.168 233.359 34.6H215.107Z" fill="white"/>
</svg>
