<svg width="280" height="35" viewBox="0 0 280 35" fill="none" xmlns="http://www.w3.org/2000/svg">
<path d="M1.65952 24.016H3.42352L4.71952 14.476C4.76752 14.068 4.89952 13.66 5.11552 13.252C5.35552 12.844 5.65552 12.472 6.01552 12.136C6.37552 11.8 6.79552 11.524 7.27552 11.308C7.73152 11.116 8.22352 11.02 8.75152 11.02H21.8555L22.5755 5.692H11.3435L10.8755 6.7C10.1315 8.044 9.14752 8.716 7.92352 8.716H2.81152L6.15952 0.651998H13.3595L12.8195 1.804H44.8955L44.6075 4.108C44.5355 4.54 44.3315 4.912 43.9955 5.224C43.6595 5.536 43.2875 5.692 42.8795 5.692H30.5315L29.8115 11.02H42.9515L42.6275 13.18C42.5555 13.66 42.3395 14.068 41.9795 14.404C41.6435 14.716 41.2595 14.872 40.8275 14.872H29.2715L28.0475 24.016H42.4475L42.1955 25.924C42.0995 26.476 41.8475 26.944 41.4395 27.328C41.0315 27.712 40.5515 27.904 39.9995 27.904H27.5075L26.6075 34.6H18.6875L19.5875 27.904H0.111516L0.471516 25.168C0.519516 24.856 0.651516 24.592 0.867516 24.376C1.10752 24.136 1.37152 24.016 1.65952 24.016ZM10.6235 24.016H20.1275L21.3515 14.872H12.8195C12.5555 14.872 12.3155 14.98 12.0995 15.196C11.8835 15.436 11.7515 15.688 11.7035 15.952L10.6235 24.016ZM74.9485 28.552L84.3445 31.504C84.8485 31.648 85.3645 31.72 85.8925 31.72H88.1245L87.7645 34.6H82.4005C81.3445 34.6 80.3005 34.456 79.2685 34.168L68.2885 31.144L55.2565 34.348C54.6085 34.516 53.9485 34.6 53.2765 34.6H46.5805L46.9765 31.684H48.8485C49.6645 31.684 50.4685 31.576 51.2605 31.36L64.2205 27.904L64.9765 22.288H72.1765L71.3125 28.552H74.9485ZM56.1565 18.688L54.5725 29.92H47.4085L48.4525 22.648C48.5965 21.52 49.1005 20.584 49.9645 19.84C50.8045 19.072 51.7525 18.688 52.8085 18.688H56.1565ZM86.1085 18.688C87.1645 18.688 88.0165 19.072 88.6645 19.84C89.2885 20.584 89.5285 21.52 89.3845 22.648L88.3405 29.92H81.1405L82.1845 22.72C82.2325 22.336 82.1485 22.024 81.9325 21.784C81.7165 21.52 81.4285 21.388 81.0685 21.388H57.0925L57.4525 18.688H86.1085ZM80.1685 10.768H91.1485L90.6445 14.584C90.5245 15.448 90.1285 16.18 89.4565 16.78C88.8085 17.38 88.0645 17.68 87.2245 17.68H81.4645L81.6445 16.42C81.6685 16.156 81.7765 15.94 81.9685 15.772C82.1605 15.604 82.3885 15.52 82.6525 15.52C82.8445 15.52 83.0005 15.46 83.1205 15.34C83.2645 15.196 83.3485 15.04 83.3725 14.872L83.5885 13.144H79.8445L79.3045 17.104C79.2565 17.344 79.1485 17.548 78.9805 17.716C78.8125 17.86 78.6205 17.932 78.4045 17.932H71.9965L72.6445 13.144H66.7765L66.5965 14.548C66.4525 15.604 65.9245 16.432 65.0125 17.032C64.0765 17.632 63.0565 17.932 61.9525 17.932H48.6325C48.7525 17.188 49.0765 16.588 49.6045 16.132C50.1325 15.676 50.7445 15.448 51.4405 15.448H58.0645C58.8805 15.448 59.3365 15.124 59.4325 14.476L59.6125 13.144H51.7285C51.1525 13.144 50.6845 12.928 50.3245 12.496C49.9645 12.064 49.8205 11.548 49.8925 10.948L50.5045 6.376H57.7045L57.3805 8.788L57.3445 9.148L57.2005 10.084C57.1765 10.252 57.2125 10.408 57.3085 10.552C57.4525 10.696 57.6085 10.768 57.7765 10.768H59.9005L60.1885 8.788H58.1005L58.4245 6.376H60.5125L60.8365 4.072H53.0245C52.4005 4.072 51.8965 3.844 51.5125 3.388C51.1285 2.908 50.9605 2.344 51.0085 1.696H61.1245C61.1725 1.384 61.3045 1.132 61.5205 0.939999C61.7605 0.747998 62.0245 0.651998 62.3125 0.651998H68.4685L68.3245 1.696H74.1925C74.2405 1.384 74.3725 1.132 74.5885 0.939999C74.8045 0.747998 75.0685 0.651998 75.3805 0.651998H81.5365L81.3925 1.696H92.0485L91.4725 5.908C91.3525 6.748 90.9685 7.432 90.3205 7.96C89.6725 8.512 88.9285 8.788 88.0885 8.788H80.4205L80.1685 10.768ZM81.0685 4.072L80.7445 6.376H83.5525C83.7445 6.376 83.9005 6.304 84.0205 6.16C84.1645 6.04 84.2485 5.896 84.2725 5.728L84.4885 4.072H81.0685ZM72.9685 10.768L73.2205 8.788H67.3885L67.1005 10.768H72.9685ZM73.5805 6.376L73.8685 4.072H68.0005L67.7125 6.376H73.5805ZM105.649 4.252C105.217 4.252 104.869 4.456 104.605 4.864L102.553 8.68H94.4535L97.7655 2.416C98.6055 1.24 99.6855 0.651998 101.005 0.651998H132.649C134.137 0.651998 135.289 1.384 136.105 2.848L138.841 8.68H131.101L129.265 5.152C128.881 4.552 128.377 4.252 127.753 4.252H105.649ZM98.0895 11.632C98.4495 10.768 99.0495 10.336 99.8895 10.336H134.269L133.909 12.82C133.837 13.132 133.681 13.384 133.441 13.576C133.225 13.792 132.961 13.9 132.649 13.9H97.5855L98.0895 11.632ZM94.4535 19.336C94.8375 19.024 95.2695 18.868 95.7495 18.868H137.005L136.717 20.596C136.597 21.172 136.321 21.64 135.889 22C135.457 22.36 134.965 22.54 134.413 22.54H107.413L104.893 29.092C104.773 29.428 104.785 29.704 104.929 29.92C105.049 30.184 105.277 30.316 105.613 30.316L126.061 29.056L127.537 32.8L97.3335 34.6C96.3015 34.6 95.5095 34.216 94.9575 33.448C94.4295 32.68 94.3455 31.816 94.7055 30.856L98.5935 22.54H93.3735L93.7335 20.56C93.8295 20.056 94.0695 19.648 94.4535 19.336ZM132.721 26.032L135.133 34.6H126.853L124.153 24.448H130.561C131.545 24.448 132.265 24.976 132.721 26.032ZM148.338 11.308C147.378 11.308 146.586 10.936 145.962 10.192C145.362 9.496 145.122 8.644 145.242 7.636L146.214 0.687998H153.81L153.414 3.568V3.604L153.27 4.612V4.684L152.946 6.952C152.874 7.36 152.946 7.708 153.162 7.996C153.33 8.284 153.606 8.428 153.99 8.428H176.022C176.382 8.428 176.706 8.284 176.994 7.996C177.282 7.708 177.462 7.36 177.534 6.952L178.002 3.568H154.566L154.962 0.687998H185.742L184.77 7.636C184.65 8.644 184.194 9.496 183.402 10.192C182.634 10.936 181.77 11.308 180.81 11.308H148.338ZM150.03 19.912L148.842 28.552H141.498L143.118 16.816C143.262 15.712 143.754 14.764 144.594 13.972C145.434 13.156 146.418 12.748 147.546 12.748H151.038L150.354 17.608L150.03 19.876V19.912ZM175.95 16.204H152.262L152.73 12.748H181.242C182.346 12.748 183.222 13.156 183.87 13.972C184.518 14.764 184.77 15.712 184.626 16.816L183.006 28.552H176.85C176.538 28.552 176.274 28.444 176.058 28.228C175.866 27.988 175.794 27.688 175.842 27.328L177.174 17.608C177.222 17.248 177.126 16.924 176.886 16.636C176.646 16.348 176.334 16.204 175.95 16.204ZM180.954 31.72H182.862L182.466 34.564H175.554C175.002 34.564 173.994 34.384 172.53 34.024C171.09 33.688 169.566 33.292 167.958 32.836C166.35 32.404 164.958 32.008 163.782 31.648C162.606 31.312 162.018 31.144 162.018 31.144C162.018 31.144 161.406 31.312 160.182 31.648C158.982 32.008 157.518 32.404 155.79 32.836C154.086 33.292 152.418 33.688 150.786 34.024C149.154 34.384 147.93 34.564 147.114 34.564H140.094L140.49 31.72H142.542C143.118 31.72 144.21 31.444 145.818 30.892C147.45 30.34 149.166 29.716 150.966 29.02C152.766 28.3 154.326 27.664 155.646 27.112C156.966 26.56 157.626 26.284 157.626 26.284L158.634 19.048H168.498L167.418 27.112H169.11C169.11 27.112 169.518 27.352 170.334 27.832C171.174 28.288 172.218 28.816 173.466 29.416C174.714 30.016 176.01 30.544 177.354 31C178.698 31.48 179.898 31.72 180.954 31.72ZM204.131 3.604L203.843 5.908L199.199 14.836H200.459C201.251 14.836 201.803 15.4 202.115 16.528L203.915 25.096H202.511C200.591 25.096 199.211 23.704 198.371 20.92L198.263 20.416L196.607 34.6H190.091L191.135 25.312H186.995L197.075 5.512H189.875L190.127 3.46C190.151 3.244 190.247 3.052 190.415 2.884C190.559 2.74 190.739 2.668 190.955 2.668H194.159L194.231 2.056C194.303 1.648 194.471 1.312 194.735 1.048C194.999 0.783998 195.323 0.651998 195.707 0.651998H200.891L200.639 2.668H203.411C203.627 2.668 203.807 2.764 203.951 2.956C204.119 3.148 204.179 3.364 204.131 3.604ZM224.075 7.708H214.895L215.255 4.792H231.311L230.375 12.064C230.255 13.048 229.835 13.888 229.115 14.584C228.395 15.28 227.591 15.628 226.703 15.628H209.423C208.535 15.628 207.815 15.28 207.263 14.584C206.711 13.888 206.495 13.048 206.615 12.064L207.551 4.792H214.427L214.067 7.708L213.959 8.5L213.527 11.848C213.503 12.088 213.563 12.292 213.707 12.46C213.827 12.652 213.995 12.748 214.211 12.748H222.599C222.815 12.748 223.019 12.652 223.211 12.46C223.403 12.292 223.511 12.088 223.535 11.848L224.075 7.708ZM212.519 19.696L212.879 16.78H230.339L228.575 30.604C228.431 31.708 227.951 32.656 227.135 33.448C226.343 34.216 225.431 34.6 224.399 34.6H206.831C205.823 34.6 205.007 34.216 204.383 33.448C203.759 32.656 203.519 31.708 203.663 30.604L205.463 16.78H212.123L211.763 19.696L211.655 20.452L211.223 23.656H213.563L214.067 19.696H212.519ZM212.519 31.72L213.167 26.572H210.863L210.359 30.388C210.311 30.748 210.395 31.06 210.611 31.324C210.803 31.588 211.079 31.72 211.439 31.72H212.519ZM220.979 19.696L220.475 23.656H222.779L223.283 19.696H220.979ZM220.115 26.572L219.431 31.72H220.547C220.883 31.72 221.183 31.588 221.447 31.324C221.711 31.06 221.867 30.748 221.915 30.388L222.419 26.572H220.115ZM207.335 2.056C207.407 1.648 207.575 1.324 207.839 1.084C208.103 0.819998 208.415 0.687998 208.775 0.687998H232.463L232.247 2.2C232.199 2.584 232.031 2.908 231.743 3.172C231.479 3.436 231.167 3.568 230.807 3.568H207.155L207.335 2.056ZM237.676 14.62C237.796 13.996 238.084 13.504 238.54 13.144C238.996 12.76 239.524 12.568 240.124 12.568H243.256L239.44 32.224C239.296 32.944 238.96 33.52 238.432 33.952C237.904 34.384 237.304 34.6 236.632 34.6H233.788L237.676 14.62ZM244.948 10.84H236.884L237.136 9.112C237.184 8.776 237.328 8.512 237.568 8.32C237.808 8.104 238.096 7.996 238.432 7.996H245.344L245.92 3.676H238.144L238.216 3.028C238.312 2.38 238.588 1.852 239.044 1.444C239.5 1.012 240.04 0.795998 240.664 0.795998H261.256L261.148 1.516C261.028 2.212 260.692 2.776 260.14 3.208C259.708 3.52 259.24 3.676 258.736 3.676H253.084L252.508 7.996H260.5L260.392 8.896C260.296 9.472 260.056 9.94 259.672 10.3C259.264 10.66 258.796 10.84 258.268 10.84H252.076L248.872 34.6H241.744L244.948 10.84ZM253.084 15.34C253.18 14.524 253.492 13.864 254.02 13.36C254.548 12.832 255.196 12.568 255.964 12.568H258.52L257.044 31.828C256.972 32.62 256.66 33.28 256.108 33.808C255.556 34.336 254.896 34.6 254.128 34.6H251.608L253.084 15.34ZM263.056 4.72C263.2 3.736 263.632 2.932 264.352 2.308C265.048 1.66 265.864 1.336 266.8 1.336H269.356L265.936 26.176C265.792 27.208 265.36 28.06 264.64 28.732C263.896 29.404 263.032 29.74 262.048 29.74H259.672L263.056 4.72ZM273.712 33.448C272.872 34.216 271.924 34.6 270.868 34.6H261.4L261.472 33.844C261.568 33.244 261.832 32.74 262.264 32.332C262.696 31.948 263.212 31.756 263.812 31.756H266.656C267.016 31.756 267.328 31.624 267.592 31.36C267.856 31.096 268.012 30.784 268.06 30.424L271.588 4.324C271.756 3.268 272.224 2.392 272.992 1.696C273.736 0.999999 274.624 0.651998 275.656 0.651998H279.256L275.224 30.64C275.056 31.744 274.552 32.68 273.712 33.448Z" fill="white"/>
</svg>
