<svg width="233" height="35" viewBox="0 0 233 35" fill="none" xmlns="http://www.w3.org/2000/svg">
<path d="M30.104 31.648H39.752C40.544 31.648 41.18 31.936 41.66 32.512C42.164 33.112 42.38 33.808 42.308 34.6H25.28C24.176 34.6 23.264 34.228 22.544 33.484C21.8 32.716 21.524 31.648 21.716 30.28L22.652 23.404L11.996 32.26C10.196 33.724 8.132 34.468 5.804 34.492H0.08L16.82 20.344H6.704C5.624 20.344 4.772 19.948 4.148 19.156C3.5 18.364 3.248 17.392 3.392 16.24L4.652 6.7H11.924L11.528 9.652L11.204 12.028L10.736 15.556C10.688 16.084 10.796 16.516 11.06 16.852C11.348 17.212 11.72 17.392 12.176 17.392H19.844L20.888 9.652H12.716L13.112 6.7H31.58L34.856 3.568H13.22L11.42 5.692H4.364L7.46 1.588C7.988 0.939999 8.636 0.615999 9.404 0.615999H43.388C43.7 0.615999 43.916 0.771999 44.036 1.084C44.156 1.372 44.096 1.648 43.856 1.912L39.176 6.7H44.72L43.496 16.132C43.328 17.356 42.812 18.388 41.948 19.228C41.108 19.972 40.16 20.344 39.104 20.344H25.964L23.768 22.36H27.584C28.232 22.36 28.76 22.612 29.168 23.116C29.6 23.596 29.78 24.172 29.708 24.844L28.952 30.28C28.904 30.712 28.976 31.048 29.168 31.288C29.36 31.528 29.672 31.648 30.104 31.648ZM28.124 9.652L27.116 17.392H34.352C34.856 17.392 35.288 17.212 35.648 16.852C36.032 16.516 36.26 16.084 36.332 15.556L37.088 9.652H28.124ZM74.845 28.552L84.241 31.504C84.745 31.648 85.261 31.72 85.789 31.72H88.021L87.661 34.6H82.297C81.241 34.6 80.197 34.456 79.165 34.168L68.185 31.144L55.153 34.348C54.505 34.516 53.845 34.6 53.173 34.6H46.477L46.873 31.684H48.745C49.561 31.684 50.365 31.576 51.157 31.36L64.117 27.904L64.873 22.288H72.073L71.209 28.552H74.845ZM56.053 18.688L54.469 29.92H47.305L48.349 22.648C48.493 21.52 48.997 20.584 49.861 19.84C50.701 19.072 51.649 18.688 52.705 18.688H56.053ZM86.005 18.688C87.061 18.688 87.913 19.072 88.561 19.84C89.185 20.584 89.425 21.52 89.281 22.648L88.237 29.92H81.037L82.081 22.72C82.129 22.336 82.045 22.024 81.829 21.784C81.613 21.52 81.325 21.388 80.965 21.388H56.989L57.349 18.688H86.005ZM80.065 10.768H91.045L90.541 14.584C90.421 15.448 90.025 16.18 89.353 16.78C88.705 17.38 87.961 17.68 87.121 17.68H81.361L81.541 16.42C81.565 16.156 81.673 15.94 81.865 15.772C82.057 15.604 82.285 15.52 82.549 15.52C82.741 15.52 82.897 15.46 83.017 15.34C83.161 15.196 83.245 15.04 83.269 14.872L83.485 13.144H79.741L79.201 17.104C79.153 17.344 79.045 17.548 78.877 17.716C78.709 17.86 78.517 17.932 78.301 17.932H71.893L72.541 13.144H66.673L66.493 14.548C66.349 15.604 65.821 16.432 64.909 17.032C63.973 17.632 62.953 17.932 61.849 17.932H48.529C48.649 17.188 48.973 16.588 49.501 16.132C50.029 15.676 50.641 15.448 51.337 15.448H57.961C58.777 15.448 59.233 15.124 59.329 14.476L59.509 13.144H51.625C51.049 13.144 50.581 12.928 50.221 12.496C49.861 12.064 49.717 11.548 49.789 10.948L50.401 6.376H57.601L57.277 8.788L57.241 9.148L57.097 10.084C57.073 10.252 57.109 10.408 57.205 10.552C57.349 10.696 57.505 10.768 57.673 10.768H59.797L60.085 8.788H57.997L58.321 6.376H60.409L60.733 4.072H52.921C52.297 4.072 51.793 3.844 51.409 3.388C51.025 2.908 50.857 2.344 50.905 1.696H61.021C61.069 1.384 61.201 1.132 61.417 0.939999C61.657 0.747998 61.921 0.651998 62.209 0.651998H68.365L68.221 1.696H74.089C74.137 1.384 74.269 1.132 74.485 0.939999C74.701 0.747998 74.965 0.651998 75.277 0.651998H81.433L81.289 1.696H91.945L91.369 5.908C91.249 6.748 90.865 7.432 90.217 7.96C89.569 8.512 88.825 8.788 87.985 8.788H80.317L80.065 10.768ZM80.965 4.072L80.641 6.376H83.449C83.641 6.376 83.797 6.304 83.917 6.16C84.061 6.04 84.145 5.896 84.169 5.728L84.385 4.072H80.965ZM72.865 10.768L73.117 8.788H67.285L66.997 10.768H72.865ZM73.477 6.376L73.765 4.072H67.897L67.609 6.376H73.477ZM103.89 3.676C103.674 3.676 103.47 3.748 103.278 3.892C103.11 4.036 102.978 4.228 102.882 4.468L101.226 10.012H94.5659L96.6179 3.244C96.8819 2.476 97.3139 1.876 97.9139 1.444C98.5379 1.012 99.1859 0.795998 99.8579 0.795998H112.494C113.142 0.795998 113.718 1.012 114.222 1.444C114.702 1.876 114.966 2.476 115.014 3.244L115.23 10.012H108.534L108.39 4.468C108.366 4.228 108.294 4.036 108.174 3.892C108.03 3.748 107.85 3.676 107.634 3.676H103.89ZM113.682 17.428L109.65 31.576C109.506 32.08 109.29 32.512 109.002 32.872C108.714 33.208 108.378 33.508 107.994 33.772C107.61 34.012 107.214 34.192 106.806 34.312C106.398 34.432 105.978 34.492 105.546 34.492H96.7619C95.9459 34.492 95.1899 34.252 94.4939 33.772C93.7979 33.268 93.4379 32.536 93.4139 31.576L93.2699 28.084H98.0219C98.5019 28.084 98.8979 28.252 99.2099 28.588C99.5459 28.924 99.7259 29.332 99.7499 29.812V31.036C99.7739 31.348 99.8699 31.576 100.038 31.72C100.182 31.888 100.386 31.972 100.65 31.972H101.946C102.186 31.972 102.426 31.9 102.666 31.756C102.882 31.612 103.05 31.396 103.17 31.108L107.022 17.068H93.8819L94.2419 14.404C94.2659 14.188 94.3619 14.008 94.5299 13.864C94.6979 13.72 94.8779 13.648 95.0699 13.648H114.222L113.682 17.428ZM102.342 12.388L102.45 7.924H106.194C106.698 7.924 107.106 8.104 107.418 8.464C107.754 8.8 107.922 9.22 107.922 9.724L107.886 12.388H102.342ZM117.714 34.6H112.242L121.314 23.8L123.114 10.804H129.99L128.082 24.88L126.498 27.22H129.738L133.842 34.6H127.362C126.93 34.6 126.594 34.42 126.354 34.06L123.978 30.208L121.278 32.98C120.198 34.06 119.01 34.6 117.714 34.6ZM118.11 0.868H138.558L138.27 2.956C138.246 3.196 138.15 3.388 137.982 3.532C137.814 3.652 137.622 3.712 137.406 3.712H131.178L130.89 5.764H134.562C135.498 5.764 136.23 6.112 136.758 6.808C137.286 7.48 137.49 8.308 137.37 9.292L135.138 25.42H129.702L131.898 9.508C131.922 9.268 131.874 9.064 131.754 8.896C131.61 8.704 131.43 8.608 131.214 8.608H122.502C122.262 8.608 122.058 8.704 121.89 8.896C121.698 9.064 121.59 9.268 121.566 9.508L119.37 25.42H113.934L116.166 9.292C116.286 8.308 116.706 7.48 117.426 6.808C118.17 6.112 118.998 5.764 119.91 5.764H123.582L123.87 3.712H116.886L117.138 1.696C117.186 1.456 117.294 1.264 117.462 1.12C117.654 0.951999 117.87 0.868 118.11 0.868ZM152.339 4.252C151.907 4.252 151.559 4.456 151.295 4.864L149.243 8.68H141.143L144.455 2.416C145.295 1.24 146.375 0.651998 147.695 0.651998H179.339C180.827 0.651998 181.979 1.384 182.795 2.848L185.531 8.68H177.791L175.955 5.152C175.571 4.552 175.067 4.252 174.443 4.252H152.339ZM144.779 11.632C145.139 10.768 145.739 10.336 146.579 10.336H180.959L180.599 12.82C180.527 13.132 180.371 13.384 180.131 13.576C179.915 13.792 179.651 13.9 179.339 13.9H144.275L144.779 11.632ZM141.143 19.336C141.527 19.024 141.959 18.868 142.439 18.868H183.695L183.407 20.596C183.287 21.172 183.011 21.64 182.579 22C182.147 22.36 181.655 22.54 181.103 22.54H154.103L151.583 29.092C151.463 29.428 151.475 29.704 151.619 29.92C151.739 30.184 151.967 30.316 152.303 30.316L172.751 29.056L174.227 32.8L144.023 34.6C142.991 34.6 142.199 34.216 141.647 33.448C141.119 32.68 141.035 31.816 141.395 30.856L145.283 22.54H140.063L140.423 20.56C140.519 20.056 140.759 19.648 141.143 19.336ZM179.411 26.032L181.823 34.6H173.543L170.843 24.448H177.251C178.235 24.448 178.955 24.976 179.411 26.032ZM195.028 11.308C194.068 11.308 193.276 10.936 192.652 10.192C192.052 9.496 191.812 8.644 191.932 7.636L192.904 0.687998H200.5L200.104 3.568V3.604L199.96 4.612V4.684L199.636 6.952C199.564 7.36 199.636 7.708 199.852 7.996C200.02 8.284 200.296 8.428 200.68 8.428H222.712C223.072 8.428 223.396 8.284 223.684 7.996C223.972 7.708 224.152 7.36 224.224 6.952L224.692 3.568H201.256L201.652 0.687998H232.432L231.46 7.636C231.34 8.644 230.884 9.496 230.092 10.192C229.324 10.936 228.46 11.308 227.5 11.308H195.028ZM196.72 19.912L195.532 28.552H188.188L189.808 16.816C189.952 15.712 190.444 14.764 191.284 13.972C192.124 13.156 193.108 12.748 194.236 12.748H197.728L197.044 17.608L196.72 19.876V19.912ZM222.64 16.204H198.952L199.42 12.748H227.932C229.036 12.748 229.912 13.156 230.56 13.972C231.208 14.764 231.46 15.712 231.316 16.816L229.696 28.552H223.54C223.228 28.552 222.964 28.444 222.748 28.228C222.556 27.988 222.484 27.688 222.532 27.328L223.864 17.608C223.912 17.248 223.816 16.924 223.576 16.636C223.336 16.348 223.024 16.204 222.64 16.204ZM227.644 31.72H229.552L229.156 34.564H222.244C221.692 34.564 220.684 34.384 219.22 34.024C217.78 33.688 216.256 33.292 214.648 32.836C213.04 32.404 211.648 32.008 210.472 31.648C209.296 31.312 208.708 31.144 208.708 31.144C208.708 31.144 208.096 31.312 206.872 31.648C205.672 32.008 204.208 32.404 202.48 32.836C200.776 33.292 199.108 33.688 197.476 34.024C195.844 34.384 194.62 34.564 193.804 34.564H186.784L187.18 31.72H189.232C189.808 31.72 190.9 31.444 192.508 30.892C194.14 30.34 195.856 29.716 197.656 29.02C199.456 28.3 201.016 27.664 202.336 27.112C203.656 26.56 204.316 26.284 204.316 26.284L205.324 19.048H215.188L214.108 27.112H215.8C215.8 27.112 216.208 27.352 217.024 27.832C217.864 28.288 218.908 28.816 220.156 29.416C221.404 30.016 222.7 30.544 224.044 31C225.388 31.48 226.588 31.72 227.644 31.72Z" fill="white"/>
</svg>
