<svg width="55" height="84" viewBox="0 0 55 84" fill="none" xmlns="http://www.w3.org/2000/svg">
<path d="M54.9898 57.6C54.9898 62.5333 53.8232 66.9667 51.4898 70.9C49.1565 74.8333 45.9232 77.9 41.7898 80.1C37.7232 82.3667 33.1232 83.5 27.9898 83.5C22.6565 83.5 17.9232 82.3667 13.7898 80.1C9.72318 77.9 6.55651 74.7333 4.28984 70.6C2.02318 66.4667 0.889844 61.6667 0.889844 56.2C0.889844 50.6 1.88984 45.2 3.88984 40C5.88984 34.7333 9.18984 28.7333 13.7898 22L28.2898 0.599998H42.2898L24.7898 25C22.1898 28.4667 20.0232 31.9333 18.2898 35.4C21.8232 33 25.7898 31.8 30.1898 31.8C34.9898 31.8 39.2565 32.9 42.9898 35.1C46.7898 37.3 49.7232 40.3667 51.7898 44.3C53.9232 48.1667 54.9898 52.6 54.9898 57.6ZM42.8898 57.6C42.8898 52.8667 41.5232 49.1333 38.7898 46.4C36.1232 43.6 32.5232 42.2 27.9898 42.2C23.4565 42.2 19.8232 43.6 17.0898 46.4C14.4232 49.1333 13.0898 52.8667 13.0898 57.6C13.0898 62.2667 14.4565 66.0333 17.1898 68.9C19.9232 71.7 23.5232 73.1 27.9898 73.1C32.3898 73.1 35.9565 71.7 38.6898 68.9C41.4898 66.0333 42.8898 62.2667 42.8898 57.6Z" fill="url(#paint0_linear_253_561)"/>
<defs>
<linearGradient id="paint0_linear_253_561" x1="28" y1="6.5" x2="28" y2="107" gradientUnits="userSpaceOnUse">
<stop stop-color="white"/>
<stop offset="0.805" stop-color="white" stop-opacity="0"/>
</linearGradient>
</defs>
</svg>
