<svg width="227" height="76" viewBox="0 0 227 76" fill="none" xmlns="http://www.w3.org/2000/svg">
<rect x="0.5" width="226" height="76" rx="12" fill="url(#paint0_linear_237_526)"/>
<path fill-rule="evenodd" clip-rule="evenodd" d="M27.4491 49H45.5508C46.1165 49 46.5926 48.567 46.6588 47.9924L48.4922 32.0542C48.5434 31.6125 48.3386 31.1807 47.9678 30.9478C47.5972 30.7149 47.1281 30.7237 46.7659 30.9701L42.0792 34.1654L37.408 27.4782C37.1988 27.1782 36.8604 27 36.4999 27C36.1392 27 35.8011 27.1782 35.5915 27.4782L30.9204 34.1654L26.2349 30.9701H26.2337C25.8718 30.7239 25.4028 30.7151 25.0323 30.9477C24.6617 31.18 24.457 31.6114 24.5076 32.0531L26.341 47.9924C26.4072 48.567 26.8834 49 27.4491 49ZM28.441 46.7177H44.5585L45.9935 34.2396L41.519 37.2898L36.4997 30.1041L31.4805 37.2898L27.0059 34.2396L28.441 46.7177ZM36.4998 37.5887C37.7323 37.5887 38.7315 38.6106 38.7315 39.871C38.7315 41.1315 37.7323 42.1533 36.4998 42.1533C35.2672 42.1533 34.268 41.1315 34.268 39.871C34.268 38.6106 35.2672 37.5887 36.4998 37.5887Z" fill="white"/>
<path d="M60.372 27.016H80.748V29.728H60.372V27.016ZM59.58 35.608H81.444V38.368H59.58V35.608ZM73.5 28.6H76.5V48.184H73.5V28.6ZM65.028 28.6H67.98V34.912C67.98 39.544 67.38 44.8 61.86 48.28C61.332 47.608 60.252 46.6 59.508 46.12C64.476 43.12 65.028 38.8 65.028 34.912V28.6ZM89.076 34.984V43.816H86.34V37.648H83.268V34.984H89.076ZM89.076 42.688C90.036 44.296 91.692 44.968 94.164 45.064C97.02 45.208 102.732 45.136 106.044 44.872C105.732 45.52 105.3 46.84 105.156 47.68C102.18 47.824 97.068 47.872 94.116 47.728C91.236 47.608 89.316 46.912 87.876 45.064C86.772 46 85.644 46.936 84.276 47.944L82.956 45.088C84.084 44.44 85.428 43.576 86.58 42.688H89.076ZM83.604 27.976L85.596 26.128C87.084 27.136 88.956 28.696 89.82 29.848L87.66 31.912C86.892 30.76 85.092 29.08 83.604 27.976ZM93.324 30.28L95.148 28.744C97.284 29.488 100.308 30.784 101.94 31.72L99.972 33.424C98.508 32.512 95.532 31.144 93.324 30.28ZM91.14 31.648H103.356V33.736H93.852V44.08H91.14V31.648ZM102.012 31.648H104.748V41.584C104.748 42.76 104.556 43.36 103.764 43.744C103.02 44.152 101.964 44.152 100.524 44.152C100.428 43.456 100.116 42.52 99.804 41.896C100.572 41.92 101.412 41.92 101.652 41.92C101.94 41.92 102.012 41.824 102.012 41.56V31.648ZM91.356 26.416H102.804V28.6H91.356V26.416ZM92.652 35.032H102.948V37.024H92.652V35.032ZM92.652 38.392H102.948V40.48H92.652V38.392ZM96.612 32.632H99.18V43.984H96.612V32.632ZM101.772 26.416H102.42L102.996 26.272L104.7 27.664C102.996 29.248 100.62 30.952 98.412 32.008C98.076 31.528 97.38 30.784 96.972 30.4C98.772 29.536 100.86 28.024 101.772 26.92V26.416ZM112.452 25.528L115.38 26.272C114.108 29.848 111.996 33.304 109.86 35.464C109.308 34.96 108.084 34 107.388 33.592C109.548 31.72 111.42 28.648 112.452 25.528ZM112.956 28.264H128.22V31.048H111.564L112.956 28.264ZM111.252 33.928H127.668V36.616H114.156V41.656H111.252V33.928ZM107.46 40.24H129.54V43.024H107.46V40.24ZM118.308 29.704H121.284V48.16H118.308V29.704ZM141.444 40.768H144.252C143.268 44.728 140.94 46.96 132.492 48.04C132.3 47.392 131.748 46.216 131.268 45.616C138.9 44.896 140.628 43.456 141.444 40.768ZM135.996 31.792L135.852 32.824H138.42C138.516 32.488 138.588 32.152 138.612 31.792H135.996ZM141.228 28.792V29.92H143.868V28.792H141.228ZM149.004 28.792H146.556V29.92H149.004V28.792ZM143.868 32.824V31.792H141.18C141.156 32.152 141.132 32.488 141.084 32.824H143.868ZM150.468 44.008H147.564C149.82 44.632 152.172 45.352 153.66 45.952L152.052 48.088C150.012 47.2 145.908 45.856 142.908 45.112L144.372 43.216C145.332 43.432 146.412 43.696 147.54 44.008V40H137.412V44.248H134.652V38.512C134.148 38.632 133.596 38.752 133.044 38.848C132.804 38.248 132.132 37.168 131.652 36.664C134.388 36.184 136.068 35.536 137.124 34.696H132.948C133.236 33.424 133.524 31.504 133.692 29.92H138.66V28.792H133.092V26.92H138.66V25.696H141.228V26.92H143.868V25.696H146.556V26.92H151.596V31.792H146.556V32.824H153.108C153.108 32.824 153.084 33.304 153.084 33.616C152.964 35.272 152.82 36.16 152.412 36.64C152.052 37.024 151.548 37.192 151.02 37.24C150.564 37.288 149.676 37.264 148.764 37.216C148.74 36.712 148.524 35.944 148.284 35.44C148.86 35.512 149.364 35.536 149.628 35.512C149.82 35.512 149.964 35.512 150.108 35.344C150.18 35.248 150.252 35.056 150.3 34.696H146.556V37.216H143.868V34.696H140.484C139.908 35.872 138.852 36.856 137.076 37.672H150.468V44.008ZM156.708 44.632C161.004 44.512 167.676 44.272 173.724 44.008L173.628 46.648C167.748 46.984 161.412 47.272 157.092 47.44L156.708 44.632ZM156.588 37.48H176.556V40.168H156.588V37.48ZM160.86 32.872H172.116V35.512H160.86V32.872ZM162.468 39.232L165.756 40.144C164.628 42.4 163.332 44.896 162.252 46.504L159.732 45.664C160.716 43.912 161.868 41.248 162.468 39.232ZM168.42 41.704L170.964 40.384C173.124 42.232 175.356 44.752 176.46 46.576L173.796 48.184C172.788 46.36 170.484 43.624 168.42 41.704ZM166.476 28.432C164.532 31.168 160.788 34.24 156.804 36.136C156.468 35.44 155.7 34.36 155.1 33.736C159.204 31.936 163.044 28.504 164.82 25.672H167.868C170.412 29.2 174.228 31.936 178.044 33.304C177.348 34.024 176.7 35.056 176.172 35.92C172.572 34.24 168.516 31.216 166.476 28.432ZM185.82 29.056V30.904H195.228V29.056H185.82ZM182.82 26.632H198.42V33.328H182.82V26.632ZM188.796 38.608H191.916V40.744C191.916 43.288 190.476 46.36 181.812 48.304C181.452 47.68 180.564 46.576 179.844 45.976C188.076 44.488 188.796 42.256 188.796 40.672V38.608ZM191.364 44.92L192.756 42.808C195.324 43.552 199.26 44.92 201.276 45.808L199.812 48.256C197.94 47.32 194.1 45.808 191.364 44.92ZM181.812 34.864H199.5V43.336H196.38V37.48H184.788V43.648H181.812V34.864Z" fill="white"/>
<defs>
<linearGradient id="paint0_linear_237_526" x1="113.5" y1="0" x2="113.5" y2="76" gradientUnits="userSpaceOnUse">
<stop stop-color="#EFAA16"/>
<stop offset="1" stop-color="#EFCE16"/>
</linearGradient>
</defs>
</svg>
