<svg width="1920" height="308" viewBox="0 0 1920 308" fill="none" xmlns="http://www.w3.org/2000/svg">
<rect width="1920" height="308" fill="url(#paint0_radial_253_579)"/>
<path d="M822.16 77.016H823.924L825.22 67.476C825.268 67.068 825.4 66.66 825.616 66.252C825.856 65.844 826.156 65.472 826.516 65.136C826.876 64.8 827.296 64.524 827.776 64.308C828.232 64.116 828.724 64.02 829.252 64.02H842.356L843.076 58.692H831.844L831.376 59.7C830.632 61.044 829.648 61.716 828.424 61.716H823.312L826.66 53.652H833.86L833.32 54.804H865.396L865.108 57.108C865.036 57.54 864.832 57.912 864.496 58.224C864.16 58.536 863.788 58.692 863.38 58.692H851.032L850.312 64.02H863.452L863.128 66.18C863.056 66.66 862.84 67.068 862.48 67.404C862.144 67.716 861.76 67.872 861.328 67.872H849.772L848.548 77.016H862.948L862.696 78.924C862.6 79.476 862.348 79.944 861.94 80.328C861.532 80.712 861.052 80.904 860.5 80.904H848.008L847.108 87.6H839.188L840.088 80.904H820.612L820.972 78.168C821.02 77.856 821.152 77.592 821.368 77.376C821.608 77.136 821.872 77.016 822.16 77.016ZM831.124 77.016H840.628L841.852 67.872H833.32C833.056 67.872 832.816 67.98 832.6 68.196C832.384 68.436 832.252 68.688 832.204 68.952L831.124 77.016ZM895.448 81.552L904.844 84.504C905.348 84.648 905.864 84.72 906.392 84.72H908.624L908.264 87.6H902.9C901.844 87.6 900.8 87.456 899.768 87.168L888.788 84.144L875.756 87.348C875.108 87.516 874.448 87.6 873.776 87.6H867.08L867.476 84.684H869.348C870.164 84.684 870.968 84.576 871.76 84.36L884.72 80.904L885.476 75.288H892.676L891.812 81.552H895.448ZM876.656 71.688L875.072 82.92H867.908L868.952 75.648C869.096 74.52 869.6 73.584 870.464 72.84C871.304 72.072 872.252 71.688 873.308 71.688H876.656ZM906.608 71.688C907.664 71.688 908.516 72.072 909.164 72.84C909.788 73.584 910.028 74.52 909.884 75.648L908.84 82.92H901.64L902.684 75.72C902.732 75.336 902.648 75.024 902.432 74.784C902.216 74.52 901.928 74.388 901.568 74.388H877.592L877.952 71.688H906.608ZM900.668 63.768H911.648L911.144 67.584C911.024 68.448 910.628 69.18 909.956 69.78C909.308 70.38 908.564 70.68 907.724 70.68H901.964L902.144 69.42C902.168 69.156 902.276 68.94 902.468 68.772C902.66 68.604 902.888 68.52 903.152 68.52C903.344 68.52 903.5 68.46 903.62 68.34C903.764 68.196 903.848 68.04 903.872 67.872L904.088 66.144H900.344L899.804 70.104C899.756 70.344 899.648 70.548 899.48 70.716C899.312 70.86 899.12 70.932 898.904 70.932H892.496L893.144 66.144H887.276L887.096 67.548C886.952 68.604 886.424 69.432 885.512 70.032C884.576 70.632 883.556 70.932 882.452 70.932H869.132C869.252 70.188 869.576 69.588 870.104 69.132C870.632 68.676 871.244 68.448 871.94 68.448H878.564C879.38 68.448 879.836 68.124 879.932 67.476L880.112 66.144H872.228C871.652 66.144 871.184 65.928 870.824 65.496C870.464 65.064 870.32 64.548 870.392 63.948L871.004 59.376H878.204L877.88 61.788L877.844 62.148L877.7 63.084C877.676 63.252 877.712 63.408 877.808 63.552C877.952 63.696 878.108 63.768 878.276 63.768H880.4L880.688 61.788H878.6L878.924 59.376H881.012L881.336 57.072H873.524C872.9 57.072 872.396 56.844 872.012 56.388C871.628 55.908 871.46 55.344 871.508 54.696H881.624C881.672 54.384 881.804 54.132 882.02 53.94C882.26 53.748 882.524 53.652 882.812 53.652H888.968L888.824 54.696H894.692C894.74 54.384 894.872 54.132 895.088 53.94C895.304 53.748 895.568 53.652 895.88 53.652H902.036L901.892 54.696H912.548L911.972 58.908C911.852 59.748 911.468 60.432 910.82 60.96C910.172 61.512 909.428 61.788 908.588 61.788H900.92L900.668 63.768ZM901.568 57.072L901.244 59.376H904.052C904.244 59.376 904.4 59.304 904.52 59.16C904.664 59.04 904.748 58.896 904.772 58.728L904.988 57.072H901.568ZM893.468 63.768L893.72 61.788H887.888L887.6 63.768H893.468ZM894.08 59.376L894.368 57.072H888.5L888.212 59.376H894.08ZM926.149 57.252C925.717 57.252 925.369 57.456 925.105 57.864L923.053 61.68H914.953L918.265 55.416C919.105 54.24 920.185 53.652 921.505 53.652H953.149C954.637 53.652 955.789 54.384 956.605 55.848L959.341 61.68H951.601L949.765 58.152C949.381 57.552 948.877 57.252 948.253 57.252H926.149ZM918.589 64.632C918.949 63.768 919.549 63.336 920.389 63.336H954.769L954.409 65.82C954.337 66.132 954.181 66.384 953.941 66.576C953.725 66.792 953.461 66.9 953.149 66.9H918.085L918.589 64.632ZM914.953 72.336C915.337 72.024 915.769 71.868 916.249 71.868H957.505L957.217 73.596C957.097 74.172 956.821 74.64 956.389 75C955.957 75.36 955.465 75.54 954.913 75.54H927.913L925.393 82.092C925.273 82.428 925.285 82.704 925.429 82.92C925.549 83.184 925.777 83.316 926.113 83.316L946.561 82.056L948.037 85.8L917.833 87.6C916.801 87.6 916.009 87.216 915.457 86.448C914.929 85.68 914.845 84.816 915.205 83.856L919.093 75.54H913.873L914.233 73.56C914.329 73.056 914.569 72.648 914.953 72.336ZM953.221 79.032L955.633 87.6H947.353L944.653 77.448H951.061C952.045 77.448 952.765 77.976 953.221 79.032ZM968.838 64.308C967.878 64.308 967.086 63.936 966.462 63.192C965.862 62.496 965.622 61.644 965.742 60.636L966.714 53.688H974.31L973.914 56.568V56.604L973.77 57.612V57.684L973.446 59.952C973.374 60.36 973.446 60.708 973.662 60.996C973.83 61.284 974.106 61.428 974.49 61.428H996.522C996.882 61.428 997.206 61.284 997.494 60.996C997.782 60.708 997.962 60.36 998.034 59.952L998.502 56.568H975.066L975.462 53.688H1006.24L1005.27 60.636C1005.15 61.644 1004.69 62.496 1003.9 63.192C1003.13 63.936 1002.27 64.308 1001.31 64.308H968.838ZM970.53 72.912L969.342 81.552H961.998L963.618 69.816C963.762 68.712 964.254 67.764 965.094 66.972C965.934 66.156 966.918 65.748 968.046 65.748H971.538L970.854 70.608L970.53 72.876V72.912ZM996.45 69.204H972.762L973.23 65.748H1001.74C1002.85 65.748 1003.72 66.156 1004.37 66.972C1005.02 67.764 1005.27 68.712 1005.13 69.816L1003.51 81.552H997.35C997.038 81.552 996.774 81.444 996.558 81.228C996.366 80.988 996.294 80.688 996.342 80.328L997.674 70.608C997.722 70.248 997.626 69.924 997.386 69.636C997.146 69.348 996.834 69.204 996.45 69.204ZM1001.45 84.72H1003.36L1002.97 87.564H996.054C995.502 87.564 994.494 87.384 993.03 87.024C991.59 86.688 990.066 86.292 988.458 85.836C986.85 85.404 985.458 85.008 984.282 84.648C983.106 84.312 982.518 84.144 982.518 84.144C982.518 84.144 981.906 84.312 980.682 84.648C979.482 85.008 978.018 85.404 976.29 85.836C974.586 86.292 972.918 86.688 971.286 87.024C969.654 87.384 968.43 87.564 967.614 87.564H960.594L960.99 84.72H963.042C963.618 84.72 964.71 84.444 966.318 83.892C967.95 83.34 969.666 82.716 971.466 82.02C973.266 81.3 974.826 80.664 976.146 80.112C977.466 79.56 978.126 79.284 978.126 79.284L979.134 72.048H988.998L987.918 80.112H989.61C989.61 80.112 990.018 80.352 990.834 80.832C991.674 81.288 992.718 81.816 993.966 82.416C995.214 83.016 996.51 83.544 997.854 84C999.198 84.48 1000.4 84.72 1001.45 84.72ZM1024.63 56.604L1024.34 58.908L1019.7 67.836H1020.96C1021.75 67.836 1022.3 68.4 1022.61 69.528L1024.41 78.096H1023.01C1021.09 78.096 1019.71 76.704 1018.87 73.92L1018.76 73.416L1017.11 87.6H1010.59L1011.63 78.312H1007.49L1017.57 58.512H1010.37L1010.63 56.46C1010.65 56.244 1010.75 56.052 1010.91 55.884C1011.06 55.74 1011.24 55.668 1011.45 55.668H1014.66L1014.73 55.056C1014.8 54.648 1014.97 54.312 1015.23 54.048C1015.5 53.784 1015.82 53.652 1016.21 53.652H1021.39L1021.14 55.668H1023.91C1024.13 55.668 1024.31 55.764 1024.45 55.956C1024.62 56.148 1024.68 56.364 1024.63 56.604ZM1044.57 60.708H1035.39L1035.75 57.792H1051.81L1050.87 65.064C1050.75 66.048 1050.33 66.888 1049.61 67.584C1048.89 68.28 1048.09 68.628 1047.2 68.628H1029.92C1029.03 68.628 1028.31 68.28 1027.76 67.584C1027.21 66.888 1026.99 66.048 1027.11 65.064L1028.05 57.792H1034.93L1034.57 60.708L1034.46 61.5L1034.03 64.848C1034 65.088 1034.06 65.292 1034.21 65.46C1034.33 65.652 1034.49 65.748 1034.71 65.748H1043.1C1043.31 65.748 1043.52 65.652 1043.71 65.46C1043.9 65.292 1044.01 65.088 1044.03 64.848L1044.57 60.708ZM1033.02 72.696L1033.38 69.78H1050.84L1049.07 83.604C1048.93 84.708 1048.45 85.656 1047.63 86.448C1046.84 87.216 1045.93 87.6 1044.9 87.6H1027.33C1026.32 87.6 1025.51 87.216 1024.88 86.448C1024.26 85.656 1024.02 84.708 1024.16 83.604L1025.96 69.78H1032.62L1032.26 72.696L1032.15 73.452L1031.72 76.656H1034.06L1034.57 72.696H1033.02ZM1033.02 84.72L1033.67 79.572H1031.36L1030.86 83.388C1030.81 83.748 1030.89 84.06 1031.11 84.324C1031.3 84.588 1031.58 84.72 1031.94 84.72H1033.02ZM1041.48 72.696L1040.97 76.656H1043.28L1043.78 72.696H1041.48ZM1040.61 79.572L1039.93 84.72H1041.05C1041.38 84.72 1041.68 84.588 1041.95 84.324C1042.21 84.06 1042.37 83.748 1042.41 83.388L1042.92 79.572H1040.61ZM1027.83 55.056C1027.91 54.648 1028.07 54.324 1028.34 54.084C1028.6 53.82 1028.91 53.688 1029.27 53.688H1052.96L1052.75 55.2C1052.7 55.584 1052.53 55.908 1052.24 56.172C1051.98 56.436 1051.67 56.568 1051.31 56.568H1027.65L1027.83 55.056ZM1058.18 67.62C1058.3 66.996 1058.58 66.504 1059.04 66.144C1059.5 65.76 1060.02 65.568 1060.62 65.568H1063.76L1059.94 85.224C1059.8 85.944 1059.46 86.52 1058.93 86.952C1058.4 87.384 1057.8 87.6 1057.13 87.6H1054.29L1058.18 67.62ZM1065.45 63.84H1057.38L1057.64 62.112C1057.68 61.776 1057.83 61.512 1058.07 61.32C1058.31 61.104 1058.6 60.996 1058.93 60.996H1065.84L1066.42 56.676H1058.64L1058.72 56.028C1058.81 55.38 1059.09 54.852 1059.54 54.444C1060 54.012 1060.54 53.796 1061.16 53.796H1081.76L1081.65 54.516C1081.53 55.212 1081.19 55.776 1080.64 56.208C1080.21 56.52 1079.74 56.676 1079.24 56.676H1073.58L1073.01 60.996H1081L1080.89 61.896C1080.8 62.472 1080.56 62.94 1080.17 63.3C1079.76 63.66 1079.3 63.84 1078.77 63.84H1072.58L1069.37 87.6H1062.24L1065.45 63.84ZM1073.58 68.34C1073.68 67.524 1073.99 66.864 1074.52 66.36C1075.05 65.832 1075.7 65.568 1076.46 65.568H1079.02L1077.54 84.828C1077.47 85.62 1077.16 86.28 1076.61 86.808C1076.06 87.336 1075.4 87.6 1074.63 87.6H1072.11L1073.58 68.34ZM1083.56 57.72C1083.7 56.736 1084.13 55.932 1084.85 55.308C1085.55 54.66 1086.36 54.336 1087.3 54.336H1089.86L1086.44 79.176C1086.29 80.208 1085.86 81.06 1085.14 81.732C1084.4 82.404 1083.53 82.74 1082.55 82.74H1080.17L1083.56 57.72ZM1094.21 86.448C1093.37 87.216 1092.42 87.6 1091.37 87.6H1081.9L1081.97 86.844C1082.07 86.244 1082.33 85.74 1082.76 85.332C1083.2 84.948 1083.71 84.756 1084.31 84.756H1087.16C1087.52 84.756 1087.83 84.624 1088.09 84.36C1088.36 84.096 1088.51 83.784 1088.56 83.424L1092.09 57.324C1092.26 56.268 1092.72 55.392 1093.49 54.696C1094.24 54 1095.12 53.652 1096.16 53.652H1099.76L1095.72 83.64C1095.56 84.744 1095.05 85.68 1094.21 86.448Z" fill="white"/>
<path d="M734.314 104.337L730.078 116H728.347L733.225 103.203H734.341L734.314 104.337ZM737.865 116L733.62 104.337L733.594 103.203H734.71L739.605 116H737.865ZM737.646 111.263V112.651H730.456V111.263H737.646ZM760.699 108.521V116H759.073V106.49H760.611L760.699 108.521ZM760.312 110.885L759.636 110.858C759.642 110.208 759.738 109.607 759.926 109.057C760.113 108.5 760.377 108.017 760.717 107.606C761.057 107.196 761.461 106.88 761.93 106.657C762.404 106.429 762.929 106.314 763.503 106.314C763.972 106.314 764.394 106.379 764.769 106.508C765.144 106.631 765.463 106.83 765.727 107.105C765.996 107.381 766.201 107.738 766.342 108.178C766.482 108.611 766.553 109.142 766.553 109.769V116H764.918V109.751C764.918 109.253 764.845 108.854 764.698 108.556C764.552 108.251 764.338 108.031 764.057 107.896C763.775 107.756 763.43 107.686 763.02 107.686C762.615 107.686 762.246 107.771 761.912 107.94C761.584 108.11 761.3 108.345 761.06 108.644C760.825 108.942 760.641 109.285 760.506 109.672C760.377 110.053 760.312 110.457 760.312 110.885ZM788.648 108.521V116H787.022V106.49H788.561L788.648 108.521ZM788.262 110.885L787.585 110.858C787.591 110.208 787.688 109.607 787.875 109.057C788.062 108.5 788.326 108.017 788.666 107.606C789.006 107.196 789.41 106.88 789.879 106.657C790.354 106.429 790.878 106.314 791.452 106.314C791.921 106.314 792.343 106.379 792.718 106.508C793.093 106.631 793.412 106.83 793.676 107.105C793.945 107.381 794.15 107.738 794.291 108.178C794.432 108.611 794.502 109.142 794.502 109.769V116H792.867V109.751C792.867 109.253 792.794 108.854 792.647 108.556C792.501 108.251 792.287 108.031 792.006 107.896C791.725 107.756 791.379 107.686 790.969 107.686C790.564 107.686 790.195 107.771 789.861 107.94C789.533 108.11 789.249 108.345 789.009 108.644C788.774 108.942 788.59 109.285 788.455 109.672C788.326 110.053 788.262 110.457 788.262 110.885ZM820.79 113.803V106.49H822.425V116H820.869L820.79 113.803ZM821.098 111.799L821.774 111.781C821.774 112.414 821.707 113 821.572 113.539C821.443 114.072 821.232 114.535 820.939 114.928C820.646 115.32 820.263 115.628 819.788 115.851C819.313 116.067 818.736 116.176 818.057 116.176C817.594 116.176 817.169 116.108 816.782 115.974C816.401 115.839 816.073 115.631 815.798 115.35C815.522 115.068 815.309 114.702 815.156 114.251C815.01 113.8 814.937 113.258 814.937 112.625V106.49H816.562V112.643C816.562 113.07 816.609 113.425 816.703 113.706C816.803 113.981 816.935 114.201 817.099 114.365C817.269 114.523 817.456 114.635 817.661 114.699C817.872 114.764 818.089 114.796 818.312 114.796C819.003 114.796 819.551 114.664 819.955 114.4C820.359 114.131 820.649 113.771 820.825 113.319C821.007 112.862 821.098 112.355 821.098 111.799ZM848.511 114.374V109.479C848.511 109.104 848.435 108.778 848.282 108.503C848.136 108.222 847.913 108.005 847.614 107.853C847.315 107.7 846.946 107.624 846.507 107.624C846.097 107.624 845.736 107.694 845.426 107.835C845.121 107.976 844.881 108.16 844.705 108.389C844.535 108.617 844.45 108.863 844.45 109.127H842.824C842.824 108.787 842.912 108.45 843.088 108.116C843.264 107.782 843.516 107.48 843.844 107.211C844.178 106.936 844.576 106.719 845.039 106.561C845.508 106.396 846.029 106.314 846.604 106.314C847.295 106.314 847.904 106.432 848.432 106.666C848.965 106.9 849.381 107.255 849.68 107.729C849.984 108.198 850.137 108.787 850.137 109.496V113.926C850.137 114.242 850.163 114.579 850.216 114.937C850.274 115.294 850.359 115.602 850.471 115.859V116H848.774C848.692 115.812 848.628 115.563 848.581 115.253C848.534 114.937 848.511 114.644 848.511 114.374ZM848.792 110.234L848.81 111.377H847.166C846.703 111.377 846.29 111.415 845.927 111.491C845.563 111.562 845.259 111.67 845.013 111.816C844.767 111.963 844.579 112.147 844.45 112.37C844.321 112.587 844.257 112.842 844.257 113.135C844.257 113.434 844.324 113.706 844.459 113.952C844.594 114.198 844.796 114.395 845.065 114.541C845.341 114.682 845.678 114.752 846.076 114.752C846.574 114.752 847.014 114.646 847.395 114.436C847.775 114.225 848.077 113.967 848.3 113.662C848.528 113.357 848.651 113.062 848.669 112.774L849.363 113.557C849.322 113.803 849.211 114.075 849.029 114.374C848.848 114.673 848.604 114.96 848.3 115.235C848.001 115.505 847.644 115.73 847.228 115.912C846.817 116.088 846.354 116.176 845.839 116.176C845.194 116.176 844.629 116.05 844.143 115.798C843.662 115.546 843.287 115.209 843.018 114.787C842.754 114.359 842.622 113.882 842.622 113.354C842.622 112.845 842.722 112.396 842.921 112.01C843.12 111.617 843.407 111.292 843.782 111.034C844.157 110.771 844.608 110.571 845.136 110.437C845.663 110.302 846.252 110.234 846.902 110.234H848.792ZM872.461 102.5V116H870.826V102.5H872.461ZM919.913 114.058L923.684 103.203H925.521L920.783 116H919.474L919.913 114.058ZM916.389 103.203L920.124 114.058L920.59 116H919.28L914.552 103.203H916.389ZM947.062 103.203V116H945.366V103.203H947.062ZM972.867 110.981H969.448V109.602H972.867C973.529 109.602 974.065 109.496 974.476 109.285C974.886 109.074 975.185 108.781 975.372 108.406C975.565 108.031 975.662 107.604 975.662 107.123C975.662 106.684 975.565 106.271 975.372 105.884C975.185 105.497 974.886 105.187 974.476 104.952C974.065 104.712 973.529 104.592 972.867 104.592H969.844V116H968.147V103.203H972.867C973.834 103.203 974.651 103.37 975.319 103.704C975.987 104.038 976.494 104.501 976.84 105.093C977.186 105.679 977.358 106.35 977.358 107.105C977.358 107.926 977.186 108.626 976.84 109.206C976.494 109.786 975.987 110.229 975.319 110.533C974.651 110.832 973.834 110.981 972.867 110.981ZM1024.53 110.015H1021.29L1021.27 108.652H1024.21C1024.7 108.652 1025.12 108.57 1025.49 108.406C1025.85 108.242 1026.13 108.008 1026.33 107.703C1026.54 107.393 1026.64 107.023 1026.64 106.596C1026.64 106.127 1026.55 105.746 1026.37 105.453C1026.19 105.154 1025.92 104.938 1025.55 104.803C1025.19 104.662 1024.72 104.592 1024.16 104.592H1021.66V116H1019.97V103.203H1024.16C1024.82 103.203 1025.4 103.271 1025.92 103.405C1026.43 103.534 1026.87 103.739 1027.23 104.021C1027.59 104.296 1027.87 104.647 1028.05 105.075C1028.24 105.503 1028.33 106.016 1028.33 106.613C1028.33 107.141 1028.2 107.618 1027.93 108.046C1027.66 108.468 1027.29 108.813 1026.81 109.083C1026.33 109.353 1025.77 109.525 1025.14 109.602L1024.53 110.015ZM1024.45 116H1020.62L1021.58 114.62H1024.45C1024.99 114.62 1025.45 114.526 1025.82 114.339C1026.2 114.151 1026.49 113.888 1026.69 113.548C1026.89 113.202 1026.99 112.795 1026.99 112.326C1026.99 111.852 1026.91 111.441 1026.74 111.096C1026.57 110.75 1026.3 110.483 1025.94 110.296C1025.57 110.108 1025.1 110.015 1024.53 110.015H1022.11L1022.13 108.652H1025.43L1025.79 109.145C1026.41 109.197 1026.93 109.373 1027.36 109.672C1027.79 109.965 1028.11 110.34 1028.33 110.797C1028.56 111.254 1028.68 111.758 1028.68 112.309C1028.68 113.105 1028.5 113.779 1028.15 114.33C1027.8 114.875 1027.32 115.291 1026.68 115.578C1026.05 115.859 1025.31 116 1024.45 116ZM1052.88 116.176C1052.22 116.176 1051.62 116.064 1051.08 115.842C1050.55 115.613 1050.09 115.294 1049.7 114.884C1049.32 114.474 1049.03 113.987 1048.82 113.425C1048.62 112.862 1048.51 112.247 1048.51 111.579V111.21C1048.51 110.437 1048.63 109.748 1048.86 109.145C1049.09 108.535 1049.4 108.02 1049.79 107.598C1050.18 107.176 1050.63 106.856 1051.12 106.64C1051.62 106.423 1052.14 106.314 1052.67 106.314C1053.35 106.314 1053.94 106.432 1054.43 106.666C1054.93 106.9 1055.33 107.229 1055.65 107.65C1055.97 108.066 1056.2 108.559 1056.35 109.127C1056.51 109.689 1056.58 110.305 1056.58 110.973V111.702H1049.48V110.375H1054.96V110.252C1054.93 109.83 1054.85 109.42 1054.69 109.021C1054.55 108.623 1054.31 108.295 1053.99 108.037C1053.67 107.779 1053.23 107.65 1052.67 107.65C1052.3 107.65 1051.96 107.729 1051.65 107.888C1051.34 108.04 1051.08 108.269 1050.85 108.573C1050.63 108.878 1050.46 109.25 1050.33 109.689C1050.21 110.129 1050.15 110.636 1050.15 111.21V111.579C1050.15 112.03 1050.21 112.455 1050.33 112.854C1050.46 113.246 1050.65 113.592 1050.89 113.891C1051.13 114.189 1051.43 114.424 1051.78 114.594C1052.13 114.764 1052.53 114.849 1052.97 114.849C1053.54 114.849 1054.03 114.731 1054.43 114.497C1054.83 114.263 1055.18 113.949 1055.48 113.557L1056.46 114.339C1056.25 114.649 1055.99 114.945 1055.68 115.227C1055.36 115.508 1054.97 115.736 1054.51 115.912C1054.05 116.088 1053.51 116.176 1052.88 116.176ZM1078.11 108.521V116H1076.48V106.49H1078.02L1078.11 108.521ZM1077.72 110.885L1077.04 110.858C1077.05 110.208 1077.15 109.607 1077.33 109.057C1077.52 108.5 1077.79 108.017 1078.12 107.606C1078.46 107.196 1078.87 106.88 1079.34 106.657C1079.81 106.429 1080.34 106.314 1080.91 106.314C1081.38 106.314 1081.8 106.379 1082.18 106.508C1082.55 106.631 1082.87 106.83 1083.13 107.105C1083.4 107.381 1083.61 107.738 1083.75 108.178C1083.89 108.611 1083.96 109.142 1083.96 109.769V116H1082.33V109.751C1082.33 109.253 1082.25 108.854 1082.11 108.556C1081.96 108.251 1081.75 108.031 1081.46 107.896C1081.18 107.756 1080.84 107.686 1080.43 107.686C1080.02 107.686 1079.65 107.771 1079.32 107.94C1078.99 108.11 1078.71 108.345 1078.47 108.644C1078.23 108.942 1078.05 109.285 1077.91 109.672C1077.79 110.053 1077.72 110.457 1077.72 110.885ZM1108.38 116.176C1107.71 116.176 1107.11 116.064 1106.58 115.842C1106.04 115.613 1105.58 115.294 1105.2 114.884C1104.81 114.474 1104.52 113.987 1104.32 113.425C1104.11 112.862 1104.01 112.247 1104.01 111.579V111.21C1104.01 110.437 1104.12 109.748 1104.35 109.145C1104.58 108.535 1104.89 108.02 1105.28 107.598C1105.68 107.176 1106.12 106.856 1106.62 106.64C1107.12 106.423 1107.63 106.314 1108.17 106.314C1108.85 106.314 1109.43 106.432 1109.92 106.666C1110.42 106.9 1110.83 107.229 1111.15 107.65C1111.46 108.066 1111.7 108.559 1111.85 109.127C1112 109.689 1112.08 110.305 1112.08 110.973V111.702H1104.98V110.375H1110.45V110.252C1110.43 109.83 1110.34 109.42 1110.19 109.021C1110.04 108.623 1109.81 108.295 1109.48 108.037C1109.16 107.779 1108.72 107.65 1108.17 107.65C1107.8 107.65 1107.46 107.729 1107.15 107.888C1106.84 108.04 1106.57 108.269 1106.35 108.573C1106.12 108.878 1105.95 109.25 1105.83 109.689C1105.71 110.129 1105.64 110.636 1105.64 111.21V111.579C1105.64 112.03 1105.71 112.455 1105.83 112.854C1105.96 113.246 1106.14 113.592 1106.38 113.891C1106.63 114.189 1106.92 114.424 1107.27 114.594C1107.62 114.764 1108.02 114.849 1108.46 114.849C1109.04 114.849 1109.53 114.731 1109.92 114.497C1110.32 114.263 1110.67 113.949 1110.97 113.557L1111.95 114.339C1111.75 114.649 1111.49 114.945 1111.17 115.227C1110.86 115.508 1110.47 115.736 1110 115.912C1109.55 116.088 1109 116.176 1108.38 116.176ZM1134.15 116H1132.52V105.664C1132.52 104.943 1132.66 104.334 1132.94 103.836C1133.22 103.338 1133.62 102.96 1134.15 102.702C1134.67 102.444 1135.29 102.315 1136 102.315C1136.42 102.315 1136.84 102.368 1137.24 102.474C1137.64 102.573 1138.06 102.699 1138.49 102.852L1138.22 104.223C1137.95 104.117 1137.63 104.018 1137.28 103.924C1136.92 103.824 1136.54 103.774 1136.12 103.774C1135.42 103.774 1134.91 103.933 1134.6 104.249C1134.3 104.56 1134.15 105.031 1134.15 105.664V116ZM1136.09 106.49V107.738H1131.02V106.49H1136.09ZM1139.29 106.49V116H1137.66V106.49H1139.29ZM1163.94 106.49V107.738H1158.8V106.49H1163.94ZM1160.54 104.179H1162.17V113.645C1162.17 113.967 1162.22 114.21 1162.32 114.374C1162.42 114.538 1162.54 114.646 1162.7 114.699C1162.86 114.752 1163.03 114.778 1163.21 114.778C1163.35 114.778 1163.49 114.767 1163.63 114.743C1163.79 114.714 1163.9 114.69 1163.98 114.673L1163.99 116C1163.86 116.041 1163.69 116.079 1163.48 116.114C1163.27 116.155 1163.02 116.176 1162.73 116.176C1162.33 116.176 1161.96 116.097 1161.63 115.938C1161.3 115.78 1161.03 115.517 1160.83 115.147C1160.64 114.772 1160.54 114.269 1160.54 113.636V104.179ZM1189.39 113.478C1189.39 113.243 1189.33 113.026 1189.23 112.827C1189.13 112.622 1188.92 112.438 1188.6 112.273C1188.29 112.104 1187.82 111.957 1187.2 111.834C1186.67 111.723 1186.19 111.591 1185.76 111.438C1185.34 111.286 1184.98 111.102 1184.68 110.885C1184.39 110.668 1184.17 110.413 1184.01 110.12C1183.85 109.827 1183.77 109.484 1183.77 109.092C1183.77 108.717 1183.85 108.362 1184.02 108.028C1184.19 107.694 1184.42 107.398 1184.73 107.141C1185.04 106.883 1185.41 106.681 1185.84 106.534C1186.28 106.388 1186.76 106.314 1187.29 106.314C1188.06 106.314 1188.71 106.449 1189.25 106.719C1189.78 106.988 1190.2 107.349 1190.48 107.8C1190.77 108.245 1190.92 108.74 1190.92 109.285H1189.29C1189.29 109.021 1189.21 108.767 1189.05 108.521C1188.9 108.269 1188.67 108.061 1188.38 107.896C1188.08 107.732 1187.72 107.65 1187.29 107.65C1186.84 107.65 1186.48 107.721 1186.2 107.861C1185.92 107.996 1185.72 108.169 1185.59 108.38C1185.47 108.591 1185.4 108.813 1185.4 109.048C1185.4 109.224 1185.43 109.382 1185.49 109.522C1185.56 109.657 1185.67 109.783 1185.83 109.9C1185.98 110.012 1186.21 110.117 1186.49 110.217C1186.78 110.316 1187.15 110.416 1187.59 110.516C1188.37 110.691 1189.01 110.902 1189.52 111.148C1190.02 111.395 1190.4 111.696 1190.64 112.054C1190.89 112.411 1191.01 112.845 1191.01 113.354C1191.01 113.771 1190.92 114.151 1190.75 114.497C1190.58 114.843 1190.33 115.142 1190 115.394C1189.68 115.64 1189.29 115.833 1188.84 115.974C1188.4 116.108 1187.89 116.176 1187.34 116.176C1186.5 116.176 1185.79 116.026 1185.21 115.728C1184.63 115.429 1184.19 115.042 1183.89 114.567C1183.59 114.093 1183.44 113.592 1183.44 113.064H1185.08C1185.1 113.51 1185.23 113.864 1185.47 114.128C1185.7 114.386 1185.99 114.57 1186.33 114.682C1186.67 114.787 1187 114.84 1187.34 114.84C1187.78 114.84 1188.16 114.781 1188.45 114.664C1188.76 114.547 1188.99 114.386 1189.15 114.181C1189.31 113.976 1189.39 113.741 1189.39 113.478Z" fill="white" fill-opacity="0.5"/>
<defs>
<radialGradient id="paint0_radial_253_579" cx="0" cy="0" r="1" gradientUnits="userSpaceOnUse" gradientTransform="translate(995.578 -3.44573e-05) scale(1153.57 227.142)">
<stop stop-color="#4080FF"/>
<stop offset="0.25" stop-color="#4080FF" stop-opacity="0.485"/>
<stop offset="0.5" stop-color="#4080FF" stop-opacity="0.219489"/>
<stop offset="0.75" stop-color="#4080FF" stop-opacity="0.0888931"/>
<stop offset="1" stop-color="#4080FF" stop-opacity="0"/>
</radialGradient>
</defs>
</svg>
